<svg xmlns="http://www.w3.org/2000/svg" viewBox="0 0 100 100" width="24px" height="24px"><path d="M 40.449219 12.001953 A 2.0002 2.0002 0 0 0 38.869141 12.853516 C 29.3335 26.46672 21.780856 37.123211 10.228516 50.013672 A 2.0002 2.0002 0 0 0 10.085938 52.503906 C 19.143814 65.293316 27.400157 77.622886 39.169922 88.216797 A 2.0002 2.0002 0 0 0 42.5 86.908203 L 43.728516 73.203125 C 56.617201 72.62737 69.342816 72.424207 84.251953 73.003906 A 2.0002 2.0002 0 0 0 86.320312 71.195312 C 87.54544 58.340559 87.662729 45.138427 86.320312 31.496094 A 2.0002 2.0002 0 0 0 84.144531 29.699219 C 69.098749 31.098474 55.496469 30.818256 42.507812 29.785156 L 42.507812 14 A 2.0002 2.0002 0 0 0 40.449219 12.001953 z M 38.507812 20.203125 L 38.507812 31.691406 A 2.0002 2.0002 0 0 0 40.337891 33.683594 C 45.665383 34.139229 51.124718 34.446493 56.738281 34.578125 L 58.173828 37.412109 A 1.0001 1.0001 0 1 0 59.957031 36.509766 L 59 34.621094 C 60.520091 34.642808 62.054454 34.647778 63.599609 34.640625 L 65.341797 40.103516 A 1.0001 1.0001 0 1 0 67.246094 39.496094 L 65.695312 34.632812 C 67.296455 34.611373 68.916832 34.568611 70.546875 34.513672 L 71.599609 36.673828 A 1.0001 1.0001 0 1 0 73.396484 35.798828 L 72.728516 34.425781 C 74.211012 34.362219 75.699111 34.292407 77.207031 34.199219 L 77.84375 36.265625 A 1.0002221 1.0002221 0 1 0 79.755859 35.677734 L 79.255859 34.050781 C 80.32849 33.975274 81.39242 33.909617 82.478516 33.818359 C 83.542522 45.860195 83.419412 57.543663 82.427734 68.974609 C 81.162402 68.930763 79.929785 68.899076 78.691406 68.865234 L 76.503906 63.242188 A 1.0001 1.0001 0 0 0 75.580078 62.591797 A 1.0001 1.0001 0 0 0 74.640625 63.966797 L 76.523438 68.806641 C 74.934957 68.770096 73.362925 68.739407 71.8125 68.71875 L 70.988281 63.451172 A 1.0001 1.0001 0 0 0 70.027344 62.591797 A 1.0001 1.0001 0 0 0 69.011719 63.759766 L 69.785156 68.703125 C 68.314076 68.689818 66.851529 68.681309 65.408203 68.681641 L 63.980469 61.482422 A 1.0001 1.0001 0 0 0 62.986328 60.662109 A 1.0001 1.0001 0 0 0 62.019531 61.871094 L 63.371094 68.6875 C 61.697752 68.695168 60.038321 68.711392 58.392578 68.736328 L 56.960938 63.724609 A 1.0001 1.0001 0 0 0 56.001953 62.986328 A 1.0001 1.0001 0 0 0 55.039062 64.275391 L 56.322266 68.767578 C 54.819199 68.796849 53.324713 68.832345 51.835938 68.875 L 50.988281 63.451172 A 1.0001 1.0001 0 0 0 50.027344 62.591797 A 1.0001 1.0001 0 0 0 49.011719 63.759766 L 49.822266 68.949219 C 48.283574 68.999448 46.749601 69.063588 45.216797 69.126953 L 44.417969 64.818359 A 1.0001 1.0001 0 0 0 43.433594 63.986328 A 1.0001 1.0001 0 0 0 42.451172 65.181641 L 43.197266 69.203125 C 42.732618 69.224002 42.265556 69.235816 41.800781 69.257812 A 2.0002 2.0002 0 0 0 39.902344 71.078125 L 38.898438 82.289062 C 35.469833 78.935467 32.315026 75.404026 29.302734 71.732422 L 31.814453 70.34375 A 1.0001 1.0001 0 0 0 31.292969 68.462891 A 1.0001 1.0001 0 0 0 30.845703 68.591797 L 28.029297 70.148438 C 27.190137 69.100804 26.356662 68.045664 25.535156 66.976562 L 28.201172 66.392578 A 1.0001 1.0001 0 0 0 28.041016 64.412109 A 1.0001 1.0001 0 0 0 27.773438 64.4375 L 24.205078 65.220703 C 22.973326 63.586673 21.749519 61.935238 20.535156 60.257812 L 23.283203 60.619141 A 1.0006526 1.0006526 0 0 0 23.542969 58.634766 L 18.939453 58.029297 C 17.386842 55.859609 15.837765 53.681477 14.263672 51.453125 C 23.816556 40.671942 30.871708 31.025777 38.507812 20.203125 z M 36.412109 41.074219 C 36.160109 41.029094 35.890563 41.080281 35.664062 41.238281 C 35.211062 41.553281 35.100016 42.177859 35.416016 42.630859 C 35.731016 43.083859 36.355594 43.196859 36.808594 42.880859 C 37.261594 42.565859 37.371641 41.941281 37.056641 41.488281 C 36.899141 41.261781 36.664109 41.119344 36.412109 41.074219 z M 44.847656 46.074219 C 44.595656 46.029094 44.326109 46.080281 44.099609 46.238281 C 43.646609 46.553281 43.535563 47.177859 43.851562 47.630859 C 44.166562 48.083859 44.789187 48.196859 45.242188 47.880859 C 45.695188 47.565859 45.807188 46.941281 45.492188 46.488281 C 45.334688 46.261781 45.099656 46.119344 44.847656 46.074219 z M 36.412109 48.074219 C 36.160109 48.029094 35.890563 48.080781 35.664062 48.238281 C 35.211062 48.554281 35.100016 49.177859 35.416016 49.630859 C 35.731016 50.083859 36.355594 50.194906 36.808594 49.878906 C 37.261594 49.563906 37.372641 48.939328 37.056641 48.486328 C 36.899141 48.260328 36.664109 48.119344 36.412109 48.074219 z"/></svg>