<svg xmlns="http://www.w3.org/2000/svg"  viewBox="0 0 100 100" width="24px" height="24px"><path d="M 28.125 16.001953 C 27.049637 15.99698 25.968235 16.001112 24.878906 16.017578 A 2.0002 2.0002 0 0 0 24.865234 16.017578 C 22.709645 16.065328 20.659208 16.972197 19.171875 18.533203 C 17.684317 20.093746 16.877872 22.183923 16.933594 24.339844 C 17.190276 41.077281 15.326002 58.399642 16.263672 74.974609 A 2.0002 2.0002 0 0 0 16.265625 75.001953 C 16.574242 79.383286 20.119253 82.880938 24.503906 83.128906 C 42.87904 84.165128 60.096844 84.347066 75.640625 83.285156 A 2.0002 2.0002 0 0 0 75.65625 83.285156 C 80.137912 82.947461 83.574665 79.063891 83.365234 74.574219 A 2.0002 2.0002 0 0 0 83.363281 74.554688 C 82.742931 63.484549 83.039767 63.841058 83.425781 60.162109 C 83.811782 56.483299 84.240271 49.302869 83.837891 24.083984 C 83.809051 22.038995 82.926562 20.096384 81.40625 18.728516 C 79.88587 17.360593 77.86185 16.689564 75.826172 16.875 L 75.832031 16.873047 C 58.937121 18.362784 44.255442 16.076548 28.125 16.001953 z M 28.117188 20.003906 C 40.034321 20.067655 51.435148 21.393127 63.820312 21.376953 L 63.191406 22.005859 A 1.0001 1.0001 0 1 0 64.605469 23.419922 L 66.677734 21.349609 C 67.343136 21.33699 68.011743 21.320561 68.683594 21.298828 L 67.876953 22.105469 A 1.0001 1.0001 0 1 0 69.291016 23.519531 L 71.644531 21.167969 C 72.961113 21.097682 74.289239 21.011199 75.634766 20.898438 L 72.292969 24.240234 A 1.0001 1.0001 0 1 0 73.707031 25.654297 L 78.099609 21.261719 C 78.323609 21.384785 78.536889 21.528955 78.730469 21.703125 C 79.249635 22.170235 79.604585 22.780411 79.755859 23.449219 L 76.3125 26.892578 A 1.0001 1.0001 0 1 0 77.726562 28.306641 L 79.865234 26.167969 C 79.880613 27.216926 79.891894 28.183039 79.904297 29.166016 L 78.169922 30.548828 A 1.0001 1.0001 0 1 0 79.416016 32.113281 L 79.9375 31.697266 C 79.948121 32.683541 79.955309 33.58493 79.962891 34.501953 L 78.539062 35.636719 A 1.0001 1.0001 0 1 0 79.785156 37.201172 L 79.980469 37.046875 C 80.063462 51.799031 79.736392 56.988596 79.447266 59.744141 C 79.08553 63.191692 78.746442 63.632435 79.371094 74.779297 L 79.369141 74.759766 C 79.419928 75.848528 79.062802 76.845998 78.447266 77.634766 L 76.777344 74.603516 A 1.0001 1.0001 0 0 0 75.875 74.074219 A 1.0001 1.0001 0 0 0 75.025391 75.568359 L 76.857422 78.896484 C 76.39615 79.108191 75.894904 79.254275 75.355469 79.294922 C 74.884941 79.327044 74.397649 79.347124 73.923828 79.376953 L 71.392578 75.039062 A 1.0001 1.0001 0 0 0 70.478516 74.53125 A 1.0001 1.0001 0 0 0 69.666016 76.044922 L 71.683594 79.505859 C 62.655556 80.001357 53.06055 80.102169 42.994141 79.869141 L 43.892578 78.976562 A 1.0001 1.0001 0 0 0 43.171875 77.257812 A 1.0001 1.0001 0 0 0 42.482422 77.556641 L 40.228516 79.794922 C 38.759489 79.752601 37.280738 79.704054 35.792969 79.648438 L 37.705078 77.75 A 1.0001 1.0001 0 0 0 36.984375 76.03125 A 1.0001 1.0001 0 0 0 36.294922 76.330078 L 33.0625 79.542969 C 31.686863 79.484673 30.300714 79.418538 28.910156 79.349609 L 31.625 77.177734 A 1.0001 1.0001 0 0 0 30.992188 75.388672 A 1.0001 1.0001 0 0 0 30.375 75.615234 L 25.898438 79.195312 C 25.506982 79.17397 25.123036 79.158857 24.730469 79.136719 C 23.377461 79.060201 22.197925 78.420801 21.382812 77.458984 L 25.783203 75.476562 A 1.0001 1.0001 0 0 0 25.318359 73.560547 A 1.0001 1.0001 0 0 0 24.962891 73.652344 L 20.433594 75.691406 C 20.34561 75.379212 20.279541 75.056898 20.255859 74.720703 C 20.179674 73.369003 20.130092 72.006018 20.089844 70.638672 L 25.568359 69.548828 A 1.0001 1.0001 0 0 0 25.345703 67.566406 A 1.0001 1.0001 0 0 0 25.177734 67.587891 L 20.035156 68.609375 C 20.011706 67.299643 20.021936 65.974101 20.023438 64.652344 A 1.0002025 1.0002025 0 0 0 20.039062 64.650391 L 24.587891 63.884766 A 1.0001 1.0001 0 0 0 24.423828 61.896484 A 1.0001 1.0001 0 0 0 24.255859 61.912109 L 20.015625 62.625 C 20.026938 61.409801 20.059843 60.182522 20.085938 58.958984 L 22.478516 58.822266 A 1.0002522 1.0002522 0 0 0 22.433594 56.822266 A 1.0001 1.0001 0 0 0 22.363281 56.824219 L 20.125 56.953125 C 20.152678 55.909657 20.186405 54.860839 20.220703 53.8125 L 22.302734 53.691406 A 1.0001 1.0001 0 0 0 22.257812 51.693359 A 1.0001 1.0001 0 0 0 22.1875 51.695312 L 20.287109 51.804688 C 20.610066 42.702679 21.075495 33.452044 20.933594 24.257812 A 2.0002 2.0002 0 0 0 20.931641 24.238281 C 20.903361 23.144202 21.311964 22.084426 22.066406 21.292969 C 22.820535 20.501167 23.858019 20.042311 24.951172 20.017578 C 26.011557 20.001636 27.06597 19.998283 28.117188 20.003906 z M 24.601562 27.574219 C 24.049563 27.574219 23.601562 28.022219 23.601562 28.574219 C 23.601562 29.126219 24.049563 29.574219 24.601562 29.574219 C 25.153562 29.574219 25.601562 29.126219 25.601562 28.574219 C 25.601562 28.022219 25.153562 27.574219 24.601562 27.574219 z M 32.792969 27.574219 C 32.240969 27.574219 31.792969 28.022219 31.792969 28.574219 C 31.792969 29.126219 32.240969 29.574219 32.792969 29.574219 C 33.344969 29.574219 33.792969 29.126219 33.792969 28.574219 C 33.792969 28.022219 33.344969 27.574219 32.792969 27.574219 z M 38.970703 30.972656 A 2.0002 2.0002 0 0 0 37 33 L 37 55 C 37 57.8816 37.849659 60.863857 39.943359 63.255859 C 42.03706 65.647862 45.29589 67.348678 49.716797 67.980469 C 53.476388 68.517553 57.055 68.284351 60.121094 66.800781 C 63.187187 65.317211 65.59446 62.539443 66.896484 58.632812 C 68.07568 55.095225 67.780138 51.11319 66.158203 47.691406 C 64.536268 44.269623 61.471973 41.382389 57.244141 40.431641 C 53.83156 39.66448 49.857422 40.005859 49.857422 40.005859 A 2.0002 2.0002 0 1 0 50.142578 43.994141 C 50.142578 43.994141 53.923757 43.785641 56.365234 44.333984 C 59.332402 45.001236 61.366154 46.92158 62.542969 49.404297 C 63.719784 51.887014 63.92432 54.904775 63.103516 57.367188 C 62.07254 60.460557 60.479563 62.182789 58.378906 63.199219 C 56.27825 64.215649 53.523612 64.482447 50.283203 64.019531 C 46.56611 63.488322 44.324924 62.188341 42.953125 60.621094 C 41.581326 59.053846 41 57.1184 41 55 L 41 33 A 2.0002 2.0002 0 0 0 38.970703 30.972656 z M 29.601562 31.978516 C 29.049563 31.978516 28.601562 32.426516 28.601562 32.978516 C 28.601562 33.530516 29.049563 33.978516 29.601562 33.978516 C 30.153562 33.978516 30.601562 33.530516 30.601562 32.978516 C 30.601562 32.426516 30.153562 31.978516 29.601562 31.978516 z"/></svg>