<svg xmlns="http://www.w3.org/2000/svg"  viewBox="0 0 100 100" width="24px" height="24px"><path d="M 70.865234 8.1875 L 23.164062 8.3652344 A 2.0002 2.0002 0 0 0 21.257812 10.947266 C 31.18266 43.575188 31.40149 68.990204 27.84375 91.761719 A 2.0002 2.0002 0 0 0 30.871094 93.771484 L 55.216797 78.746094 L 77.154297 93.070312 A 2.0002 2.0002 0 0 0 80.234375 91.626953 C 83.041403 67.64376 82.516334 30.052307 72.679688 9.3300781 A 2.0002 2.0002 0 0 0 70.865234 8.1875 z M 69.5 12.193359 C 70.204489 13.780549 70.853624 15.489708 71.455078 17.289062 L 66.5625 21.730469 A 1.0001 1.0001 0 1 0 67.90625 23.210938 L 72.121094 19.386719 C 72.246736 19.80402 72.367523 20.228099 72.488281 20.654297 L 70.365234 22.685547 A 1.0001373 1.0001373 0 1 0 71.748047 24.130859 L 73.082031 22.855469 C 73.920776 26.135728 74.631344 29.633265 75.216797 33.285156 L 71.496094 35.525391 A 1.0005202 1.0005202 0 1 0 72.527344 37.240234 L 75.525391 35.433594 C 75.621586 36.094849 75.721863 36.750656 75.810547 37.419922 L 73.675781 38.5625 A 1.0001 1.0001 0 1 0 74.619141 40.326172 L 76.074219 39.546875 C 76.206544 40.653591 76.338135 41.76215 76.451172 42.884766 L 74.681641 43.175781 A 1.0001 1.0001 0 1 0 75.007812 45.148438 L 76.630859 44.880859 C 76.856023 47.377396 77.040777 49.89637 77.177734 52.429688 L 73.15625 50.021484 A 1.0001 1.0001 0 0 0 72.583984 49.873047 A 1.0001 1.0001 0 0 0 72.128906 51.736328 L 77.292969 54.830078 C 77.331896 55.725029 77.367804 56.619218 77.396484 57.513672 L 73.945312 55.230469 A 1.0001 1.0001 0 0 0 73.380859 55.056641 A 1.0001 1.0001 0 0 0 72.841797 56.898438 L 77.460938 59.953125 C 77.49247 61.39104 77.517003 62.825715 77.523438 64.251953 L 75.771484 62.8125 A 1.0001 1.0001 0 0 0 75.128906 62.576172 A 1.0001 1.0001 0 0 0 74.501953 64.357422 L 77.513672 66.832031 C 77.47009 74.298512 77.106617 81.496447 76.478516 87.851562 L 63.048828 79.083984 L 64.755859 77.337891 A 1.0001 1.0001 0 0 0 64.009766 75.628906 A 1.0001 1.0001 0 0 0 63.326172 75.939453 L 61.341797 77.96875 L 59.611328 76.839844 L 62.044922 72.513672 A 1.0001 1.0001 0 0 0 61.177734 71.009766 A 1.0001 1.0001 0 0 0 60.302734 71.533203 L 57.933594 75.744141 L 56.492188 74.802734 L 58.582031 67.724609 A 1.0001 1.0001 0 0 0 57.599609 66.427734 A 1.0001 1.0001 0 0 0 56.664062 67.158203 L 54.488281 74.529297 A 2.0002 2.0002 0 0 0 54.195312 74.675781 L 32.234375 88.228516 C 32.615543 85.387089 32.933243 82.497105 33.183594 79.558594 L 37.384766 77.183594 A 1.0001 1.0001 0 0 0 36.947266 75.306641 A 1.0001 1.0001 0 0 0 36.400391 75.443359 L 33.365234 77.158203 C 33.422819 76.349528 33.475059 75.537578 33.521484 74.720703 L 37.486328 71.712891 A 1.0001 1.0001 0 0 0 36.900391 69.908203 A 1.0001 1.0001 0 0 0 36.277344 70.119141 L 33.652344 72.111328 C 33.679614 71.451334 33.697196 70.784743 33.716797 70.119141 L 36.623047 67.539062 A 1.0001 1.0001 0 0 0 36 65.783203 A 1.0001 1.0001 0 0 0 35.294922 66.044922 L 33.783203 67.386719 C 33.874513 60.38897 33.518503 53.064645 32.613281 45.345703 L 36.353516 45.136719 A 1.0001 1.0001 0 0 0 36.3125 43.138672 A 1.0001 1.0001 0 0 0 36.242188 43.140625 L 32.376953 43.357422 C 32.296823 42.734688 32.200775 42.100682 32.113281 41.472656 L 35.806641 40.691406 A 1.0001 1.0001 0 0 0 35.560547 38.710938 A 1.0001 1.0001 0 0 0 35.392578 38.734375 L 31.833984 39.486328 C 31.701507 38.606271 31.549573 37.712905 31.402344 36.822266 L 34.919922 35.765625 A 1.0001 1.0001 0 0 0 34.611328 33.804688 A 1.0001 1.0001 0 0 0 34.345703 33.849609 L 31.070312 34.833984 C 30.23552 30.098038 29.179536 25.205358 27.898438 20.150391 L 38.572266 24.96875 A 1.0001 1.0001 0 1 0 39.394531 23.146484 L 27.269531 17.671875 C 27.080705 16.961691 26.868071 16.234406 26.669922 15.517578 L 35.626953 19.429688 A 1.0001 1.0001 0 1 0 36.427734 17.597656 L 25.978516 13.03125 C 25.912946 12.803999 25.857526 12.58339 25.791016 12.355469 L 46.720703 12.277344 L 47.509766 15.646484 A 1.0001 1.0001 0 1 0 49.457031 15.191406 L 48.773438 12.269531 L 49.763672 12.265625 L 50.539062 17.867188 A 1.0001 1.0001 0 1 0 52.519531 17.59375 L 51.783203 12.259766 L 69.5 12.193359 z M 43.105469 29.779297 C 42.609469 29.779297 42.205078 30.183687 42.205078 30.679688 C 42.205078 31.175688 42.609469 31.578125 43.105469 31.578125 C 43.601469 31.578125 44.003906 31.175688 44.003906 30.679688 C 44.003906 30.183687 43.601469 29.779297 43.105469 29.779297 z M 50.470703 29.779297 C 49.974703 29.779297 49.570312 30.183687 49.570312 30.679688 C 49.570312 31.175688 49.974703 31.578125 50.470703 31.578125 C 50.966703 31.578125 51.369141 31.175688 51.369141 30.679688 C 51.369141 30.183687 50.966703 29.779297 50.470703 29.779297 z M 47.599609 33.738281 C 47.103609 33.738281 46.701172 34.141672 46.701172 34.638672 C 46.701172 35.134672 47.103609 35.537109 47.599609 35.537109 C 48.095609 35.537109 48.498047 35.134672 48.498047 34.638672 C 48.498047 34.142672 48.095609 33.738281 47.599609 33.738281 z"/></svg>