<svg xmlns="http://www.w3.org/2000/svg"  viewBox="0 0 100 100" width="24px" height="24px"><path d="M 48.134766 12.957031 C 28.026829 13.05603 14.031219 30.333409 13.001953 49.894531 C 11.937592 70.117399 29.627796 85.984147 49.898438 86.998047 C 71.074026 88.056826 85.947891 70.021328 86.996094 50.105469 C 88.07447 29.611015 70.350232 14.014852 50.099609 13.001953 C 49.438476 12.968896 48.783409 12.953838 48.134766 12.957031 z M 48.148438 16.957031 C 48.725874 16.954469 49.309571 16.968604 49.898438 16.998047 C 50.987572 17.052523 52.067035 17.156571 53.134766 17.300781 L 52.052734 19.568359 A 1.0002693 1.0002693 0 1 0 53.857422 20.431641 L 55.191406 17.636719 C 56.804732 17.944324 58.385612 18.349031 59.921875 18.851562 L 58.009766 21.400391 A 1.0001 1.0001 0 1 0 59.609375 22.599609 L 61.886719 19.5625 C 63.507065 20.193533 65.069388 20.931007 66.5625 21.767578 L 64.873047 25.060547 A 1.0001 1.0001 0 1 0 66.652344 25.972656 L 68.283203 22.792969 C 69.444007 23.530525 70.554645 24.329958 71.609375 25.1875 L 69.371094 28.609375 A 1.0001 1.0001 0 1 0 71.042969 29.705078 L 73.134766 26.507812 C 74.314536 27.589346 75.408861 28.74879 76.408203 29.978516 L 74.292969 32.376953 A 1.0001 1.0001 0 1 0 75.791016 33.701172 L 77.646484 31.597656 C 78.584735 32.919915 79.420487 34.309902 80.132812 35.765625 L 77.863281 38.337891 A 1.0004441 1.0004441 0 1 0 79.363281 39.662109 L 81.017578 37.787109 C 82.498049 41.505974 83.22903 45.578957 83.001953 49.894531 C 82.050156 67.978672 68.924021 83.943174 50.099609 83.001953 C 48.025831 82.898227 45.988862 82.615861 44.001953 82.185547 L 44.001953 79 A 1.0001 1.0001 0 0 0 42.986328 77.986328 A 1.0001 1.0001 0 0 0 42.001953 79 L 42.001953 81.699219 C 40.471901 81.279475 38.980618 80.763822 37.535156 80.164062 L 38.894531 77.447266 A 1.0001 1.0001 0 0 0 37.955078 75.988281 A 1.0001 1.0001 0 0 0 37.107422 76.552734 L 35.707031 79.351562 C 34.229434 78.643421 32.808954 77.844698 31.457031 76.958984 L 35.708984 72.707031 A 1.0001 1.0001 0 0 0 34.980469 70.990234 A 1.0001 1.0001 0 0 0 34.292969 71.292969 L 29.791016 75.794922 C 28.690653 74.981213 27.644896 74.108544 26.658203 73.181641 L 28.859375 69.513672 A 1.0001 1.0001 0 0 0 28.033203 67.988281 A 1.0001 1.0001 0 0 0 27.142578 68.486328 L 25.197266 71.730469 C 24.262898 70.738196 23.401354 69.688601 22.605469 68.595703 L 25.78125 64.625 A 1.0001 1.0001 0 0 0 24.96875 62.990234 A 1.0001 1.0001 0 0 0 24.220703 63.375 L 21.425781 66.869141 C 20.756307 65.806214 20.159169 64.7016 19.628906 63.564453 L 22.78125 59.625 A 1.0001 1.0001 0 0 0 21.96875 57.990234 A 1.0001 1.0001 0 0 0 21.220703 58.375 L 18.748047 61.466797 C 18.248597 60.130897 17.851375 58.753472 17.556641 57.339844 L 20.447266 55.894531 A 1.0001 1.0001 0 0 0 20.005859 53.994141 A 1.0001 1.0001 0 0 0 19.554688 54.105469 L 17.201172 55.28125 C 16.979703 53.597158 16.903254 51.869426 16.996094 50.105469 C 17.887807 33.15852 29.081947 18.539335 45.582031 17.087891 L 44.142578 19.486328 A 1.0003534 1.0003534 0 1 0 45.859375 20.513672 L 47.990234 16.962891 C 48.043415 16.962386 48.095157 16.957268 48.148438 16.957031 z M 37.404297 35.552734 A 2.0002 2.0002 0 0 0 36.029297 38.919922 C 39.712296 43.012726 43.368567 46.809097 47.015625 50.501953 C 43.274122 54.19872 39.546534 57.751685 35.84375 61.058594 A 2.0002325 2.0002325 0 1 0 38.507812 64.042969 C 42.262673 60.689552 46.039993 57.086708 49.830078 53.341797 C 53.620163 57.086708 57.397484 60.689552 61.152344 64.042969 A 2.0002325 2.0002325 0 1 0 63.816406 61.058594 C 60.113623 57.751685 56.386034 54.19872 52.644531 50.501953 C 56.29159 46.809097 59.947861 43.012726 63.630859 38.919922 A 2.0002 2.0002 0 0 0 62.199219 35.560547 A 2.0002 2.0002 0 0 0 60.658203 36.244141 C 57.025918 40.280588 53.422783 44.021362 49.830078 47.660156 C 46.237373 44.021362 42.634238 40.280588 39.001953 36.244141 A 2.0002 2.0002 0 0 0 37.404297 35.552734 z M 71.589844 59.277344 C 71.174437 59.225641 70.748141 59.421141 70.525391 59.806641 C 70.228391 60.319641 70.404969 60.978391 70.917969 61.275391 C 71.431969 61.572391 72.089719 61.396813 72.386719 60.882812 C 72.683719 60.368812 72.508141 59.709109 71.994141 59.412109 C 71.865891 59.337859 71.728313 59.294578 71.589844 59.277344 z M 73.96875 64.617188 C 73.553344 64.565484 73.127047 64.760984 72.904297 65.146484 C 72.607297 65.659484 72.783875 66.316281 73.296875 66.613281 C 73.810875 66.910281 74.468625 66.734703 74.765625 66.220703 C 75.062625 65.707703 74.887047 65.050906 74.373047 64.753906 C 74.244797 64.679656 74.107219 64.634422 73.96875 64.617188 z M 67.181641 66.898438 C 66.766234 66.846734 66.339937 67.042234 66.117188 67.427734 C 65.820187 67.940734 65.996766 68.600484 66.509766 68.896484 C 67.023766 69.193484 67.681516 69.017906 67.978516 68.503906 C 68.275516 67.991906 68.099937 67.332156 67.585938 67.035156 C 67.457687 66.960906 67.320109 66.915672 67.181641 66.898438 z"/></svg>