<svg xmlns="http://www.w3.org/2000/svg"  viewBox="0 0 100 100" width="24px" height="24px"><path d="M 51.865234 12.957031 C 51.216591 12.953838 50.561524 12.968896 49.900391 13.001953 C 29.914312 14.00162 12.40028 29.209806 12.982422 49.308594 L 10.285156 52.005859 A 1.0001 1.0001 0 1 0 11.699219 53.419922 L 13.142578 51.976562 C 13.273705 53.334927 13.473611 54.679811 13.730469 56.009766 L 10.96875 58.773438 A 1.0001 1.0001 0 1 0 12.382812 60.1875 L 14.248047 58.322266 C 14.525078 59.426916 14.843632 60.515474 15.205078 61.587891 L 12.292969 64.5 A 1.0005839 1.0005839 0 1 0 13.707031 65.916016 L 15.964844 63.658203 C 16.444497 64.869725 16.974825 66.056074 17.560547 67.208984 L 14.867188 69.900391 A 1.0001 1.0001 0 1 0 16.28125 71.314453 L 18.550781 69.046875 C 19.212346 70.199573 19.926347 71.317536 20.693359 72.390625 L 17.873047 75.210938 A 1.0005836 1.0005836 0 1 0 19.289062 76.625 L 21.914062 74 C 22.51863 74.758794 23.148367 75.494333 23.806641 76.201172 L 20.884766 79.123047 A 1.0001 1.0001 0 1 0 22.298828 80.537109 L 25.207031 77.628906 C 26.00205 78.394155 26.832546 79.118184 27.693359 79.804688 L 24.634766 82.863281 A 1.0001 1.0001 0 1 0 26.048828 84.277344 L 29.304688 81.021484 C 30.20112 81.654232 31.132887 82.239665 32.089844 82.783203 L 28.84375 86.029297 A 1.0001 1.0001 0 1 0 30.257812 87.443359 L 33.9375 83.763672 C 34.988187 84.275014 36.070774 84.731912 37.183594 85.130859 L 34.529297 87.785156 A 1.0001 1.0001 0 1 0 35.943359 89.199219 L 39.335938 85.808594 C 40.519292 86.141506 41.733597 86.407497 42.976562 86.607422 L 41.083984 88.5 A 1.0012745 1.0012745 0 1 0 42.5 89.916016 L 45.501953 86.914062 C 46.910416 87.031038 48.349655 87.066021 49.822266 87.003906 L 48.53125 88.294922 A 1.0001 1.0001 0 1 0 49.945312 89.708984 L 52.902344 86.751953 C 71.970148 84.491419 88.012986 69.178379 86.998047 49.894531 C 85.968781 30.333409 71.973171 13.05603 51.865234 12.957031 z M 51.849609 16.957031 C 54.480133 16.968706 56.984566 17.318253 59.355469 17.945312 L 58.216797 19.378906 A 1.0001 1.0001 0 1 0 59.783203 20.621094 L 61.416016 18.566406 C 62.507632 18.944792 63.565998 19.385075 64.589844 19.884766 L 62.324219 21.964844 A 1.0001 1.0001 0 1 0 63.675781 23.4375 L 66.453125 20.888672 C 67.396848 21.438338 68.304784 22.040179 69.179688 22.689453 L 66.330078 25.257812 A 1.0001 1.0001 0 1 0 67.669922 26.742188 L 70.769531 23.947266 C 71.619197 24.670763 72.433552 25.437466 73.205078 26.251953 L 70.277344 29.308594 A 1.000137 1.000137 0 1 0 71.722656 30.691406 L 74.535156 27.755859 C 75.157618 28.500037 75.75224 29.270099 76.3125 30.072266 L 73.271484 33.316406 A 1.0001 1.0001 0 1 0 74.728516 34.683594 L 77.435547 31.796875 C 78.130198 32.928479 78.768452 34.105325 79.341797 35.324219 L 76.302734 38.283203 A 1.0001 1.0001 0 1 0 77.697266 39.716797 L 80.195312 37.283203 C 80.697043 38.529708 81.133765 39.812399 81.507812 41.125 L 79.300781 43.285156 A 1.0001 1.0001 0 1 0 80.699219 44.714844 L 82.082031 43.361328 C 82.569926 45.548816 82.880935 47.805524 83.001953 50.105469 C 83.937592 67.882601 68.215749 82.085853 49.900391 83.001953 C 31.075979 83.943174 17.949844 67.978672 16.998047 49.894531 C 16.046423 31.808985 31.764232 17.915148 50.099609 16.998047 C 50.688476 16.968604 51.272173 16.954469 51.849609 16.957031 z M 51.492188 18.972656 A 2.0002 2.0002 0 0 0 49.542969 20.585938 C 49.09762 22.694503 48.894248 24.556604 49.671875 26.310547 A 2.0002 2.0002 0 1 0 53.328125 24.689453 C 53.197752 24.395396 53.08838 23.159497 53.457031 21.414062 A 2.0002 2.0002 0 0 0 51.492188 18.972656 z M 31.886719 32.037109 C 31.375719 32.066484 30.874359 32.290125 30.505859 32.703125 C 29.771859 33.528125 29.843922 34.792344 30.669922 35.527344 C 34.928922 39.321344 39.727109 44.143438 44.537109 49.148438 C 44.192109 49.940438 44 50.811516 44 51.728516 C 44 55.312516 46.916 58.228516 50.5 58.228516 C 54.084 58.228516 57 55.312516 57 51.728516 C 57 51.315516 56.956813 50.913484 56.882812 50.521484 C 60.196813 47.468484 63.219344 44.243953 66.152344 40.626953 C 66.847344 39.769953 66.716422 38.5085 65.857422 37.8125 C 65.001422 37.1175 63.741922 37.248422 63.044922 38.107422 C 60.443922 41.315422 57.769141 44.200641 54.869141 46.931641 C 53.713141 45.877641 52.183 45.228516 50.5 45.228516 C 49.293 45.228516 48.165313 45.564625 47.195312 46.140625 C 42.401313 41.157625 37.614078 36.354062 33.330078 32.539062 C 32.918578 32.172562 32.397719 32.007734 31.886719 32.037109 z M 79.109375 47.996094 A 2.0002 2.0002 0 0 0 78.574219 48.044922 L 73.982422 49.044922 A 2.0009047 2.0009047 0 1 0 74.833984 52.955078 L 79.425781 51.955078 A 2.0002 2.0002 0 0 0 79.109375 47.996094 z M 21 48 A 2.0002 2.0002 0 1 0 21 52 L 25.5 52 A 2.0002 2.0002 0 1 0 25.5 48 L 21 48 z M 50.615234 48.84375 C 52.281234 48.84375 53.634766 50.197281 53.634766 51.863281 C 53.634766 53.529281 52.281234 54.882812 50.615234 54.882812 C 48.949234 54.882812 47.595703 53.529281 47.595703 51.863281 C 47.595703 50.197281 48.949234 48.84375 50.615234 48.84375 z M 26 61.910156 A 1 1 0 0 0 26 63.910156 A 1 1 0 0 0 26 61.910156 z M 34 63.910156 A 1 1 0 0 0 34 65.910156 A 1 1 0 0 0 34 63.910156 z M 30.800781 67.859375 A 1 1 0 0 0 30.800781 69.859375 A 1 1 0 0 0 30.800781 67.859375 z M 38.445312 70 A 1 1 0 0 0 38.445312 72 A 1 1 0 0 0 38.445312 70 z M 51.478516 71.472656 A 2.0002 2.0002 0 0 0 49.537109 73.884766 C 49.824475 75.353041 49.808798 76.554461 49.564453 77.498047 A 2.0002 2.0002 0 1 0 53.435547 78.501953 C 53.871206 76.819539 53.833529 75.008959 53.462891 73.115234 A 2.0002 2.0002 0 0 0 51.478516 71.472656 z"/></svg>