<svg xmlns="http://www.w3.org/2000/svg"  viewBox="0 0 100 100" width="24px" height="24px"><path d="M 72.126953 12.115234 C 71.621423 12.123687 71.10815 12.159008 70.589844 12.220703 C 66.44345 12.714839 62.632772 14.783609 60.041016 17.787109 C 57.44926 20.79061 56.09041 24.894613 57.283203 29.037109 C 58.135906 32.000623 59.866793 34.465124 61.917969 36.550781 C 58.197075 40.843792 55.564604 45.250866 50.886719 49.496094 C 44.16212 48.620438 38.962376 49.431653 33.794922 49.332031 C 33.366259 46.152256 32.213664 43.116025 29.982422 40.796875 C 27.039607 37.738393 22.943898 36.147411 18.9375 36.123047 C 14.931102 36.098687 10.882459 37.723457 8.4765625 41.269531 C 6.273206 44.51907 4.9975348 48.236658 5.0449219 51.949219 C 5.0923089 55.661779 6.5368688 59.368406 9.5703125 62.238281 C 12.603332 65.108297 16.631025 66.71036 20.597656 66.779297 C 24.564287 66.848237 28.587953 65.267169 31.007812 61.699219 C 32.738706 59.14696 33.524999 56.239224 33.814453 53.328125 C 39.35665 53.436632 44.320654 52.683853 50.369141 53.460938 C 53.993568 59.546054 58.028136 63.156864 61.289062 67.357422 C 59.084007 69.689544 57.445488 72.493771 57.042969 75.6875 C 56.512853 79.898201 57.848926 84.085022 60.347656 87.216797 C 62.846387 90.348572 66.655068 92.476347 70.925781 92.119141 C 74.838138 91.791646 78.53243 90.447939 81.390625 88.078125 C 84.24882 85.708311 86.224782 82.256813 86.550781 78.09375 C 86.877368 73.931062 85.591213 69.789108 83.152344 66.660156 C 80.713856 63.531694 76.955079 61.397108 72.660156 61.755859 L 72.658203 61.755859 C 69.586475 62.013116 66.830143 63.227005 64.384766 64.830078 C 61.003015 60.471536 57.316677 57.093862 54.130859 51.943359 C 58.984478 47.399647 61.659942 42.949836 65 39.09375 C 67.718094 40.800265 70.789065 41.857177 74 41.626953 C 78.232432 41.323032 82.077587 39.196917 84.660156 36.134766 C 87.242719 33.072621 88.585058 28.920603 87.400391 24.802734 L 87.400391 24.800781 C 86.314452 21.028677 84.273017 17.669617 81.390625 15.330078 C 79.228496 13.575152 76.566039 12.42462 73.621094 12.167969 C 73.130269 12.125194 72.632483 12.106782 72.126953 12.115234 z M 72.203125 16.111328 C 72.668416 16.101478 73.116614 16.130255 73.556641 16.177734 L 73.160156 19.021484 A 1.0001 1.0001 0 1 0 75.140625 19.298828 L 75.519531 16.59375 C 76.479701 16.905164 77.373767 17.359604 78.205078 17.941406 L 77.404297 19.085938 A 1.0001 1.0001 0 1 0 79.042969 20.232422 L 79.744141 19.230469 C 81.456904 20.932411 82.79261 23.25343 83.556641 25.908203 C 84.326003 28.580704 83.497601 31.306557 81.601562 33.554688 C 80.448083 34.922369 78.904223 36.05147 77.1875 36.779297 L 76.130859 34.697266 A 1.0001 1.0001 0 0 0 75.248047 34.136719 A 1.0001 1.0001 0 0 0 74.347656 35.601562 L 75.257812 37.394531 C 74.747987 37.509587 74.233631 37.601348 73.712891 37.638672 C 73.039691 37.68694 72.358482 37.657443 71.679688 37.560547 L 71.501953 35.578125 A 1.0001 1.0001 0 0 0 70.5 34.652344 A 1.0001 1.0001 0 0 0 69.509766 35.755859 L 69.625 37.050781 C 65.815426 35.719823 62.386864 32.310379 61.126953 27.931641 A 2.0002 2.0002 0 0 0 61.126953 27.929688 C 60.342746 25.206183 61.169323 22.60339 63.070312 20.400391 C 63.93391 19.399596 65.028485 18.525512 66.25 17.824219 L 66.384766 18.28125 A 1.0001 1.0001 0 1 0 68.302734 17.714844 L 68.078125 16.953125 C 69.039014 16.582557 70.042288 16.313155 71.0625 16.191406 L 71.064453 16.191406 C 71.452278 16.145309 71.83185 16.119188 72.203125 16.111328 z M 68.173828 25.611328 C 67.789969 25.544906 67.386359 25.706688 67.162109 26.054688 C 66.864109 26.518688 66.998891 27.1385 67.462891 27.4375 C 67.926891 27.7355 68.54475 27.600719 68.84375 27.136719 C 69.14275 26.672719 69.008922 26.054859 68.544922 25.755859 C 68.428922 25.681109 68.301781 25.633469 68.173828 25.611328 z M 18.914062 40.123047 C 20.703018 40.133929 22.558926 40.596318 24.216797 41.449219 L 22.480469 45.478516 A 1.0008294 1.0008294 0 1 0 24.318359 46.271484 L 25.923828 42.539062 C 26.339049 42.85742 26.739175 43.193681 27.101562 43.570312 C 27.569803 44.057001 27.981709 44.599528 28.341797 45.183594 L 26.933594 46.587891 A 1.0005855 1.0005855 0 1 0 28.345703 48.005859 L 29.265625 47.089844 C 30.678926 50.868002 30.253741 55.683515 27.697266 59.453125 C 26.106125 61.799175 23.577338 62.831813 20.667969 62.78125 C 19.346005 62.758275 17.973104 62.476453 16.652344 61.986328 L 18.550781 59.148438 A 1.0001 1.0001 0 0 0 17.703125 57.582031 A 1.0001 1.0001 0 0 0 16.888672 58.037109 L 14.814453 61.136719 C 13.914895 60.635296 13.064586 60.038153 12.318359 59.332031 C 11.669549 58.718206 11.138053 58.069446 10.693359 57.396484 L 14.039062 55.175781 A 1.0001 1.0001 0 0 0 13.466797 53.335938 A 1.0001 1.0001 0 0 0 12.931641 53.509766 L 9.7617188 55.615234 C 9.3409288 54.552718 9.1186077 53.437086 9.0664062 52.28125 L 11.564453 51.785156 A 1.0001 1.0001 0 0 0 11.34375 49.802734 A 1.0001 1.0001 0 0 0 11.175781 49.822266 L 9.1542969 50.222656 C 9.4430408 47.969902 10.342731 45.646276 11.787109 43.515625 L 11.787109 43.513672 C 13.348314 41.213583 15.973486 40.105164 18.914062 40.123047 z M 74.03125 65.722656 C 76.405711 65.848365 78.432776 67.110974 79.998047 69.119141 C 80.810853 70.161932 81.455445 71.406917 81.904297 72.742188 L 78.503906 73.048828 A 1.0001 1.0001 0 1 0 78.681641 75.039062 L 82.398438 74.705078 C 82.573897 75.720151 82.642873 76.756813 82.5625 77.78125 C 82.49275 78.671976 82.322227 79.49275 82.078125 80.261719 L 78.248047 79.054688 A 1.0001 1.0001 0 0 0 77.953125 79.003906 A 1.0001 1.0001 0 0 0 77.648438 80.962891 L 81.279297 82.105469 C 80.716832 83.101547 79.986611 83.9746 79.119141 84.742188 L 77.164062 83.111328 A 1.0001 1.0001 0 0 0 76.523438 82.869141 A 1.0001 1.0001 0 0 0 75.882812 84.646484 L 77.464844 85.966797 C 75.53071 87.157652 73.156647 87.918115 70.591797 88.132812 C 67.820511 88.364606 65.308879 87.019678 63.474609 84.720703 C 62.358414 83.321723 61.553764 81.58767 61.175781 79.761719 L 65.400391 78.580078 A 1.0001 1.0001 0 0 0 65.126953 76.613281 A 1.0001 1.0001 0 0 0 64.861328 76.654297 L 60.949219 77.75 C 60.936047 77.227513 60.946499 76.705536 61.011719 76.1875 C 61.096194 75.517242 61.260132 74.854405 61.488281 74.207031 L 63.464844 74.419922 A 1.0001 1.0001 0 1 0 63.679688 72.431641 L 62.388672 72.292969 C 64.439135 68.817293 68.452229 66.119961 72.992188 65.740234 C 73.345217 65.710683 73.692041 65.704698 74.03125 65.722656 z M 69.548828 71.121094 C 69.164969 71.054672 68.759406 71.216453 68.535156 71.564453 C 68.237156 72.028453 68.371938 72.648266 68.835938 72.947266 C 69.299937 73.246266 69.91975 73.110484 70.21875 72.646484 C 70.51775 72.182484 70.381969 71.564625 69.917969 71.265625 C 69.801969 71.190875 69.676781 71.143234 69.548828 71.121094 z M 71.136719 77.972656 C 70.752859 77.906234 70.347297 78.069969 70.123047 78.417969 C 69.824047 78.881969 69.959828 79.501781 70.423828 79.800781 C 70.887828 80.098781 71.507641 79.964 71.806641 79.5 C 72.105641 79.036 71.969859 78.416188 71.505859 78.117188 C 71.389859 78.042437 71.264672 77.994797 71.136719 77.972656 z"/></svg>