<svg xmlns="http://www.w3.org/2000/svg"  viewBox="0 0 100 100" width="24px" height="24px"><path d="M 48.134766 12.957031 C 28.026829 13.05603 14.031219 30.333409 13.001953 49.894531 C 11.937592 70.117399 29.627796 85.984147 49.898438 86.998047 C 68.310571 87.918653 81.953002 74.402738 85.890625 57.767578 A 1.0001 1.0001 0 0 0 86.087891 56.878906 C 86.563308 54.662877 86.875458 52.397551 86.996094 50.105469 C 88.07447 29.611015 70.350232 14.014852 50.099609 13.001953 C 49.438476 12.968896 48.783409 12.953838 48.134766 12.957031 z M 48.148438 16.957031 C 48.725874 16.954469 49.309571 16.968604 49.898438 16.998047 C 50.987572 17.052523 52.067035 17.156571 53.134766 17.300781 L 52.052734 19.568359 A 1.0002693 1.0002693 0 1 0 53.857422 20.431641 L 55.191406 17.636719 C 56.804732 17.944324 58.385612 18.349031 59.921875 18.851562 L 58.009766 21.400391 A 1.0001 1.0001 0 1 0 59.609375 22.599609 L 61.886719 19.5625 C 63.507065 20.193533 65.069388 20.931007 66.5625 21.767578 L 64.873047 25.060547 A 1.0001 1.0001 0 1 0 66.652344 25.972656 L 68.283203 22.792969 C 69.391385 23.49709 70.454994 24.256652 71.466797 25.070312 C 69.072293 28.783695 62.99654 36.815671 52.976562 41.132812 C 47.336199 30.275477 40.312903 21.221716 38.277344 18.673828 C 40.569851 17.849995 43.013294 17.313852 45.582031 17.087891 L 44.142578 19.486328 A 1.0003534 1.0003534 0 1 0 45.859375 20.513672 L 47.990234 16.962891 C 48.043415 16.962386 48.095157 16.957268 48.148438 16.957031 z M 36.345703 19.457031 C 37.715735 21.156781 45.24064 30.663583 51.105469 41.878906 C 38.98898 46.343403 23.093468 45.703144 17.537109 45.308594 C 19.521714 33.763442 26.370894 23.888478 36.345703 19.457031 z M 73 26.384766 C 74.231219 27.501239 75.370896 28.702073 76.408203 29.978516 L 74.292969 32.376953 A 1.0001 1.0001 0 1 0 75.791016 33.701172 L 77.646484 31.597656 C 78.584735 32.919915 79.420487 34.309902 80.132812 35.765625 L 77.863281 38.337891 A 1.0004441 1.0004441 0 1 0 79.363281 39.662109 L 81.017578 37.787109 C 82.498049 41.505974 83.22903 45.578957 83.001953 49.894531 C 82.9162 51.523842 82.727882 53.134664 82.449219 54.71875 C 81.286493 54.243638 79.833916 53.727784 78.089844 53.267578 C 75.654424 52.624947 72.656714 52.08424 69.142578 51.900391 C 65.868427 51.729096 62.128594 51.889776 57.992188 52.544922 C 57.36004 50.881674 56.698312 49.192691 55.970703 47.458984 C 55.3325 45.93824 54.62098 44.423236 53.878906 42.919922 C 64.116756 38.470973 70.380955 30.391633 73 26.384766 z M 41.242188 32.382812 C 41.103141 32.395641 40.962781 32.435859 40.832031 32.505859 C 40.310031 32.785859 40.114531 33.437937 40.394531 33.960938 C 40.674531 34.482937 41.326609 34.678438 41.849609 34.398438 C 42.371609 34.118437 42.567109 33.466359 42.287109 32.943359 C 42.077109 32.551109 41.659328 32.344328 41.242188 32.382812 z M 33.480469 36.541016 C 33.341422 36.553766 33.203016 36.592109 33.072266 36.662109 C 32.549266 36.942109 32.351812 37.594188 32.632812 38.117188 C 32.912813 38.639188 33.564891 38.836641 34.087891 38.556641 C 34.609891 38.277641 34.807344 37.623562 34.527344 37.101562 C 34.317344 36.710063 33.897609 36.502766 33.480469 36.541016 z M 40.453125 38.173828 C 40.314078 38.186578 40.175672 38.226875 40.044922 38.296875 C 39.521922 38.576875 39.324469 39.228953 39.605469 39.751953 C 39.885469 40.273953 40.537547 40.471406 41.060547 40.191406 C 41.582547 39.911406 41.778047 39.259328 41.498047 38.736328 C 41.288047 38.344828 40.870266 38.135578 40.453125 38.173828 z M 52.017578 43.671875 C 52.768306 45.184188 53.485378 46.708298 54.125 48.232422 C 54.792016 49.821751 55.402828 51.371454 55.988281 52.900391 C 48.172319 54.581584 40.532211 59.51944 34.710938 64.111328 C 30.44541 67.476025 27.254914 70.585214 25.662109 72.203125 C 24.552081 71.070284 23.530173 69.865493 22.605469 68.595703 L 25.78125 64.625 A 1.0001 1.0001 0 0 0 24.96875 62.990234 A 1.0001 1.0001 0 0 0 24.220703 63.375 L 21.425781 66.869141 C 20.756307 65.806214 20.159169 64.7016 19.628906 63.564453 L 22.78125 59.625 A 1.0001 1.0001 0 0 0 21.96875 57.990234 A 1.0001 1.0001 0 0 0 21.220703 58.375 L 18.748047 61.466797 C 18.248597 60.130897 17.851375 58.753472 17.556641 57.339844 L 20.447266 55.894531 A 1.0001 1.0001 0 0 0 20.005859 53.994141 A 1.0001 1.0001 0 0 0 19.554688 54.105469 L 17.201172 55.28125 C 16.979703 53.597158 16.903254 51.869426 16.996094 50.105469 C 17.045674 49.163195 17.135651 48.230777 17.248047 47.304688 C 22.812611 47.735648 39.199935 48.486104 52.017578 43.671875 z M 66.419922 53.833984 C 70.947419 53.820984 74.689822 54.440477 77.580078 55.203125 C 79.444864 55.695184 80.923276 56.236168 82.046875 56.710938 C 79.806716 66.480433 73.947335 74.965387 65.636719 79.509766 C 64.966146 75.670049 63.090616 66.414233 58.716797 54.460938 C 61.482057 54.043788 64.068148 53.840737 66.419922 53.833984 z M 56.707031 54.794922 C 61.499824 67.794342 63.276045 77.433402 63.765625 80.441406 C 59.691265 82.299413 55.099182 83.251932 50.099609 83.001953 C 48.025831 82.898227 45.988862 82.615861 44.001953 82.185547 L 44.001953 79 A 1.0001 1.0001 0 0 0 42.986328 77.986328 A 1.0001 1.0001 0 0 0 42.001953 79 L 42.001953 81.699219 C 40.471901 81.279475 38.980618 80.763822 37.535156 80.164062 L 38.894531 77.447266 A 1.0001 1.0001 0 0 0 37.955078 75.988281 A 1.0001 1.0001 0 0 0 37.107422 76.552734 L 35.707031 79.351562 C 34.229434 78.643421 32.808954 77.844698 31.457031 76.958984 L 35.708984 72.707031 A 1.0001 1.0001 0 0 0 34.980469 70.990234 A 1.0001 1.0001 0 0 0 34.292969 71.292969 L 29.791016 75.794922 C 28.85388 75.101918 27.957018 74.36548 27.101562 73.589844 C 28.654291 72.013006 31.771838 68.976806 35.949219 65.681641 C 41.724308 61.126183 49.332314 56.301675 56.707031 54.794922 z"/></svg>