<svg xmlns="http://www.w3.org/2000/svg"  viewBox="0 0 100 100" width="24px" height="24px"><path d="M 44.933594 9.1816406 C 43.098716 9.2275892 41.022836 9.537453 38.75 10.273438 C 34.145927 11.764575 28.524291 15.791702 24.318359 21.904297 C 20.112428 28.016892 17.450376 36.314386 19.433594 45.927734 C 20.620639 51.682761 22.320135 56.081838 22.869141 60.128906 C 23.418146 64.175974 23.013788 67.900603 19.873047 73.132812 A 2.0002 2.0002 0 0 0 19.710938 73.460938 C 16.971702 74.960182 14.580078 76.298828 14.580078 76.298828 A 2.0002 2.0002 0 0 0 13.646484 78.615234 L 17.255859 90.642578 A 2.0002 2.0002 0 0 0 19.1875 92.066406 L 80.669922 91.554688 A 2.0002 2.0002 0 0 0 82.578125 90.097656 L 85.861328 78.5 A 2.0002 2.0002 0 0 0 84.716797 76.113281 C 84.716797 76.113281 83.291917 75.498952 81.322266 74.591797 C 78.511587 69.65255 78.08392 65.26167 78.625 60.589844 C 79.185957 55.746395 80.876277 50.647881 82.056641 44.927734 C 84.031248 35.356124 81.646116 27.3048 77.681641 21.421875 C 73.717165 15.53895 68.295999 11.748928 63.740234 10.273438 C 62.541756 9.8853023 61.39342 9.6816065 60.304688 9.6210938 C 57.605652 9.4710789 55.285644 10.210672 53.490234 11.220703 C 52.863772 10.847153 51.5337 10.139898 49.667969 9.6777344 C 48.36179 9.3541782 46.768472 9.135692 44.933594 9.1816406 z M 45.039062 13.171875 C 46.494844 13.135666 47.718711 13.315728 48.707031 13.560547 C 49.237156 13.691865 49.675182 13.834517 50.050781 13.974609 C 49.082142 15.028677 48.580078 15.865234 48.580078 15.865234 A 2.0008729 2.0008729 0 1 0 52.011719 17.923828 C 52.011719 17.923828 52.923145 16.41948 54.720703 15.15625 C 56.518261 13.89302 58.930727 12.921617 62.507812 14.080078 C 65.986048 15.206587 70.91821 18.541175 74.365234 23.65625 C 77.812259 28.771325 79.898064 35.590751 78.138672 44.119141 C 77.019036 49.544994 75.279387 54.716808 74.652344 60.130859 C 74.215626 63.901592 74.376883 67.817206 75.716797 71.851562 C 74.38928 71.162143 73.060912 70.446868 71.863281 69.732422 C 71.148829 66.755388 70.005899 60.194874 71.542969 52.835938 A 1.0001 1.0001 0 0 0 70.558594 51.617188 A 1.0001 1.0001 0 0 0 69.585938 52.425781 C 68.25688 58.788828 68.831838 64.554725 69.5 68.179688 C 68.270446 67.259276 67.428662 66.401642 67.363281 66.273438 C 65.832552 63.271065 64.995621 59.391334 64.808594 58.46875 C 65.799004 56.989478 66.511206 55.569183 66.853516 54.285156 C 67.576992 51.571339 68.063804 50.38016 68.326172 49.685547 C 69.623079 49.539502 71.384223 49.135906 73.107422 47.476562 C 74.85124 45.797365 75.292637 43.472902 75.576172 41.271484 C 75.717939 40.170776 75.759403 39.126332 75.646484 38.166016 C 75.590024 37.685857 75.506508 37.225112 75.287109 36.71875 C 75.067711 36.212388 74.64557 35.506596 73.708984 35.191406 C 72.811422 34.888934 71.966268 34.840983 71.203125 34.939453 C 68.913697 35.234864 67.365234 36.845703 67.365234 36.845703 A 2.0002 2.0002 0 0 0 66.664062 38.162109 C 56.197309 36.91599 51.450284 33.096944 49.224609 29.595703 C 46.835805 25.837841 47.314453 22.400391 47.314453 22.400391 A 1.0001 1.0001 0 0 0 46.34375 21.253906 A 1.0001 1.0001 0 0 0 45.410156 21.853516 C 41.894756 25.066387 35.369141 25.822266 35.369141 25.822266 A 1.0001 1.0001 0 1 0 35.564453 27.8125 C 35.564453 27.8125 41.145375 27.210458 45.386719 24.242188 C 45.406219 24.544736 45.378014 24.535125 45.427734 24.896484 C 42.52691 30.022544 34.533203 32.390625 34.533203 32.390625 A 1.0001 1.0001 0 1 0 35.066406 34.318359 C 35.066406 34.318359 42.090227 32.467372 46.029297 27.503906 C 46.060037 27.595716 46.134731 27.7 46.167969 27.792969 C 42.552554 33.25939 38.092785 35.773628 35.595703 36.841797 A 2.0002 2.0002 0 0 0 34.685547 35.939453 C 34.685547 35.939453 33.143468 35.005893 31.101562 35.136719 C 30.08061 35.202129 28.756741 35.699616 27.957031 36.839844 C 27.157322 37.980071 26.94023 39.437509 27.101562 41.205078 A 2.0002 2.0002 0 0 0 27.101562 41.207031 C 27.370297 44.146527 28.410874 46.366728 29.972656 47.751953 C 30.898586 48.573208 31.988827 48.962176 33.095703 49.130859 C 33.39699 51.505904 33.864958 53.89464 34.734375 56.261719 C 35.053357 57.129199 35.500996 58.076392 36.056641 59.052734 C 36.051602 59.120415 35.685298 63.903279 32.398438 66.654297 C 32.506058 64.969791 32.488486 62.156749 31.677734 58.724609 A 1.0001 1.0001 0 0 0 30.654297 57.941406 A 1.0001 1.0001 0 0 0 29.730469 59.183594 C 30.971596 64.437634 30.251089 67.955625 30.25 67.960938 C 28.833749 68.644183 27.270113 69.433611 25.664062 70.271484 C 27.067734 66.43106 27.284806 62.929485 26.832031 59.591797 C 26.193037 54.881365 24.463518 50.510114 23.351562 45.119141 C 21.60078 36.632489 23.907712 29.55728 27.613281 24.171875 C 31.31885 18.78647 36.552495 15.190941 39.982422 14.080078 C 41.895586 13.460562 43.583281 13.208084 45.039062 13.171875 z M 57.876953 22.707031 A 1.0001 1.0001 0 0 0 56.871094 23.882812 C 56.871094 23.882812 57.160625 25.52317 58.521484 27.351562 C 59.882343 29.179955 62.34442 31.282294 66.582031 32.515625 A 1.0001 1.0001 0 1 0 67.140625 30.595703 C 63.283237 29.473034 61.243844 27.658811 60.126953 26.158203 C 59.010062 24.657595 58.84375 23.556641 58.84375 23.556641 A 1.0001 1.0001 0 0 0 57.876953 22.707031 z M 51.296875 23.632812 A 1.0001 1.0001 0 0 0 50.347656 25.001953 C 50.347656 25.001953 53.88724 34.0467 65.107422 35.873047 A 1.0001 1.0001 0 1 0 65.429688 33.900391 C 55.159869 32.228738 52.214844 24.289062 52.214844 24.289062 A 1.0001 1.0001 0 0 0 51.296875 23.632812 z M 47.103516 29.757812 C 47.269085 30.066909 47.338715 30.355872 47.537109 30.667969 C 50.240249 34.920318 56.111829 39.256055 68.166016 40.320312 A 2.0002 2.0002 0 0 0 68.757812 40.376953 C 68.807363 40.38081 68.852589 40.386877 68.902344 40.390625 A 1.0001 1.0001 0 0 0 69.759766 40.041016 A 2.0002 2.0002 0 0 0 69.970703 39.880859 C 69.970703 39.880859 70.887485 39.415122 71.658203 39.179688 C 71.672393 39.643073 71.690735 40.130025 71.609375 40.761719 C 71.39041 42.461801 70.531213 44.401949 70.332031 44.59375 C 69.136811 45.74468 66.871094 45.835937 66.871094 45.835938 A 2.0002 2.0002 0 0 0 64.964844 47.097656 C 64.964844 47.097656 63.94574 49.662404 62.988281 53.253906 C 62.74733 54.157731 60.753131 57.585228 58.173828 60.269531 C 55.594526 62.953835 52.369322 65.02636 50.197266 65.105469 C 47.730551 65.195019 45.151296 63.728597 42.974609 61.564453 C 40.798724 59.401107 39.11692 56.585805 38.490234 54.882812 C 37.550697 52.324822 37.047425 49.695625 36.832031 47.029297 A 2.0002 2.0002 0 0 0 34.332031 45.255859 C 33.855868 45.380887 33.258921 45.320289 32.626953 44.759766 C 31.994985 44.199241 31.28525 43.043301 31.083984 40.841797 C 30.972818 39.623866 31.205162 39.175585 31.232422 39.136719 C 31.259682 39.097849 31.139502 39.142806 31.357422 39.128906 C 31.793266 39.100986 32.867187 39.501953 32.867188 39.501953 A 2.0002 2.0002 0 0 0 35.277344 39.09375 C 37.550952 38.209703 42.816036 35.661422 47.103516 29.757812 z M 50.007812 40.851562 A 1.0001 1.0001 0 0 0 49.046875 41.982422 C 49.379759 44.813332 48.834295 46.300257 46.253906 49.410156 A 1.0001 1.0001 0 0 0 46.449219 50.867188 C 47.790991 51.806322 49.286707 52.56259 51.009766 52.861328 A 1.0001 1.0001 0 1 0 51.351562 50.890625 C 50.297633 50.707898 49.340809 50.257759 48.40625 49.699219 C 50.476799 46.931712 51.372325 44.633963 51.033203 41.75 A 1.0001 1.0001 0 0 0 50.007812 40.851562 z M 61.646484 62.40625 C 62.130491 64.117477 62.826557 66.18283 63.798828 68.089844 C 64.199038 68.874609 64.741834 69.516166 65.384766 70.101562 L 63.435547 72.328125 A 1.0001 1.0001 0 1 0 64.941406 73.644531 L 66.962891 71.332031 C 67.342727 71.59532 67.73613 71.857788 68.152344 72.130859 L 61.910156 79.958984 A 1.0006416 1.0006416 0 1 0 63.474609 81.207031 L 69.863281 73.195312 C 70.300495 73.456073 70.744539 73.716308 71.199219 73.972656 L 70.173828 76.638672 A 1.0001 1.0001 0 1 0 72.041016 77.355469 L 72.976562 74.923828 C 73.512834 75.209089 74.043848 75.506742 74.578125 75.779297 C 74.955352 75.971735 75.256154 76.115942 75.603516 76.289062 L 74.763672 78.101562 A 1.0001 1.0001 0 1 0 76.576172 78.943359 L 77.400391 77.169922 C 77.878841 77.398224 78.331057 77.612573 78.736328 77.798828 A 2.0002 2.0002 0 0 0 79.484375 78.134766 C 80.312164 78.505354 81.085568 78.84415 81.548828 79.044922 L 79.138672 87.566406 L 44.501953 87.855469 L 44.748047 87.306641 A 1.0001 1.0001 0 0 0 43.847656 85.884766 A 1.0001 1.0001 0 0 0 42.923828 86.486328 L 42.298828 87.873047 L 39.660156 87.896484 L 40.863281 85.193359 A 1.0001 1.0001 0 0 0 39.958984 83.773438 A 1.0001 1.0001 0 0 0 39.037109 84.378906 L 37.462891 87.914062 L 34.439453 87.939453 L 35.064453 86.509766 A 1.0001 1.0001 0 0 0 34.148438 85.095703 A 1.0001 1.0001 0 0 0 33.230469 85.708984 L 32.25 87.957031 L 29.867188 87.978516 L 31.175781 84.589844 A 1.0001 1.0001 0 0 0 30.201172 83.216797 A 1.0001 1.0001 0 0 0 29.310547 83.869141 L 27.716797 87.996094 L 25.121094 88.017578 L 26.542969 85.402344 A 1.0001 1.0001 0 0 0 25.654297 83.912109 A 1.0001 1.0001 0 0 0 24.787109 84.447266 L 22.833984 88.037109 L 20.65625 88.054688 L 20.259766 86.736328 L 22.404297 84.195312 A 1.0001 1.0001 0 0 0 21.632812 82.539062 A 1.0001 1.0001 0 0 0 20.875 82.90625 L 19.574219 84.449219 L 17.949219 79.037109 C 19.460191 78.189063 27.090959 73.884318 32.466797 71.328125 C 32.775103 71.181526 33.054071 71.012122 33.337891 70.847656 L 37.712891 74.357422 A 1.0001 1.0001 0 1 0 38.964844 72.798828 L 35.050781 69.658203 C 35.491451 69.287775 35.887364 68.894458 36.253906 68.488281 L 38.513672 71.220703 A 1.0001 1.0001 0 1 0 40.054688 69.947266 L 37.509766 66.869141 C 38.277119 65.69276 38.810969 64.486077 39.185547 63.382812 C 39.49615 63.728676 39.818733 64.068713 40.154297 64.402344 C 42.79311 67.02595 46.280512 69.250961 50.341797 69.103516 A 2.0002 2.0002 0 0 0 50.34375 69.103516 C 54.486693 68.952625 58.123146 66.095962 61.058594 63.041016 C 61.261332 62.830024 61.451264 62.617695 61.646484 62.40625 z M 56.888672 76.365234 C 56.337672 76.338234 55.867844 76.763453 55.839844 77.314453 C 55.812844 77.865453 56.236109 78.335281 56.787109 78.363281 C 57.338109 78.390281 57.809891 77.965063 57.837891 77.414062 C 57.865891 76.863062 57.440672 76.393234 56.888672 76.365234 z M 49.519531 77.523438 C 48.968531 77.496438 48.498703 77.921656 48.470703 78.472656 C 48.443703 79.023656 48.868922 79.493484 49.419922 79.521484 C 49.970922 79.548484 50.44075 79.123266 50.46875 78.572266 C 50.49575 78.020266 50.070531 77.550438 49.519531 77.523438 z M 55.554688 82.191406 C 55.003688 82.164406 54.533859 82.589625 54.505859 83.140625 C 54.478859 83.691625 54.904078 84.161453 55.455078 84.189453 C 56.006078 84.216453 56.475906 83.791234 56.503906 83.240234 C 56.531906 82.688234 56.106687 82.218406 55.554688 82.191406 z"/></svg>