<svg xmlns="http://www.w3.org/2000/svg"  viewBox="0 0 100 100" width="24px" height="24px"><path d="M 59.900391 11.001953 L 19.900391 13.001953 A 2.0002 2.0002 0 0 0 18.013672 15.232422 C 20.925202 40.221562 22.10747 65.120111 21.001953 89.910156 A 2.0002 2.0002 0 0 0 22.96875 92 C 42.935382 92.314839 61.295596 90.86137 77.470703 86.943359 A 2.0002 2.0002 0 0 0 78.998047 84.927734 C 78.318363 66.13343 78.953536 47.815466 81.970703 30.339844 A 2.0002 2.0002 0 0 0 81.503906 28.681641 C 75.389074 21.712343 68.59328 15.852304 61.033203 11.287109 A 2.0002 2.0002 0 0 0 59.900391 11.001953 z M 59.447266 15.03125 C 65.867016 18.976183 71.705232 23.965191 77.074219 29.833984 L 69.863281 31.998047 A 1.0001 1.0001 0 0 0 69.578125 32.082031 L 60.863281 34.697266 L 58.693359 15.068359 L 59.447266 15.03125 z M 56.691406 15.167969 L 59.005859 36.109375 A 1.0001 1.0001 0 0 0 60.287109 36.957031 L 63.044922 36.128906 L 62.167969 37.445312 A 1.0001 1.0001 0 1 0 63.832031 38.554688 L 65.832031 35.554688 A 1.0001 1.0001 0 0 0 65.972656 35.251953 L 68.238281 34.572266 L 67.365234 36.609375 A 1.0005707 1.0005707 0 1 0 69.205078 37.396484 L 70.736328 33.822266 L 77.724609 31.726562 C 75.027806 48.401824 74.408415 65.709018 74.972656 83.365234 C 72.58253 83.916245 70.134687 84.408396 67.642578 84.855469 L 69.183594 82.556641 A 1.0001 1.0001 0 0 0 68.335938 80.988281 A 1.0001 1.0001 0 0 0 67.521484 81.443359 L 64.921875 85.320312 C 63.948861 85.478319 62.958171 85.618483 61.970703 85.761719 L 62.927734 83.371094 A 1.0001 1.0001 0 0 0 61.970703 81.988281 A 1.0001 1.0001 0 0 0 61.072266 82.628906 L 59.695312 86.072266 C 58.244381 86.26429 56.779283 86.441729 55.298828 86.603516 L 55.980469 83.195312 A 1.0001 1.0001 0 0 0 54.984375 81.986328 A 1.0001 1.0001 0 0 0 54.019531 82.804688 L 53.216797 86.822266 C 51.019501 87.039804 48.79361 87.22809 46.535156 87.382812 L 48.857422 83.513672 A 1.0001 1.0001 0 0 0 48.033203 81.988281 A 1.0001 1.0001 0 0 0 47.142578 82.486328 L 44.142578 87.486328 A 1.0001 1.0001 0 0 0 44.109375 87.542969 C 42.609712 87.630347 41.09524 87.702327 39.570312 87.763672 L 40.927734 84.371094 A 1.0001 1.0001 0 0 0 39.970703 82.988281 A 1.0001 1.0001 0 0 0 39.072266 83.628906 L 37.386719 87.84375 C 35.866689 87.892403 34.336761 87.929026 32.792969 87.953125 L 34.857422 84.513672 A 1.0001 1.0001 0 0 0 34.033203 82.988281 A 1.0001 1.0001 0 0 0 33.142578 83.486328 L 30.447266 87.978516 C 28.657887 87.99227 26.864399 88.001823 25.044922 87.984375 C 25.052365 87.795633 25.053364 87.60672 25.060547 87.417969 L 30.640625 82.767578 A 1.0001 1.0001 0 0 0 29.972656 80.992188 A 1.0001 1.0001 0 0 0 29.359375 81.232422 L 25.138672 84.75 C 25.185895 83.255877 25.236338 81.762258 25.267578 80.267578 L 29.625 76.78125 A 1.0001 1.0001 0 0 0 28.992188 74.992188 A 1.0001 1.0001 0 0 0 28.375 75.21875 L 25.3125 77.669922 C 25.611193 57.455392 24.483279 37.190952 22.197266 16.892578 L 56.691406 15.167969 z M 29.824219 19.580078 C 29.572219 19.625078 29.337187 19.765687 29.179688 19.992188 C 28.863687 20.445188 28.976688 21.069766 29.429688 21.384766 C 29.882688 21.699766 30.505312 21.589719 30.820312 21.136719 C 31.135313 20.684719 31.025266 20.059141 30.572266 19.744141 C 30.345766 19.586641 30.076219 19.535078 29.824219 19.580078 z M 27.824219 28.015625 C 27.572219 28.060625 27.337187 28.201234 27.179688 28.427734 C 26.864688 28.880734 26.976688 29.505312 27.429688 29.820312 C 27.882687 30.135313 28.504313 30.023312 28.820312 29.570312 C 29.135313 29.117312 29.025266 28.494688 28.572266 28.179688 C 28.345766 28.022187 28.076219 27.970625 27.824219 28.015625 z M 34.824219 28.015625 C 34.572219 28.060625 34.337187 28.203187 34.179688 28.429688 C 33.864687 28.882688 33.976687 29.505312 34.429688 29.820312 C 34.882688 30.135313 35.505313 30.025266 35.820312 29.572266 C 36.135313 29.119266 36.025266 28.494688 35.572266 28.179688 C 35.345766 28.022187 35.076219 27.970625 34.824219 28.015625 z"/></svg>