<svg xmlns="http://www.w3.org/2000/svg"  viewBox="0 0 100 100" width="24px" height="24px"><path d="M 44.886719 20.53125 C 44.489577 20.527735 44.087447 20.533187 43.679688 20.548828 C 31.614455 21.011882 23.033467 25.147236 17.152344 34.037109 C 12.533413 41.017249 9.7357354 50.400526 11.578125 62.001953 C 12.555059 68.153655 16.162062 73.380638 20.669922 77.191406 C 25.177782 81.002174 30.602112 83.460045 35.654297 83.974609 C 40.584477 84.476727 46.199728 83.66399 51.150391 81.568359 C 56.101054 79.472728 60.472932 76.031764 62.333984 71.070312 C 65.441294 62.786345 65.046875 50.068359 65.046875 50.068359 A 2.0002 2.0002 0 0 0 63.121094 48.109375 L 40.34375 47.259766 A 2.0002 2.0002 0 0 0 38.283203 49.029297 L 37.189453 58.486328 A 2.0002 2.0002 0 0 0 39.097656 60.714844 L 51.107422 61.189453 C 50.951076 61.678683 50.855407 62.137732 50.480469 62.726562 C 49.336552 64.523055 47.014944 66.597175 41.117188 67.041016 C 35.356566 67.473617 32.363998 65.32253 30.335938 62.5 C 28.307876 59.67747 27.49643 56.033657 27.205078 53.976562 C 27.011508 52.609859 27.770392 49.201006 29.375 46.152344 C 30.979319 43.10423 33.375207 40.335983 35.515625 39.316406 C 40.541514 36.925946 49.449169 35.696336 55.730469 41.25 A 2.0002 2.0002 0 0 0 58.730469 40.841797 L 64.486328 31.998047 A 2.0002 2.0002 0 0 0 64.375 29.664062 C 64.375 29.664062 57.198099 20.640209 44.886719 20.53125 z M 45.441406 24.541016 C 48.817009 24.653999 51.672075 25.530781 53.992188 26.644531 L 52.333984 28.271484 A 1.0001 1.0001 0 1 0 53.734375 29.699219 L 55.833984 27.634766 C 56.380002 27.963111 56.852956 28.293449 57.316406 28.625 L 54.974609 30.882812 A 1.0001 1.0001 0 1 0 56.361328 32.322266 L 58.912109 29.865234 C 59.457483 30.334054 59.93984 30.775901 60.28125 31.125 L 56.523438 36.904297 C 54.124262 35.238116 51.543803 34.237473 48.957031 33.728516 L 48.728516 30.402344 A 1.0001 1.0001 0 0 0 47.746094 29.457031 A 1.0001 1.0001 0 0 0 46.732422 30.539062 L 46.933594 33.435547 C 46.536839 33.395313 46.140404 33.361241 45.746094 33.341797 L 43.900391 28.310547 A 1.0001 1.0001 0 0 0 42.990234 27.642578 A 1.0001 1.0001 0 0 0 42.023438 29 L 43.613281 33.335938 C 41.991236 33.400163 40.416231 33.617274 38.935547 33.953125 L 39.123047 29.082031 A 1.0001 1.0001 0 0 0 38.146484 28.029297 A 1.0001 1.0001 0 0 0 37.123047 29.003906 L 36.914062 34.5 C 36.447305 34.646196 35.995123 34.801257 35.556641 34.966797 L 35.527344 32.910156 A 1.0001 1.0001 0 0 0 34.498047 31.910156 A 1.0001 1.0001 0 0 0 33.527344 32.9375 L 33.570312 35.830078 C 30.244997 37.505695 27.695228 40.780996 25.871094 44.228516 L 21.818359 42.064453 A 1.0001 1.0001 0 0 0 21.339844 41.939453 A 1.0001 1.0001 0 0 0 20.876953 43.830078 L 24.992188 46.027344 C 24.675396 46.726224 24.386848 47.423006 24.142578 48.115234 L 19.759766 46.746094 A 1.0001 1.0001 0 0 0 19.464844 46.695312 A 1.0001 1.0001 0 0 0 19.162109 48.654297 L 23.576172 50.033203 C 23.404621 50.739154 23.271416 51.435412 23.207031 52.113281 L 18.185547 52.505859 A 1.0001265 1.0001265 0 0 0 18.341797 54.5 L 23.212891 54.117188 C 23.226047 54.256949 23.22466 54.401517 23.244141 54.539062 C 23.285554 54.83146 23.3664 55.22455 23.425781 55.568359 L 21.253906 56.361328 A 1.0001 1.0001 0 1 0 21.939453 58.240234 L 23.832031 57.548828 C 24.384698 59.759003 25.342261 62.404525 27.087891 64.833984 C 28.974003 67.45896 31.903825 69.736902 35.931641 70.654297 L 34.457031 74.580078 A 1.0003362 1.0003362 0 1 0 36.330078 75.283203 L 37.943359 70.988281 C 38.395505 71.035185 38.861956 71.06107 39.337891 71.074219 L 39.037109 74.5625 A 1.0001 1.0001 0 1 0 41.029297 74.734375 L 41.347656 71.035156 C 41.370887 71.033487 41.392735 71.032998 41.416016 71.03125 C 41.878227 70.996503 42.324883 70.949627 42.759766 70.894531 L 44.158203 74.763672 A 1.0001 1.0001 0 1 0 46.039062 74.083984 L 44.761719 70.550781 C 47.897541 69.870506 50.186029 68.630529 51.818359 67.197266 L 53.359375 69.275391 A 1.0001 1.0001 0 1 0 54.964844 68.085938 L 53.224609 65.736328 C 53.451022 65.450585 53.66955 65.163913 53.853516 64.875 C 54.031305 64.595787 54.17612 64.317754 54.318359 64.041016 L 57.396484 64.96875 A 1.000668 1.000668 0 1 0 57.974609 63.052734 L 55.068359 62.177734 C 55.575232 60.4741 55.529297 59.179688 55.529297 59.179688 A 2.0002 2.0002 0 0 0 53.609375 57.283203 L 51.814453 57.212891 L 53.298828 55.457031 A 1.0001 1.0001 0 0 0 52.53125 53.800781 A 1.0001 1.0001 0 0 0 51.771484 54.166016 L 49.28125 57.113281 L 47.939453 57.060547 L 48.875 54.113281 A 1.0001 1.0001 0 0 0 47.917969 52.796875 A 1.0001 1.0001 0 0 0 46.96875 53.507812 L 45.865234 56.978516 L 41.412109 56.802734 L 42.044922 51.326172 L 60.976562 52.033203 C 60.958832 54.646184 60.814683 63.729473 58.587891 69.666016 C 57.245943 73.243565 53.867384 76.074897 49.591797 77.884766 C 45.31621 79.694635 40.230414 80.420976 36.058594 79.996094 C 33.630117 79.748751 30.906054 78.870128 28.263672 77.490234 L 30.011719 75.167969 A 1.0001 1.0001 0 0 0 29.251953 73.554688 A 1.0001 1.0001 0 0 0 28.414062 73.964844 L 26.511719 76.492188 C 25.818117 76.06264 25.138845 75.596617 24.476562 75.099609 L 27.369141 71.513672 A 1.0001 1.0001 0 0 0 26.564453 69.875 A 1.0001 1.0001 0 0 0 25.8125 70.257812 L 22.923828 73.837891 C 22.369202 73.353193 21.839467 72.843068 21.328125 72.314453 L 23.355469 70.615234 A 1.0001 1.0001 0 0 0 22.681641 68.839844 A 1.0001 1.0001 0 0 0 22.070312 69.082031 L 19.996094 70.822266 C 17.724946 68.063194 16.079572 64.852348 15.527344 61.375 C 13.833733 50.710427 16.359212 42.484001 20.488281 36.244141 C 25.733158 28.316014 32.553216 24.977868 43.833984 24.544922 C 44.382008 24.5239 44.917837 24.523491 45.441406 24.541016 z M 52.205078 31.365234 C 51.890734 31.324875 51.567937 31.471469 51.398438 31.761719 C 51.171437 32.148719 51.302453 32.646047 51.689453 32.873047 C 52.076453 33.100047 52.575734 32.969031 52.802734 32.582031 C 53.029734 32.194031 52.898719 31.69575 52.511719 31.46875 C 52.414719 31.41225 52.309859 31.378688 52.205078 31.365234 z M 27.949219 32.072266 C 27.634875 32.031531 27.312078 32.17775 27.142578 32.46875 C 26.915578 32.85575 27.046594 33.353078 27.433594 33.580078 C 27.820594 33.806078 28.319875 33.676063 28.546875 33.289062 C 28.773875 32.902063 28.642859 32.403734 28.255859 32.177734 C 28.158859 32.120984 28.054 32.085844 27.949219 32.072266 z M 84.025391 37.894531 A 2.0002 2.0002 0 0 0 83.650391 37.916016 L 77.363281 38.898438 A 2.0002 2.0002 0 0 0 75.671875 40.875 L 75.671875 45.972656 L 69.570312 46.541016 A 2.0002 2.0002 0 0 0 67.757812 48.626953 L 68.060547 55.123047 A 2.0002 2.0002 0 0 0 70.392578 57.001953 L 74.710938 56.271484 L 75 61.884766 A 2.0002 2.0002 0 0 0 77.044922 63.78125 L 83.457031 63.625 A 2.0002 2.0002 0 0 0 85.402344 61.455078 L 84.935547 56.013672 L 90.150391 55.617188 A 2.0002 2.0002 0 0 0 92 53.5625 L 91.763672 45.660156 A 2.0002 2.0002 0 0 0 89.449219 43.744141 L 85.683594 44.345703 L 85.955078 40.017578 A 2.0002 2.0002 0 0 0 84.025391 37.894531 z M 81.806641 42.253906 L 81.535156 46.589844 A 2.0002 2.0002 0 0 0 83.847656 48.689453 L 87.833984 48.052734 L 87.943359 51.773438 L 82.617188 52.175781 A 2.0002 2.0002 0 0 0 80.775391 54.341797 L 81.234375 59.677734 L 78.894531 59.734375 L 78.591797 53.822266 A 2.0002 2.0002 0 0 0 76.259766 51.951172 L 71.951172 52.681641 L 71.841797 50.347656 L 77.857422 49.787109 A 2.0002 2.0002 0 0 0 79.671875 47.796875 L 79.671875 42.587891 L 81.806641 42.253906 z M 16.916016 55.423828 C 16.601672 55.383047 16.278875 55.530062 16.109375 55.820312 C 15.882375 56.207312 16.013391 56.704641 16.400391 56.931641 C 16.787391 57.158641 17.284719 57.027625 17.511719 56.640625 C 17.738719 56.252625 17.607703 55.755297 17.220703 55.529297 C 17.123703 55.472547 17.020797 55.437422 16.916016 55.423828 z M 19.21875 61.527344 C 18.904781 61.486703 18.580406 61.633578 18.410156 61.923828 C 18.183156 62.310828 18.314172 62.808156 18.701172 63.035156 C 19.088172 63.262156 19.588453 63.131141 19.814453 62.744141 C 20.041453 62.356141 19.910438 61.858812 19.523438 61.632812 C 19.426687 61.576313 19.323406 61.540891 19.21875 61.527344 z M 38.263672 77.296875 C 37.949422 77.256141 37.625328 77.402359 37.455078 77.693359 C 37.228078 78.080359 37.359094 78.577687 37.746094 78.804688 C 38.134094 79.030688 38.632375 78.900672 38.859375 78.513672 C 39.086375 78.126672 38.955359 77.626391 38.568359 77.400391 C 38.471609 77.343641 38.368422 77.310453 38.263672 77.296875 z"/></svg>