<svg xmlns="http://www.w3.org/2000/svg" viewBox="0 0 100 100" width="24px" height="24px"><path d="M 51.017578 12.294922 C 49.920709 12.300292 48.814585 12.315057 47.703125 12.339844 C 38.811447 12.538137 29.56782 13.318774 21.808594 14.0625 A 2.0002 2.0002 0 0 0 20.007812 15.876953 C 17.280092 46.655206 18.249927 69.649129 22.082031 82.621094 A 2.0002 2.0002 0 0 0 23.558594 84.003906 C 37.420383 87.139117 53.019933 87.718775 71.394531 84.013672 A 2.0002 2.0002 0 0 0 72.996094 82.164062 C 73.208769 78.275578 73.200973 73.865277 72.998047 68.970703 A 2.0002 2.0002 0 1 0 69.001953 69.136719 C 69.175973 73.333106 69.135952 76.960418 69.003906 80.335938 C 67.364832 80.645875 65.757241 80.911329 64.166016 81.152344 L 62.894531 78.607422 A 1.0001 1.0001 0 0 0 62.015625 78.041016 A 1.0001 1.0001 0 0 0 61.105469 79.501953 L 62.080078 81.453125 C 61.284288 81.560303 60.491142 81.663606 59.707031 81.753906 L 58.970703 78.810547 A 1.0001 1.0001 0 0 0 57.9375 78.041016 A 1.0001 1.0001 0 0 0 57.029297 79.296875 L 57.695312 81.964844 C 53.964333 82.331236 50.364947 82.505145 46.882812 82.509766 L 47.384766 81.498047 A 1.0001 1.0001 0 0 0 46.441406 80.042969 A 1.0001 1.0001 0 0 0 45.59375 80.609375 L 44.660156 82.488281 C 43.914898 82.473538 43.174089 82.452177 42.439453 82.421875 L 42.970703 80.296875 A 1.0001 1.0001 0 0 0 42.033203 79.041016 A 1.0001 1.0001 0 0 0 41.029297 79.810547 L 40.400391 82.324219 C 39.381473 82.261799 38.376124 82.181333 37.376953 82.089844 L 37.949219 80.371094 A 1.0001 1.0001 0 0 0 37.011719 79.041016 A 1.0001 1.0001 0 0 0 36.050781 79.738281 L 35.335938 81.884766 C 34.25128 81.762946 33.181611 81.619534 32.119141 81.464844 L 33.857422 78.568359 A 1.0001 1.0001 0 0 0 33.033203 77.042969 A 1.0001 1.0001 0 0 0 32.142578 77.539062 L 29.986328 81.132812 C 29.381613 81.031272 28.777543 80.928179 28.179688 80.816406 L 29.800781 78.654297 A 1.0001 1.0001 0 0 0 29.037109 77.042969 A 1.0001 1.0001 0 0 0 28.199219 77.453125 L 26.001953 80.382812 C 25.897001 80.360762 25.790294 80.340718 25.685547 80.318359 C 24.509872 75.983203 23.632554 70.329992 23.105469 63.519531 L 25.554688 61.886719 A 1.0001 1.0001 0 0 0 24.980469 60.046875 A 1.0001 1.0001 0 0 0 24.445312 60.222656 L 22.949219 61.220703 C 22.884064 60.194238 22.82515 59.147189 22.775391 58.072266 L 24.554688 56.886719 A 1.0001 1.0001 0 0 0 23.980469 55.046875 A 1.0001 1.0001 0 0 0 23.445312 55.222656 L 22.675781 55.736328 C 22.618153 54.07559 22.582058 52.353723 22.560547 50.587891 L 24.316406 50.001953 A 1.0001 1.0001 0 0 0 23.947266 48.050781 A 1.0001 1.0001 0 0 0 23.683594 48.105469 L 22.544922 48.484375 C 22.536345 46.283118 22.555728 44.009544 22.603516 41.658203 L 24.445312 42.886719 A 1.0001 1.0001 0 1 0 25.554688 41.222656 L 22.660156 39.292969 C 22.676012 38.724776 22.689852 38.160329 22.708984 37.583984 L 24.400391 38.853516 A 1.0001 1.0001 0 1 0 25.599609 37.253906 L 22.802734 35.15625 C 23.021678 29.732123 23.374177 23.987441 23.888672 17.904297 C 26.558564 17.656616 29.405475 17.428343 32.300781 17.216797 L 31.105469 19.607422 A 1.0001161 1.0001161 0 1 0 32.894531 20.501953 L 34.621094 17.048828 C 35.127061 17.015075 35.623979 16.980923 36.132812 16.949219 L 35.150391 18.525391 A 1.0004786 1.0004786 0 1 0 36.849609 19.582031 L 38.570312 16.816406 C 40.53253 16.708885 42.484987 16.624416 44.443359 16.558594 L 44.050781 17.738281 A 1.0005647 1.0005647 0 1 0 45.949219 18.371094 L 46.576172 16.490234 C 51.977658 16.357264 57.219443 16.412489 61.828125 16.792969 L 61.072266 18.681641 A 1.0001 1.0001 0 1 0 62.927734 19.425781 L 63.900391 16.994141 C 64.220046 17.029022 64.54732 17.06116 64.859375 17.099609 L 64.105469 18.607422 A 1.0001161 1.0001161 0 1 0 65.894531 19.501953 L 66.949219 17.392578 C 67.507123 17.481999 68.033091 17.585885 68.558594 17.689453 L 68.029297 19.810547 A 1.0006963 1.0006963 0 0 0 69.748047 20.71875 C 69.910114 21.696866 70.056239 22.663773 70.166016 23.589844 L 67.486328 25.197266 A 1.0001 1.0001 0 1 0 68.513672 26.912109 L 70.355469 25.806641 C 70.371809 26.115891 70.386455 26.427713 70.392578 26.740234 L 67.552734 28.160156 A 1.0001167 1.0001167 0 1 0 68.447266 29.949219 L 70.332031 29.005859 C 70.273984 29.876655 70.186474 30.769828 70.027344 31.724609 A 2.0002 2.0002 0 1 0 73.972656 32.382812 C 75.031899 26.027355 73.960806 21.653518 72.972656 15.724609 A 2.0002 2.0002 0 0 0 71.484375 14.113281 C 65.928159 12.724227 58.695659 12.25733 51.017578 12.294922 z M 49.480469 31.056641 C 48.625469 31.094641 47.963953 31.818875 48.001953 32.671875 C 48.038953 33.523875 48.761234 34.187391 49.615234 34.150391 C 50.468234 34.112391 51.133703 33.388156 51.095703 32.535156 C 51.058703 31.682156 50.333469 31.018641 49.480469 31.056641 z M 55.673828 34.152344 C 54.820828 34.190344 54.157312 34.914578 54.195312 35.767578 C 54.233313 36.620578 54.955594 37.284094 55.808594 37.246094 C 56.662594 37.208094 57.325062 36.485812 57.289062 35.632812 C 57.251063 34.779812 56.527828 34.114344 55.673828 34.152344 z M 77.931641 37.03125 A 2.0002 2.0002 0 0 0 76.361328 40.201172 L 81.220703 47.142578 L 42.953125 48.054688 A 2.0002 2.0002 0 1 0 43.046875 52.052734 L 45.65625 51.990234 L 45.503906 52.886719 A 1.0001 1.0001 0 1 0 47.474609 53.222656 L 47.693359 51.941406 L 49.330078 51.902344 L 48.050781 55.738281 A 1.0005647 1.0005647 0 1 0 49.949219 56.371094 L 51.455078 51.853516 L 58.560547 51.683594 L 58.029297 53.810547 A 1.0006963 1.0006963 0 1 0 59.970703 54.296875 L 60.636719 51.634766 L 63.121094 51.574219 L 62.105469 53.607422 A 1.0001161 1.0001161 0 1 0 63.894531 54.501953 L 65.384766 51.521484 L 81.300781 51.142578 L 76.3125 58.980469 A 2.0002 2.0002 0 1 0 79.6875 61.126953 L 86.6875 50.126953 A 2.0002 2.0002 0 0 0 86.695312 50.113281 A 2.0002 2.0002 0 0 0 86.726562 50.060547 A 2.0002 2.0002 0 0 0 86.458984 47.650391 L 79.638672 37.90625 A 2.0002 2.0002 0 0 0 77.931641 37.03125 z M 52.578125 39.949219 C 51.724125 39.987219 51.060656 40.7095 51.097656 41.5625 C 51.135656 42.4155 51.858891 43.079969 52.712891 43.042969 C 53.565891 43.004969 54.229406 42.280734 54.191406 41.427734 C 54.153406 40.574734 53.431125 39.911219 52.578125 39.949219 z"/></svg>