<svg xmlns="http://www.w3.org/2000/svg"  viewBox="0 0 100 100" width="24px" height="24px"><path d="M 66.429688 11.693359 A 2.0002 2.0002 0 0 0 66.267578 11.703125 C 49.514032 13.322412 30.389382 17.579967 9.4492188 23.800781 A 2.0002 2.0002 0 0 0 8.1855469 24.917969 L 1.6542969 39.884766 A 2.0002 2.0002 0 0 0 1.5136719 41.007812 L 4.4042969 58.636719 A 2.0002 2.0002 0 0 0 4.9414062 59.707031 L 15.671875 70.775391 A 2.0002 2.0002 0 0 0 16.857422 71.367188 C 18.119833 71.526569 19.398957 71.66792 20.685547 71.802734 L 20.03125 84.824219 A 2.0002 2.0002 0 0 0 20.078125 85.367188 C 20.642136 87.84854 22.757966 89.397058 24.976562 90.101562 A 2.0002 2.0002 0 1 0 26.1875 86.289062 C 24.774438 85.840351 24.274083 85.392456 24.048828 84.599609 L 24.671875 72.177734 C 27.019004 72.375203 29.40365 72.535084 31.824219 72.658203 L 31.388672 86.986328 A 2.0002 2.0002 0 0 0 32.355469 88.759766 L 35.650391 90.744141 A 2.0002 2.0002 0 1 0 37.714844 87.318359 L 35.421875 85.9375 L 35.820312 72.828125 C 41.170346 73.010674 46.688445 73.022943 52.355469 72.886719 L 52.291016 87.095703 A 2.0002 2.0002 0 0 0 53.109375 88.71875 L 55.984375 90.820312 A 2.0002 2.0002 0 1 0 58.345703 87.591797 L 56.294922 86.091797 L 56.355469 72.755859 C 58.311204 72.685726 60.284128 72.597786 62.273438 72.494141 L 62.296875 86.689453 A 2.0002 2.0002 0 0 0 63.457031 88.501953 L 66.708984 90.005859 A 2.0002807 2.0002807 0 1 0 68.388672 86.375 L 66.294922 85.40625 L 66.273438 72.279297 C 68.993836 72.109771 71.739913 71.915787 74.517578 71.689453 A 2.0002 2.0002 0 0 0 75.945312 70.910156 C 82.81608 61.894222 90.106891 51.498895 97.898438 39.476562 A 2.0002 2.0002 0 0 0 97.736328 37.083984 C 90.376017 28.529304 79.952501 20.229703 67.564453 12.025391 A 2.0002 2.0002 0 0 0 66.429688 11.693359 z M 65.353516 15.841797 L 59.896484 29.630859 A 1.0001 1.0001 0 0 0 59.808594 29.642578 L 12.701172 38.816406 A 1.0001 1.0001 0 0 0 12.681641 38.814453 A 1.0001 1.0001 0 0 0 12.240234 38.90625 L 9.9980469 39.341797 A 1.0001 1.0001 0 0 0 9.609375 39.261719 A 1.0001 1.0001 0 0 0 8.8964844 39.556641 L 5.9082031 40.138672 L 11.472656 27.388672 C 31.363042 21.519493 49.513903 17.489397 65.353516 15.841797 z M 67.195312 16.621094 C 76.629287 22.987657 84.739808 29.382491 91.001953 35.765625 L 61.908203 29.984375 L 67.195312 16.621094 z M 54.814453 19.123047 C 54.564078 19.121672 54.313047 19.216656 54.123047 19.410156 C 53.742047 19.796156 53.743953 20.426406 54.126953 20.816406 C 54.509953 21.207406 55.128766 21.210219 55.509766 20.824219 C 55.890766 20.438219 55.889813 19.808969 55.507812 19.417969 C 55.316312 19.222969 55.064828 19.124422 54.814453 19.123047 z M 57.744141 25.425781 C 57.493766 25.424406 57.244687 25.521344 57.054688 25.714844 C 56.673687 26.100844 56.673641 26.730094 57.056641 27.121094 C 57.439641 27.511094 58.058453 27.514906 58.439453 27.128906 C 58.820453 26.742906 58.8195 26.110703 58.4375 25.720703 C 58.246 25.525703 57.994516 25.427156 57.744141 25.425781 z M 49.462891 26.767578 C 49.212516 26.766203 48.961484 26.861187 48.771484 27.054688 C 48.390484 27.440688 48.392391 28.072891 48.775391 28.462891 C 49.158391 28.853891 49.777203 28.856703 50.158203 28.470703 C 50.539203 28.083703 50.535297 27.4525 50.154297 27.0625 C 49.962797 26.8675 49.713266 26.768953 49.462891 26.767578 z M 59.390625 31.761719 L 62.533203 55.396484 L 39.386719 56.015625 A 1.0001 1.0001 0 0 0 38.664062 55.710938 A 1.0001 1.0001 0 0 0 37.917969 56.054688 L 21.470703 56.494141 L 21.419922 54.080078 A 1.0001 1.0001 0 0 0 20.384766 53.085938 A 1.0001 1.0001 0 0 0 19.421875 54.121094 L 19.472656 56.546875 L 18.474609 56.574219 L 18.132812 52.59375 A 1.0001 1.0001 0 0 0 17.134766 51.666016 A 1.0001 1.0001 0 0 0 16.140625 52.765625 L 16.470703 56.626953 L 8.1640625 56.849609 L 5.7636719 42.205078 L 8.8378906 41.607422 L 9.4296875 44.814453 A 1.0001 1.0001 0 1 0 11.396484 44.451172 L 10.800781 41.224609 L 11.832031 41.023438 L 12.136719 42.951172 A 1.0001 1.0001 0 1 0 14.111328 42.638672 L 13.794922 40.640625 L 15.650391 40.279297 C 15.757464 40.843997 16.146112 42.883948 16.447266 44.546875 A 1.0004658 1.0004658 0 1 0 18.416016 44.189453 C 18.111212 42.50637 17.720816 40.452258 17.615234 39.896484 L 19.320312 39.564453 L 19.902344 42.501953 A 1.0001 1.0001 0 1 0 21.863281 42.113281 L 21.28125 39.183594 L 22.9375 38.861328 L 23.876953 41.197266 A 1.0001 1.0001 0 1 0 25.732422 40.451172 L 24.935547 38.470703 L 59.390625 31.761719 z M 61.431641 31.929688 L 64.320312 32.503906 L 64.203125 35.796875 A 1.0006527 1.0006527 0 1 0 66.203125 35.869141 L 66.308594 32.898438 L 67.408203 33.117188 L 66.804688 40.033203 A 1.0001 1.0001 0 1 0 68.796875 40.207031 L 69.380859 33.509766 L 71.130859 33.857422 L 70.736328 36.271484 A 1.0001 1.0001 0 1 0 72.708984 36.59375 L 73.091797 34.246094 L 74.585938 34.542969 L 74.314453 36.814453 A 1.0001687 1.0001687 0 0 0 76.300781 37.050781 L 76.552734 34.935547 L 93.353516 38.273438 C 93.453825 38.38425 93.566851 38.494667 93.666016 38.605469 C 93.638878 38.647109 93.613063 38.684961 93.585938 38.726562 L 64.509766 55.095703 L 61.431641 31.929688 z M 91.160156 42.386719 C 85.142639 51.475842 79.421379 59.614931 73.994141 66.814453 L 65.576172 56.789062 L 67.107422 55.927734 L 69.794922 59.052734 A 1.0001 1.0001 0 1 0 71.310547 57.75 L 68.884766 54.925781 L 70.228516 54.169922 L 71.849609 56.257812 A 1.0001 1.0001 0 1 0 73.427734 55.03125 L 71.990234 53.177734 L 73.835938 52.138672 L 75.367188 53.779297 A 1.0004891 1.0004891 0 1 0 76.830078 52.414062 L 75.630859 51.128906 L 91.160156 42.386719 z M 63.455078 57.371094 L 72.238281 67.833984 C 70.640044 67.957074 69.056324 68.066203 67.478516 68.169922 L 64.941406 65.373047 A 1.0001 1.0001 0 0 0 64.140625 65.035156 A 1.0001 1.0001 0 0 0 63.460938 66.716797 L 64.927734 68.335938 C 64.134747 68.383025 63.355891 68.415102 62.568359 68.457031 L 59.777344 64.912109 A 1.0001 1.0001 0 0 0 59 64.519531 A 1.0001 1.0001 0 0 0 58.205078 66.148438 L 60.123047 68.583984 C 59.567774 68.60991 58.999703 68.646672 58.447266 68.669922 L 56.714844 65.433594 A 1.0001 1.0001 0 0 0 55.820312 64.892578 A 1.0001 1.0001 0 0 0 54.951172 66.376953 L 56.216797 68.742188 C 46.865973 69.075697 37.923436 69.024514 29.490234 68.498047 L 28.683594 66.183594 A 1.0001 1.0001 0 0 0 27.683594 65.5 A 1.0001 1.0001 0 0 0 26.794922 66.839844 L 27.322266 68.357422 C 26.842943 68.322584 26.370517 68.280135 25.894531 68.242188 A 1.0001 1.0001 0 0 0 25.867188 68.158203 L 24.837891 65.226562 A 1.0001 1.0001 0 0 0 23.935547 64.544922 A 1.0001 1.0001 0 0 0 22.951172 65.888672 L 23.712891 68.060547 C 23.633037 68.053293 23.554366 68.044455 23.474609 68.037109 A 2.0002 2.0002 0 0 0 22.853516 67.912109 A 2.0002 2.0002 0 0 0 22.455078 67.9375 C 22.285392 67.920954 22.114548 67.905638 21.945312 67.888672 L 20.080078 63.289062 A 1.0001 1.0001 0 0 0 19.148438 62.650391 A 1.0001 1.0001 0 0 0 18.226562 64.039062 L 19.689453 67.646484 C 19.13568 67.584023 18.57802 67.52614 18.029297 67.458984 L 9.6445312 58.810547 L 31.011719 58.238281 L 32.103516 61.548828 A 1.0005689 1.0005689 0 1 0 34.003906 60.921875 L 33.099609 58.183594 L 34.242188 58.152344 L 36.619141 63.335938 A 1.000245 1.000245 0 1 0 38.4375 62.501953 L 36.416016 58.09375 L 38.25 58.044922 L 40.660156 62.548828 A 1.0001 1.0001 0 1 0 42.421875 61.605469 L 40.486328 57.986328 L 44.888672 57.867188 L 47.134766 63.730469 A 1.0001 1.0001 0 1 0 49.001953 63.013672 L 47.009766 57.810547 L 63.455078 57.371094 z"/></svg>