<svg xmlns="http://www.w3.org/2000/svg"  viewBox="0 0 100 100" width="24px" height="24px"><path d="M 81.53125 19.689453 C 81.43355 19.686653 81.378788 19.688592 81.333984 19.691406 C 81.244374 19.696906 81.197454 19.704888 81.150391 19.710938 C 80.962136 19.735138 80.808326 19.763771 80.572266 19.806641 C 80.100144 19.892391 79.389896 20.027157 78.464844 20.199219 C 76.614739 20.543342 73.919098 21.029476 70.763672 21.509766 C 64.45282 22.470344 56.284727 23.398423 49.527344 23.138672 C 44.333566 22.93867 36.398702 21.89624 29.275391 21.707031 C 25.713735 21.612431 22.347347 21.720791 19.484375 22.322266 C 16.621403 22.923736 14.033848 24.041442 12.759766 26.464844 C 10.658698 30.461236 11.098238 35.503431 11.787109 40.123047 C 12.47598 44.742663 13.517879 49.215856 13.507812 50.746094 C 13.485853 54.084094 10.289063 58.892578 10.289062 58.892578 A 2.0002 2.0002 0 0 0 11.470703 62.023438 L 35.060547 67.273438 A 2.0002 2.0002 0 0 0 35.8125 67.294922 L 45.232422 65.78125 C 45.307222 67.346277 45.453687 70.254836 45.632812 75.146484 C 45.854376 81.197005 45.985659 88.044431 45.832031 89.621094 A 2.0002 2.0002 0 1 0 49.8125 90.009766 C 49.915583 88.95184 49.928623 87.18058 49.908203 85.15625 L 52.306641 84.566406 A 1.0001 1.0001 0 0 0 52.095703 82.591797 A 1.0001 1.0001 0 0 0 51.828125 82.625 L 49.878906 83.103516 C 49.869748 82.675033 49.847575 82.168643 49.835938 81.722656 L 52.150391 80.494141 A 1.0001 1.0001 0 0 0 51.662109 78.605469 A 1.0001 1.0001 0 0 0 51.212891 78.728516 L 49.767578 79.494141 C 49.74281 78.709522 49.72539 77.972099 49.697266 77.169922 A 1.0001 1.0001 0 0 0 49.763672 77.148438 L 52.845703 76.035156 A 1.0001 1.0001 0 0 0 52.527344 74.089844 A 1.0001 1.0001 0 0 0 52.166016 74.154297 L 49.632812 75.068359 C 49.631949 75.044762 49.631723 75.02359 49.630859 75 C 49.57688 73.525911 49.560239 73.355802 49.511719 72.179688 L 56.800781 69.914062 A 1.0001 1.0001 0 0 0 56.472656 67.957031 A 1.0001 1.0001 0 0 0 56.207031 68.005859 L 49.423828 70.113281 C 49.404079 69.667618 49.384518 69.1675 49.367188 68.791016 L 59.238281 66.443359 C 59.64636 71.417525 60.340009 81.276965 59.822266 86.455078 A 2.0002 2.0002 0 1 0 63.802734 86.853516 C 64.568817 79.19168 63.148771 64.787264 62.962891 62.933594 L 84.027344 59.550781 A 2.0002 2.0002 0 0 0 85.617188 58.181641 C 85.617188 58.181641 87.382909 52.64271 88.607422 47.294922 A 2.0002 2.0002 0 0 0 88.660156 46.648438 L 94.15625 46.244141 A 1.0001 1.0001 0 0 0 95.068359 45.072266 C 95.068359 45.072266 94.213314 40.09446 92.904297 36.855469 A 1.0001 1.0001 0 0 0 91.962891 36.230469 A 1.0001 1.0001 0 0 0 91.822266 36.242188 C 91.357667 36.314586 90.564451 36.429663 90.025391 36.511719 C 90.157379 34.562294 90.111163 33.312377 89.837891 31.761719 C 89.072428 27.427377 87.276183 24.458098 85.628906 22.605469 C 83.981629 20.75284 82.330078 19.914063 82.330078 19.914062 L 82.328125 19.935547 C 82.262915 19.889337 82.133015 19.796944 82.132812 19.796875 C 82.131862 19.796549 81.817599 19.714305 81.728516 19.703125 C 81.639436 19.691945 81.580099 19.690833 81.53125 19.689453 z M 80.925781 23.810547 C 81.159563 23.938007 81.636423 24.136481 82.638672 25.263672 C 83.851145 26.627293 85.264853 28.858373 85.900391 32.457031 L 85.898438 32.457031 C 86.135768 33.803743 86.161453 34.458766 86.029297 36.337891 A 2.0002 2.0002 0 0 0 86.115234 37.097656 C 76.939712 38.452855 64.056641 40.265625 64.056641 40.265625 A 1.0001 1.0001 0 1 0 64.333984 42.246094 C 64.333984 42.246094 74.489923 40.773118 82.636719 39.59375 L 84.480469 46.152344 A 1.0001 1.0001 0 0 0 84.679688 46.525391 C 84.263193 48.333031 83.83017 49.964341 83.427734 51.40625 L 80.388672 48.789062 A 1.0001 1.0001 0 0 0 79.75 48.537109 A 1.0001 1.0001 0 0 0 79.083984 50.304688 L 82.816406 53.519531 C 82.542854 54.429645 82.2317 55.463565 82.125 55.804688 L 80.189453 56.115234 L 76.794922 50.263672 A 1.0001 1.0001 0 0 0 75.880859 49.753906 A 1.0001 1.0001 0 0 0 75.064453 51.267578 L 78.074219 56.455078 L 51.568359 60.712891 L 55.162109 53.994141 A 1.0001 1.0001 0 0 0 54.263672 52.509766 A 1.0001 1.0001 0 0 0 53.398438 53.050781 L 49.085938 61.113281 L 47.722656 61.332031 L 50.378906 56.005859 A 1.0001 1.0001 0 0 0 49.439453 54.546875 A 1.0001 1.0001 0 0 0 48.589844 55.113281 L 45.292969 61.722656 L 43.066406 62.080078 L 44.316406 58.623047 A 1.0001 1.0001 0 0 0 43.412109 57.271484 A 1.0001 1.0001 0 0 0 42.433594 57.943359 L 40.808594 62.441406 L 35.556641 63.285156 L 15.087891 58.730469 C 15.996575 57.173474 16.962379 55.15671 17.337891 52.738281 L 22.529297 50.933594 A 1.0001 1.0001 0 0 0 22.236328 48.986328 A 1.0001 1.0001 0 0 0 21.873047 49.044922 L 17.5 50.566406 C 17.497754 50.36653 17.488661 50.159154 17.476562 49.949219 L 21.599609 47.394531 A 1.0001 1.0001 0 0 0 21.085938 45.537109 A 1.0001 1.0001 0 0 0 20.544922 45.693359 L 17.220703 47.753906 C 16.849069 45.340129 16.191811 42.535315 15.744141 39.533203 C 15.094262 35.175069 15.031849 30.739779 16.300781 28.326172 C 16.52707 27.895753 17.026136 27.456422 17.806641 27.064453 C 18.399715 27.371404 19.229758 27.87421 20.210938 28.683594 C 21.57578 29.809464 23.18053 31.52467 24.685547 34.050781 L 20.582031 36.199219 A 1.0007211 1.0007211 0 0 0 21.509766 37.972656 L 25.642578 35.808594 C 25.863816 36.252444 26.079285 36.720524 26.291016 37.207031 L 19.855469 39.75 A 1.0001 1.0001 0 1 0 20.589844 41.609375 L 27.042969 39.060547 C 28.636616 43.159688 30.070382 47.546185 31.214844 51.332031 L 26.199219 55.15625 A 1.0001 1.0001 0 1 0 27.412109 56.746094 L 31.828125 53.376953 C 31.987071 53.919965 32.070603 54.242237 32.212891 54.740234 L 29.125 56.521484 A 1.0001 1.0001 0 1 0 30.123047 58.253906 L 32.773438 56.724609 C 33.38215 58.924268 33.824219 60.589844 33.824219 60.589844 A 1.000226 1.000226 0 1 0 35.763672 60.099609 C 35.763672 60.099609 35.183158 57.898349 34.369141 55.007812 A 1.0001 1.0001 0 0 0 34.330078 54.869141 C 33.028066 50.256318 30.988361 43.477928 28.515625 37.304688 C 26.442515 32.129635 23.718017 28.983174 21.484375 27.140625 C 21.063271 26.793253 20.664376 26.503895 20.28125 26.242188 C 20.290158 26.2403 20.297702 26.238206 20.306641 26.236328 C 22.627262 25.748798 25.766703 25.616635 29.169922 25.707031 C 29.544703 25.716986 29.932009 25.73711 30.3125 25.751953 A 1.0001 1.0001 0 0 0 30.554688 26.203125 C 30.554688 26.203125 34.43187 30.488144 36.603516 35.744141 A 1.0005309 1.0005309 0 1 0 38.453125 34.980469 C 36.771275 30.909916 34.221617 27.500103 32.902344 25.880859 C 33.961027 25.945542 35.018621 26.027429 36.085938 26.111328 A 1.0001 1.0001 0 0 0 35.636719 27.923828 C 35.636719 27.923828 38.065204 29.691119 39.529297 32.794922 A 1.0001 1.0001 0 1 0 41.337891 31.941406 C 39.633984 28.329209 36.808594 26.302734 36.808594 26.302734 A 1.0001 1.0001 0 0 0 36.488281 26.144531 C 41.138155 26.51731 45.745868 26.99509 49.373047 27.134766 C 56.097251 27.393241 63.695721 26.570578 69.908203 25.667969 A 1.0001 1.0001 0 0 0 70.044922 26.234375 L 72.443359 30.429688 A 1.0001 1.0001 0 1 0 74.179688 29.4375 L 71.863281 25.384766 C 74.848539 24.922492 77.431286 24.461288 79.197266 24.132812 C 79.970936 23.988909 80.486852 23.892009 80.925781 23.810547 z M 67.126953 26.144531 A 1.0001 1.0001 0 0 0 66.308594 27.712891 C 66.308594 27.712891 67.825989 29.985116 68.994141 32.335938 A 1.0001187 1.0001187 0 1 0 70.785156 31.445312 C 69.539308 28.938133 67.970703 26.601563 67.970703 26.601562 A 1.0001 1.0001 0 0 0 67.126953 26.144531 z M 63.011719 26.632812 A 1.0001 1.0001 0 0 0 62.285156 28.294922 C 62.285156 28.294922 63.080705 29.223139 63.935547 30.523438 C 64.790388 31.823736 65.663155 33.506369 65.84375 34.740234 A 1.0007265 1.0007265 0 1 0 67.824219 34.451172 C 67.557814 32.631037 66.53583 30.837982 65.607422 29.425781 C 64.679013 28.01358 63.802734 26.992187 63.802734 26.992188 A 1.0001 1.0001 0 0 0 63.011719 26.632812 z M 46.433594 37.388672 C 45.992875 37.334062 45.542891 37.540469 45.306641 37.949219 C 44.992641 38.494219 45.178656 39.192813 45.722656 39.507812 C 46.267656 39.821813 46.965297 39.634844 47.279297 39.089844 C 47.594297 38.544844 47.408281 37.848203 46.863281 37.533203 C 46.727031 37.454703 46.5805 37.406875 46.433594 37.388672 z M 91.267578 38.34375 C 92.081463 40.634792 92.63575 43.125605 92.871094 44.332031 L 86.183594 44.824219 L 84.632812 39.304688 C 87.512912 38.884504 89.188896 38.663301 91.267578 38.34375 z M 54.810547 43.945312 C 54.369828 43.890703 53.919844 44.099063 53.683594 44.507812 C 53.369594 45.052812 53.555609 45.750453 54.099609 46.064453 C 54.644609 46.378453 55.34225 46.191484 55.65625 45.646484 C 55.97125 45.101484 55.785234 44.403844 55.240234 44.089844 C 55.103984 44.011344 54.957453 43.963516 54.810547 43.945312 z M 47.720703 45.724609 C 47.279984 45.67 46.828047 45.876406 46.591797 46.285156 C 46.277797 46.830156 46.465766 47.526797 47.009766 47.841797 C 47.554766 48.155797 48.252406 47.970781 48.566406 47.425781 C 48.881406 46.880781 48.693438 46.181188 48.148438 45.867188 C 48.012187 45.788688 47.867609 45.742812 47.720703 45.724609 z M 58.996094 63.570312 C 59.00813 63.702237 59.049438 64.213732 59.068359 64.425781 L 49.279297 66.755859 C 49.263623 66.429238 49.221475 65.361586 49.210938 65.142578 L 58.996094 63.570312 z"/></svg>