<svg xmlns="http://www.w3.org/2000/svg"  viewBox="0 0 100 100" width="24px" height="24px"><path d="M 69.255859 16.001953 C 64.667845 16.052906 61.582366 18.711309 59.978516 21.265625 C 58.305472 23.930139 57.898698 26.559862 57.880859 26.677734 C 57.860429 26.765094 57.162885 29.783963 58.179688 33.126953 C 59.211269 36.518533 62.470266 40.204769 68.900391 40.712891 C 73.104228 41.044792 76.693491 39.458537 79.060547 36.835938 C 81.427984 34.212916 82.644651 30.659249 82.708984 26.962891 C 82.776614 23.044028 80.734748 20.098331 78.1875 18.449219 C 75.640252 16.800107 72.668367 16.187828 70.193359 16.027344 C 69.874128 16.00676 69.561727 15.998556 69.255859 16.001953 z M 45.017578 17.908203 C 41.384783 17.95241 38.872823 20.089446 37.605469 22.107422 C 36.291522 24.199585 35.974648 26.24061 35.957031 26.357422 C 35.936541 26.443982 35.38593 28.804094 36.193359 31.458984 C 37.015683 34.162847 39.708865 37.135039 44.712891 37.53125 C 48.02215 37.792792 50.902105 36.527905 52.78125 34.445312 C 54.660395 32.362721 55.608451 29.567247 55.658203 26.675781 C 55.711793 23.561015 54.050211 21.144471 52.023438 19.832031 C 49.996662 18.519591 47.687282 18.052183 45.759766 17.927734 C 45.50766 17.911421 45.259764 17.905256 45.017578 17.908203 z M 24.451172 19.876953 C 21.357947 19.678955 19.139106 21.481026 18.101562 23.132812 C 17.103265 24.722122 16.867444 26.246837 16.849609 26.365234 C 16.830399 26.444894 16.403785 28.234886 17.029297 30.291016 C 17.66882 32.3932 19.866614 34.737997 23.623047 35.035156 C 26.148035 35.235359 28.408579 34.25217 29.861328 32.642578 C 31.314077 31.032986 32.029247 28.902218 32.066406 26.712891 C 32.107346 24.301584 30.778921 22.348144 29.207031 21.330078 C 27.635141 20.312012 25.901204 19.970367 24.451172 19.876953 z M 68.658203 20.017578 C 69.055817 19.990478 69.480634 19.990199 69.935547 20.019531 C 69.948637 20.02038 69.963435 20.02255 69.976562 20.023438 L 68.941406 21.398438 A 1.0001 1.0001 0 1 0 70.539062 22.601562 L 72.224609 20.363281 C 73.34437 20.604492 74.463889 20.955172 75.423828 21.466797 L 73.349609 23.240234 A 1.0001264 1.0001264 0 0 0 74.650391 24.759766 L 77.109375 22.658203 C 78.14111 23.630907 78.743479 24.893725 78.708984 26.892578 C 78.682558 28.410803 78.391007 29.860872 77.888672 31.158203 L 76.597656 30.197266 A 1.0001 1.0001 0 0 0 75.943359 29.992188 A 1.0001 1.0001 0 0 0 75.402344 31.802734 L 76.976562 32.972656 C 76.707135 33.395938 76.415958 33.797093 76.091797 34.15625 C 74.485484 35.935978 72.305132 36.97099 69.214844 36.726562 C 68.049909 36.634507 67.087077 36.451216 66.273438 36.203125 L 66.75 35.660156 A 1.0001 1.0001 0 0 0 66.015625 33.990234 A 1.0001 1.0001 0 0 0 65.25 34.339844 L 64.365234 35.34375 C 62.982857 34.43814 62.385646 33.211531 62.005859 31.962891 C 61.980022 31.877942 61.965944 31.793946 61.943359 31.708984 L 63.962891 30.933594 A 1.0001 1.0001 0 0 0 63.607422 28.994141 A 1.0001 1.0001 0 0 0 63.246094 29.066406 L 61.648438 29.679688 C 61.606243 28.428807 61.792969 27.494141 61.792969 27.494141 A 2.0002 2.0002 0 0 0 61.818359 27.361328 C 61.818359 27.361328 62.151259 25.325974 63.365234 23.392578 C 64.427463 21.700857 65.874906 20.207281 68.658203 20.017578 z M 44.605469 21.916016 C 44.882386 21.89864 45.179336 21.899173 45.5 21.919922 A 2.0002 2.0002 0 0 0 45.501953 21.919922 C 46.023997 21.953627 46.586568 22.044973 47.148438 22.166016 L 46.207031 23.390625 A 1.0001 1.0001 0 1 0 47.792969 24.609375 L 49.160156 22.832031 C 49.398997 22.945211 49.642144 23.055108 49.849609 23.189453 C 50.106588 23.35586 50.330265 23.529158 50.537109 23.712891 L 48.675781 25.224609 A 1.0001 1.0001 0 1 0 49.9375 26.775391 L 51.5625 25.457031 C 51.63291 25.793132 51.667676 26.170371 51.660156 26.607422 C 51.624906 28.655956 50.930605 30.526467 49.8125 31.765625 C 48.694395 33.004783 47.222084 33.716427 45.027344 33.542969 C 44.300334 33.485405 43.713164 33.374785 43.189453 33.240234 L 43.716797 32.697266 A 1.0001 1.0001 0 0 0 42.964844 30.990234 A 1.0001 1.0001 0 0 0 42.283203 31.302734 L 41.261719 32.353516 C 40.558511 31.772845 40.24786 31.045685 40.019531 30.294922 C 39.556605 28.772784 39.869141 27.173828 39.869141 27.173828 A 2.0002 2.0002 0 0 0 39.894531 27.042969 C 39.894531 27.042969 40.137282 25.595617 40.992188 24.234375 C 41.740229 23.043288 42.667051 22.037647 44.605469 21.916016 z M 24.349609 23.886719 C 25.275299 23.967797 26.356471 24.249201 27.033203 24.6875 C 27.746813 25.149684 28.085467 25.521838 28.066406 26.644531 C 28.043566 27.990204 27.584079 29.196733 26.892578 29.962891 C 26.201077 30.729048 25.349465 31.158673 23.939453 31.046875 C 21.425886 30.848035 21.135446 30.047269 20.855469 29.126953 C 20.575492 28.206638 20.759766 27.183594 20.759766 27.183594 A 2.0002 2.0002 0 0 0 20.783203 27.052734 C 20.783203 27.052734 20.949277 26.122932 21.490234 25.261719 C 21.743563 24.858416 22.000977 24.509321 22.365234 24.257812 L 23.050781 26.316406 A 1.0005646 1.0005646 0 1 0 24.949219 25.683594 L 24.349609 23.886719 z M 23.822266 40.617188 C 23.274791 40.603194 22.734772 40.628261 22.203125 40.693359 C 17.37555 41.284479 13.553732 44.851341 12.550781 49.474609 C 10.823389 57.431873 11.863281 62.615234 11.863281 62.615234 A 2.0002 2.0002 0 0 0 13.708984 64.203125 L 31.609375 65.214844 L 31.847656 71.253906 A 2.0002 2.0002 0 0 0 33.826172 73.175781 L 51.154297 73.349609 L 51.074219 82.982422 A 2.0002 2.0002 0 0 0 53.087891 85 L 86.173828 84.789062 A 2.0002 2.0002 0 0 0 88.140625 83.074219 C 88.140625 83.074219 88.916061 77.67027 89.013672 71.320312 C 89.111282 64.970356 88.809554 57.687388 85.505859 53.15625 A 2.0002 2.0002 0 0 0 85.505859 53.154297 C 82.525062 49.068736 77.547351 45.667434 71.917969 44.703125 C 66.981338 43.857484 61.55217 45.313757 57.138672 49.742188 C 53.390053 44.367483 49.336942 41.606676 45.242188 41.568359 C 41.413133 41.532529 38.156301 43.757695 35.587891 46.910156 C 31.822627 42.761122 27.654585 40.715145 23.822266 40.617188 z M 23.925781 44.609375 C 26.907698 44.700802 30.547653 46.407754 34.125 51.207031 A 2.0002 2.0002 0 0 0 37.410156 51.09375 C 39.701099 47.53468 42.47942 45.542854 45.205078 45.568359 C 47.930736 45.593869 51.402295 47.594952 55.158203 53.847656 A 2.0002 2.0002 0 0 0 58.462891 54.03125 C 62.099399 49.271507 66.307592 48.046446 70.488281 48.556641 L 70.068359 49.638672 A 1.0001 1.0001 0 1 0 71.931641 50.361328 L 72.486328 48.933594 C 73.309228 49.149481 74.117698 49.432071 74.90625 49.775391 L 74.087891 51.587891 A 1.0008879 1.0008879 0 0 0 75.912109 52.412109 L 76.695312 50.675781 C 77.406145 51.081232 78.091011 51.520718 78.732422 52.001953 L 77.833984 53.480469 A 1.0001 1.0001 0 1 0 79.542969 54.519531 L 80.285156 53.296875 C 81.041468 54.003898 81.716329 54.750075 82.273438 55.513672 C 84.274113 58.259354 85.108751 65.201601 85.015625 71.259766 C 84.946155 75.77935 84.588926 79.044248 84.375 80.802734 L 83.390625 80.808594 L 81.738281 78.429688 A 1.0001 1.0001 0 0 0 80.886719 77.988281 A 1.0001 1.0001 0 0 0 80.095703 79.570312 L 80.966797 80.824219 L 70.673828 80.888672 L 71.894531 78.447266 A 1.0001 1.0001 0 0 0 70.955078 76.988281 A 1.0001 1.0001 0 0 0 70.105469 77.552734 L 68.429688 80.902344 L 65.546875 80.919922 L 67.828125 77.5625 A 1.0001 1.0001 0 0 0 66.990234 75.988281 A 1.0001 1.0001 0 0 0 66.171875 76.4375 L 63.117188 80.935547 L 61.203125 80.947266 L 62.269531 79.628906 A 1.0001 1.0001 0 0 0 61.466797 77.990234 A 1.0001 1.0001 0 0 0 60.714844 78.371094 L 58.617188 80.964844 L 56.552734 80.976562 L 57.740234 79.671875 A 1.0001 1.0001 0 0 0 57.033203 77.990234 A 1.0001 1.0001 0 0 0 56.259766 78.328125 L 55.103516 79.599609 L 55.171875 71.386719 A 2.0002 2.0002 0 0 0 53.191406 69.369141 L 49.085938 69.328125 L 49.707031 68.707031 A 1.0001 1.0001 0 0 0 48.980469 66.990234 A 1.0001 1.0001 0 0 0 48.292969 67.292969 L 46.292969 69.292969 A 1.0001 1.0001 0 0 0 46.285156 69.300781 L 43.611328 69.273438 L 44.816406 67.578125 A 1.0001 1.0001 0 0 0 44.009766 65.988281 A 1.0001 1.0001 0 0 0 43.183594 66.421875 L 41.177734 69.25 L 39.539062 69.232422 L 40.730469 66.384766 A 1.0001 1.0001 0 0 0 39.792969 64.986328 A 1.0001 1.0001 0 0 0 38.884766 65.615234 L 37.380859 69.210938 L 35.769531 69.195312 L 35.535156 63.242188 A 2.0002 2.0002 0 0 0 33.650391 61.322266 L 28.943359 61.056641 L 29.748047 59.447266 A 1.0001 1.0001 0 0 0 28.806641 57.988281 A 1.0001 1.0001 0 0 0 27.958984 58.552734 L 26.769531 60.935547 L 23.654297 60.759766 L 24.707031 59.707031 A 1.0001 1.0001 0 0 0 23.980469 57.990234 A 1.0001 1.0001 0 0 0 23.292969 58.292969 L 20.976562 60.609375 L 19.064453 60.5 L 20.857422 57.513672 A 1.0001 1.0001 0 0 0 20.033203 55.988281 A 1.0001 1.0001 0 0 0 19.142578 56.486328 L 16.810547 60.373047 L 15.652344 60.308594 C 15.471372 58.799325 15.26672 55.814455 16.458984 50.322266 C 17.111034 47.316534 19.513528 45.052943 22.689453 44.664062 C 23.086444 44.615453 23.499793 44.596314 23.925781 44.609375 z M 65.238281 59.597656 C 64.686281 59.597656 64.238281 60.045656 64.238281 60.597656 C 64.238281 61.149656 64.686281 61.597656 65.238281 61.597656 C 65.790281 61.597656 66.238281 61.149656 66.238281 60.597656 C 66.238281 60.045656 65.790281 59.597656 65.238281 59.597656 z M 73.431641 59.597656 C 72.879641 59.597656 72.431641 60.045656 72.431641 60.597656 C 72.431641 61.149656 72.879641 61.597656 73.431641 61.597656 C 73.983641 61.597656 74.431641 61.149656 74.431641 60.597656 C 74.431641 60.045656 73.983641 59.597656 73.431641 59.597656 z M 70.238281 64 C 69.686281 64 69.238281 64.448 69.238281 65 C 69.238281 65.552 69.686281 66 70.238281 66 C 70.790281 66 71.238281 65.552 71.238281 65 C 71.238281 64.448 70.790281 64 70.238281 64 z"/></svg>