<svg xmlns="http://www.w3.org/2000/svg"  viewBox="0 0 100 100" width="24px" height="24px"><path d="M 28.126953 15.605469 C 27.051718 15.600454 25.970063 15.604692 24.880859 15.621094 A 2.0002 2.0002 0 0 0 24.865234 15.621094 C 22.709102 15.668864 20.659299 16.573036 19.171875 18.134766 C 17.685408 19.69549 16.879825 21.78746 16.935547 23.943359 L 16.933594 23.921875 C 17.191019 40.665379 15.324622 57.994747 16.263672 74.576172 A 2.0002 2.0002 0 0 0 16.265625 74.605469 C 16.574282 78.986066 20.119616 82.483182 24.503906 82.732422 A 2.0002 2.0002 0 0 0 24.505859 82.732422 C 42.881066 83.768648 60.098009 83.94761 75.640625 82.886719 A 2.0002 2.0002 0 0 0 75.65625 82.886719 C 80.137912 82.549023 83.574665 78.665454 83.365234 74.175781 A 2.0002 2.0002 0 0 0 83.363281 74.15625 C 82.742931 63.086612 83.039765 63.442509 83.425781 59.763672 C 83.811769 56.08511 84.240194 48.904093 83.837891 23.6875 C 83.809051 21.642511 82.926562 19.6999 81.40625 18.332031 C 79.887348 16.965431 77.865715 16.292966 75.832031 16.476562 L 75.826172 16.476562 C 58.934701 17.965181 44.255481 15.680688 28.126953 15.605469 z M 28.119141 19.605469 C 40.035875 19.670036 51.43578 20.996405 63.820312 20.980469 L 63.191406 21.609375 A 1.0001 1.0001 0 1 0 64.605469 23.023438 L 66.673828 20.953125 C 67.340473 20.940509 68.01048 20.924111 68.683594 20.902344 L 67.876953 21.707031 A 1.0012745 1.0012745 0 0 0 69.292969 23.123047 L 71.642578 20.771484 C 72.959061 20.701228 74.287407 20.614689 75.632812 20.501953 L 72.292969 23.84375 A 1.0001 1.0001 0 1 0 73.707031 25.257812 L 78.099609 20.865234 C 78.323609 20.988301 78.536889 21.132471 78.730469 21.306641 C 79.249165 21.773327 79.604354 22.382684 79.755859 23.050781 L 76.3125 26.494141 A 1.0005836 1.0005836 0 1 0 77.726562 27.910156 L 79.865234 25.771484 C 79.880613 26.820442 79.891894 27.786554 79.904297 28.769531 L 78.169922 30.152344 A 1.0001 1.0001 0 1 0 79.416016 31.716797 L 79.9375 31.300781 C 79.948121 32.287057 79.955309 33.188444 79.962891 34.105469 L 78.539062 35.238281 A 1.0001 1.0001 0 1 0 79.785156 36.802734 L 79.980469 36.648438 C 80.063501 51.402101 79.736404 56.592104 79.447266 59.347656 C 79.085532 62.795069 78.746442 63.234497 79.371094 74.380859 L 79.369141 74.361328 C 79.419955 75.450666 79.063545 76.449217 78.447266 77.238281 L 76.777344 74.207031 A 1.0001 1.0001 0 0 0 75.875 73.675781 A 1.0001 1.0001 0 0 0 75.025391 75.171875 L 76.859375 78.5 C 76.399475 78.711317 75.898978 78.855209 75.361328 78.896484 C 74.888203 78.928765 74.398334 78.950503 73.921875 78.980469 L 71.392578 74.640625 A 1.0001 1.0001 0 0 0 70.478516 74.132812 A 1.0001 1.0001 0 0 0 69.666016 75.648438 L 71.681641 79.109375 C 62.6551 79.604284 53.061264 79.703605 42.996094 79.470703 L 43.892578 78.578125 A 1.0001 1.0001 0 0 0 43.171875 76.859375 A 1.0001 1.0001 0 0 0 42.482422 77.160156 L 40.230469 79.396484 C 38.761532 79.354181 37.282592 79.305597 35.794922 79.25 L 37.705078 77.351562 A 1.0001 1.0001 0 0 0 36.984375 75.632812 A 1.0001 1.0001 0 0 0 36.294922 75.933594 L 33.064453 79.144531 C 31.688839 79.086251 30.302632 79.020088 28.912109 78.951172 L 31.625 76.78125 A 1.0001 1.0001 0 0 0 30.992188 74.992188 A 1.0001 1.0001 0 0 0 30.375 75.21875 L 25.900391 78.796875 C 25.508904 78.775532 25.125018 78.76042 24.732422 78.738281 L 24.730469 78.738281 C 23.377492 78.660826 22.199576 78.020312 21.384766 77.058594 L 25.783203 75.078125 A 1.0001 1.0001 0 0 0 25.417969 73.162109 A 1.0001 1.0001 0 0 0 24.962891 73.255859 L 20.433594 75.294922 C 20.346044 74.984627 20.281784 74.664111 20.257812 74.330078 C 20.181327 72.975852 20.13221 71.610173 20.091797 70.240234 L 25.568359 69.152344 A 1.0001 1.0001 0 0 0 25.345703 67.169922 A 1.0001 1.0001 0 0 0 25.177734 67.189453 L 20.037109 68.210938 C 20.013574 66.901647 20.022036 65.577172 20.023438 64.255859 A 1.000202 1.000202 0 0 0 20.039062 64.253906 L 24.587891 63.486328 A 1.0001 1.0001 0 0 0 24.423828 61.498047 A 1.0001 1.0001 0 0 0 24.255859 61.515625 L 20.015625 62.228516 C 20.026858 61.012494 20.059898 59.78492 20.085938 58.560547 L 22.478516 58.423828 A 1.0001 1.0001 0 0 0 22.433594 56.425781 A 1.0001 1.0001 0 0 0 22.363281 56.427734 L 20.125 56.556641 C 20.152628 55.512612 20.186443 54.462968 20.220703 53.414062 L 22.302734 53.294922 A 1.0001 1.0001 0 0 0 22.257812 51.296875 A 1.0001 1.0001 0 0 0 22.1875 51.298828 L 20.287109 51.408203 C 20.609616 42.305564 21.07496 33.054163 20.933594 23.859375 A 2.0002 2.0002 0 0 0 20.933594 23.839844 C 20.905314 22.745743 21.312826 21.687807 22.068359 20.894531 C 22.822488 20.10273 23.859972 19.643874 24.953125 19.619141 C 26.013467 19.603275 27.067958 19.599773 28.119141 19.605469 z M 24.697266 23.695312 A 1 1 0 0 0 24.697266 25.695312 A 1 1 0 0 0 24.697266 23.695312 z M 32.890625 23.695312 A 1 1 0 0 0 32.890625 25.695312 A 1 1 0 0 0 32.890625 23.695312 z M 29.697266 28.099609 A 1 1 0 0 0 29.697266 30.099609 A 1 1 0 0 0 29.697266 28.099609 z M 62.203125 30.519531 C 59.214531 30.326866 57.262546 31.972618 56.261719 33.566406 C 55.276436 35.135441 55.038669 36.698891 55.03125 36.748047 C 55.01939 36.799217 54.613202 38.565844 55.205078 40.511719 C 55.805558 42.485878 57.664707 44.618417 61.457031 44.917969 C 63.922122 45.113011 66.001639 44.190509 67.382812 42.660156 C 68.763987 41.129804 69.481882 39.044781 69.519531 36.871094 C 69.559121 34.586152 68.384526 32.900335 66.900391 31.939453 C 65.416255 30.978572 63.661942 30.614018 62.203125 30.519531 z M 47.556641 31.658203 C 45.212024 31.50644 43.637171 32.819517 42.851562 34.070312 C 42.072609 35.310514 41.891798 36.545215 41.888672 36.566406 C 41.872872 36.634456 41.563962 37.988364 42.027344 39.511719 C 42.502462 41.073657 44.021246 42.779115 46.958984 43.011719 C 48.887135 43.164264 50.544296 42.43293 51.632812 41.226562 C 52.721331 40.020196 53.277511 38.39044 53.306641 36.699219 C 53.337691 34.896324 52.389076 33.526607 51.216797 32.767578 C 50.044517 32.008549 48.687636 31.731171 47.556641 31.658203 z M 61.28125 32.515625 C 61.528888 32.498198 61.792418 32.497458 62.074219 32.515625 C 63.286402 32.594135 64.757385 32.934069 65.8125 33.617188 C 66.867615 34.300306 67.547945 35.195879 67.519531 36.835938 C 67.489181 38.588251 66.899013 40.211665 65.898438 41.320312 C 64.89786 42.428961 63.52119 43.076739 61.613281 42.925781 C 58.442605 42.675333 57.539911 41.313029 57.119141 39.929688 C 56.69837 38.546346 56.986328 37.150391 56.986328 37.150391 A 1.0001 1.0001 0 0 0 57 37.083984 C 57 37.083984 57.202655 35.827118 57.955078 34.628906 C 58.613448 33.580472 59.547784 32.637612 61.28125 32.515625 z M 34.785156 32.826172 C 33.004061 32.712177 31.759257 33.73475 31.162109 34.685547 C 30.575446 35.61965 30.446226 36.527801 30.441406 36.560547 C 30.434006 36.591367 30.180968 37.628621 30.541016 38.8125 C 30.906376 40.013845 32.128597 41.342565 34.318359 41.515625 C 35.77654 41.631216 37.061573 41.069366 37.894531 40.146484 C 38.72749 39.223603 39.14248 37.991065 39.164062 36.720703 C 39.187542 35.339468 38.44055 34.248579 37.541016 33.666016 C 36.641481 33.083452 35.631616 32.880637 34.787109 32.826172 A 1.0001 1.0001 0 0 0 34.785156 32.826172 z M 46.863281 33.652344 C 47.038555 33.640702 47.226436 33.641267 47.427734 33.654297 C 48.311739 33.711327 49.387639 33.966044 50.130859 34.447266 C 50.87408 34.928487 51.326588 35.505958 51.306641 36.664062 C 51.284771 37.933842 50.85642 39.102085 50.148438 39.886719 C 49.440455 40.671352 48.488036 41.126033 47.117188 41.017578 C 44.800925 40.834182 44.236788 39.900748 43.941406 38.929688 C 43.646024 37.958625 43.845703 36.958984 43.845703 36.958984 A 1.0001 1.0001 0 0 0 43.857422 36.892578 C 43.857422 36.892578 44.00778 35.989969 44.544922 35.134766 C 45.01492 34.386462 45.636368 33.733837 46.863281 33.652344 z M 34.658203 34.822266 C 35.255697 34.860796 35.984613 35.039063 36.455078 35.34375 C 36.925544 35.648437 37.178539 35.950735 37.166016 36.6875 C 37.151596 37.536139 36.862448 38.305522 36.410156 38.806641 C 35.957865 39.307759 35.377382 39.592893 34.476562 39.521484 C 32.908325 39.397544 32.638765 38.840874 32.453125 38.230469 C 32.267485 37.620064 32.392578 36.964844 32.392578 36.964844 A 1.0001 1.0001 0 0 0 32.404297 36.898438 C 32.404297 36.898438 32.506616 36.3035 32.855469 35.748047 C 33.204321 35.192593 33.611298 34.755261 34.658203 34.822266 z M 34.449219 45.257812 C 34.119377 45.248279 33.793966 45.263641 33.474609 45.302734 C 30.663059 45.646907 28.443093 47.719287 27.859375 50.410156 C 26.831178 55.147317 27.449219 58.203125 27.449219 58.203125 A 1.0001 1.0001 0 0 0 28.371094 58.998047 L 39.28125 59.613281 L 39.431641 63.416016 A 1.0001 1.0001 0 0 0 40.419922 64.375 L 51.005859 64.482422 L 50.955078 70.455078 A 1.0001 1.0001 0 0 0 51.962891 71.462891 L 71.792969 71.337891 A 1.0001 1.0001 0 0 0 72.777344 70.478516 C 72.777344 70.478516 73.240458 67.250596 73.298828 63.458984 C 73.357198 59.667373 73.150025 55.318497 71.234375 52.691406 C 69.480224 50.287099 66.531224 48.270904 63.216797 47.703125 C 60.248349 47.194614 56.994006 48.083189 54.365234 50.833984 C 52.104509 47.511788 49.678516 45.850644 47.259766 45.828125 C 44.980833 45.806905 43.099047 47.284281 41.568359 49.226562 C 39.28976 46.594421 36.758111 45.324549 34.449219 45.257812 z M 34.490234 47.251953 C 36.346507 47.309814 38.58546 48.375367 40.755859 51.287109 A 1.0001 1.0001 0 0 0 42.398438 51.230469 C 43.793161 49.063681 45.512287 47.812037 47.240234 47.828125 C 48.968182 47.844215 51.1053 49.107887 53.375 52.886719 A 1.0001 1.0001 0 0 0 55.027344 52.978516 C 57.377625 49.902588 60.166084 49.21106 62.878906 49.675781 C 65.591729 50.140502 68.190338 51.915401 69.617188 53.871094 C 70.881537 55.605003 71.354958 59.783548 71.298828 63.429688 C 71.249758 66.616928 70.945914 68.693144 70.859375 69.34375 L 52.962891 69.457031 L 53.013672 63.5 A 1.0001 1.0001 0 0 0 52.023438 62.492188 L 41.392578 62.384766 L 41.244141 58.626953 A 1.0001 1.0001 0 0 0 40.300781 57.667969 L 29.34375 57.050781 C 29.233139 56.244873 29.052296 54.345432 29.814453 50.833984 C 30.222735 48.951854 31.73305 47.530187 33.71875 47.287109 C 33.966963 47.256725 34.225053 47.243687 34.490234 47.251953 z"/></svg>