<svg xmlns="http://www.w3.org/2000/svg"  viewBox="0 0 100 100" width="24px" height="24px"><path d="M 30.931641 9.0488281 C 24.414701 9.0845795 19.468181 11.448337 16.058594 15.025391 C 12.421701 18.840914 10.481546 23.871895 9.4257812 28.808594 C 7.3142523 38.681992 8.7207031 48.494141 8.7207031 48.494141 A 2.0006262 2.0006262 0 0 0 10.669922 50.216797 A 1.0001 1.0001 0 0 0 11.107422 50.251953 L 19.857422 49.074219 A 1.0001 1.0001 0 0 0 20.714844 47.949219 L 20.074219 43.205078 A 1.0001 1.0001 0 0 0 19.519531 42.439453 C 18.771298 42.075585 18.249596 41.713651 17.960938 41.421875 C 17.672279 41.130099 17.628759 40.962497 17.626953 40.839844 C 17.625153 40.717191 17.673923 40.517421 17.964844 40.185547 C 18.255767 39.853673 18.775316 39.436541 19.517578 38.998047 A 1.0001 1.0001 0 0 0 20.005859 38.201172 C 20.005859 38.201172 20.304301 33.697325 21.953125 29.195312 C 22.777537 26.944308 23.938083 24.716715 25.5 23.076172 C 27.061917 21.435629 28.975762 20.36562 31.529297 20.279297 C 34.468798 20.179907 36.354147 21.23163 37.765625 22.929688 C 39.177103 24.627744 40.045676 27.041974 40.523438 29.525391 C 41.187511 32.977267 41.102606 36.393535 40.992188 38.220703 C 40.677396 38.221442 40.37082 38.212396 40.054688 38.214844 A 2.0002 2.0002 0 0 0 40.041016 38.214844 C 37.878708 38.246664 35.815617 39.139654 34.314453 40.699219 C 32.813268 42.256745 31.995231 44.350273 32.042969 46.511719 C 32.105339 57.475846 30.786957 68.825947 31.335938 79.853516 A 2.0002 2.0002 0 0 0 31.337891 79.896484 C 31.653085 84.305332 35.250219 87.810238 39.666016 88.011719 C 55.276752 88.729869 69.927608 88.85417 83.214844 88.150391 A 2.0002 2.0002 0 0 0 83.228516 88.150391 C 87.754182 87.882096 91.267271 83.990567 91.072266 79.460938 A 2.0002 2.0002 0 0 0 91.070312 79.423828 C 90.670998 72.987733 90.92793 73.391345 91.259766 70.671875 C 91.591546 67.95286 91.927766 62.744704 91.628906 46.097656 C 91.598696 44.078977 90.738864 42.159639 89.251953 40.794922 C 87.764113 39.429351 85.776191 38.738089 83.763672 38.880859 L 83.769531 38.878906 C 72.579707 39.642772 62.471477 38.895199 52.085938 38.466797 C 52.234696 36.270544 52.39715 30.780958 50.867188 25.013672 C 49.885147 21.311811 48.18943 17.475813 45.205078 14.449219 C 42.220726 11.422624 37.921583 9.3079649 32.255859 9.0722656 C 31.807426 9.0536179 31.366103 9.0464447 30.931641 9.0488281 z M 30.947266 13.044922 C 31.319601 13.044271 31.70037 13.052163 32.089844 13.068359 C 36.88062 13.26766 40.036555 14.904095 42.357422 17.257812 C 44.678289 19.611531 46.136666 22.786627 47 26.041016 C 48.428913 31.427389 48.203687 36.621013 48.080078 38.330078 C 46.400138 38.279517 44.703216 38.25056 42.994141 38.236328 C 43.110603 36.284903 43.187036 32.788792 42.486328 29.146484 C 42.256881 27.953809 41.939476 26.755386 41.511719 25.605469 L 44.488281 24.787109 A 1.0001 1.0001 0 0 0 44.224609 22.818359 A 1.0001 1.0001 0 0 0 43.957031 22.857422 L 40.6875 23.757812 C 40.432208 23.274076 40.153491 22.804052 39.839844 22.359375 L 41.748047 19.605469 A 1.0001 1.0001 0 0 0 40.923828 18.023438 A 1.0001 1.0001 0 0 0 40.103516 18.466797 L 38.490234 20.796875 C 37.939886 20.279337 37.318375 19.829256 36.634766 19.453125 L 38.390625 16.941406 A 1.0001 1.0001 0 0 0 37.574219 15.355469 A 1.0001 1.0001 0 0 0 36.751953 15.794922 L 34.742188 18.673828 C 34.129117 18.497953 33.481892 18.371301 32.791016 18.314453 L 33.414062 15.355469 A 1.0001 1.0001 0 0 0 32.431641 14.134766 A 1.0001 1.0001 0 0 0 31.457031 14.943359 L 30.742188 18.341797 C 27.982443 18.620501 25.745662 19.919117 24.052734 21.697266 C 22.213964 23.628598 20.959057 26.091819 20.074219 28.507812 C 18.44124 32.96656 18.114989 36.9659 18.066406 37.615234 C 17.450813 38.017432 16.856813 38.415589 16.460938 38.867188 C 15.958174 39.44072 15.616009 40.125669 15.626953 40.869141 C 15.637893 41.612613 16.008909 42.292245 16.539062 42.828125 C 16.944354 43.237794 17.543794 43.568093 18.150391 43.904297 L 18.597656 47.224609 L 12.693359 48.019531 A 2.0006262 2.0006262 0 0 0 12.683594 47.941406 C 12.683594 47.941406 11.41767 38.623383 13.337891 29.644531 C 14.298001 25.155105 16.050674 20.830164 18.953125 17.785156 C 21.674173 14.930461 25.36223 13.05469 30.947266 13.044922 z M 40.085938 42.214844 L 40.089844 42.214844 C 41.455994 42.2043 42.805689 42.226008 44.15625 42.246094 L 46.136719 44.822266 A 1.0001 1.0001 0 1 0 47.722656 43.603516 L 46.716797 42.292969 C 47.743349 42.319914 48.768505 42.351037 49.791016 42.388672 L 52.380859 47.548828 A 1.0001 1.0001 0 1 0 54.167969 46.652344 L 52.074219 42.476562 C 62.343083 42.911288 72.565066 43.654593 84.042969 42.871094 A 2.0002 2.0002 0 0 0 84.046875 42.869141 C 84.966356 42.803911 85.868716 43.119759 86.546875 43.742188 C 87.225965 44.36547 87.617071 45.23493 87.630859 46.15625 A 2.0002 2.0002 0 0 0 87.630859 46.162109 C 87.678596 48.819835 87.685468 50.733822 87.703125 52.833984 L 85.910156 52.130859 A 1.0001 1.0001 0 0 0 85.519531 52.056641 A 1.0001 1.0001 0 0 0 85.181641 53.992188 L 87.726562 54.990234 C 87.735713 56.927484 87.728328 58.478002 87.714844 59.955078 L 84.921875 60.111328 A 1.0001 1.0001 0 1 0 85.033203 62.107422 L 87.697266 61.958984 C 87.669086 63.626701 87.628901 64.964609 87.578125 66.064453 L 81.982422 70.289062 A 1.0001 1.0001 0 1 0 83.185547 71.886719 L 87.423828 68.6875 C 87.378683 69.21306 87.334522 69.814949 87.289062 70.1875 C 87.237869 70.607045 87.189383 70.93599 87.140625 71.28125 L 81.357422 74.863281 A 1.0002793 1.0002793 0 1 0 82.410156 76.564453 L 86.916016 73.773438 C 86.869067 74.995642 86.89204 76.652722 87.076172 79.632812 C 87.178988 82.021057 85.38807 84.008427 83.003906 84.15625 C 83.002706 84.156316 83.0012 84.156184 83 84.15625 C 80.35604 84.296258 77.639022 84.3952 74.882812 84.470703 L 75.490234 83.210938 A 1.0001 1.0001 0 0 0 74.529297 81.765625 A 1.0001 1.0001 0 0 0 73.6875 82.341797 L 72.632812 84.53125 C 71.48541 84.555382 70.319557 84.570193 69.154297 84.583984 L 70.195312 81.533203 A 1.0001 1.0001 0 0 0 69.267578 80.197266 A 1.0001 1.0001 0 0 0 68.302734 80.886719 L 67.033203 84.605469 C 66.35969 84.609852 65.675237 84.608268 64.996094 84.609375 L 65.486328 82.287109 A 1.0001 1.0001 0 0 0 64.503906 81.066406 A 1.0001 1.0001 0 0 0 63.529297 81.873047 L 62.951172 84.613281 C 60.380683 84.605271 57.766457 84.571436 55.121094 84.519531 L 55.560547 81.914062 A 1.0001 1.0001 0 0 0 54.529297 80.734375 A 1.0001 1.0001 0 0 0 53.587891 81.580078 L 53.099609 84.474609 C 52.174635 84.452855 51.249854 84.431061 50.316406 84.404297 L 51.126953 82.363281 A 1.0001 1.0001 0 0 0 50.164062 80.982422 A 1.0001 1.0001 0 0 0 49.267578 81.625 L 48.191406 84.337891 C 46.8791 84.295333 45.562412 84.24919 44.234375 84.197266 L 45.494141 81.603516 A 1.0001 1.0001 0 0 0 44.636719 80.154297 A 1.0001 1.0001 0 0 0 43.695312 80.730469 L 42.056641 84.107422 C 41.319539 84.076037 40.591269 84.049744 39.849609 84.015625 A 2.0002 2.0002 0 0 0 39.847656 84.015625 C 39.737676 84.010607 39.63515 83.982891 39.527344 83.970703 L 40.6875 82.119141 A 1.0001 1.0001 0 0 0 39.890625 80.576172 A 1.0001 1.0001 0 0 0 38.992188 81.056641 L 37.582031 83.310547 C 37.067481 82.995468 36.61647 82.592283 36.257812 82.109375 L 38.142578 79.728516 A 1.0001 1.0001 0 0 0 37.322266 78.097656 A 1.0001 1.0001 0 0 0 36.574219 78.486328 L 35.390625 79.982422 C 35.372398 79.861209 35.339223 79.745339 35.330078 79.621094 C 35.029331 73.535988 35.329512 67.194894 35.628906 60.763672 L 38.121094 62.835938 A 1.0001 1.0001 0 1 0 39.398438 61.298828 L 35.738281 58.255859 C 35.773619 57.463469 35.81207 56.677439 35.84375 55.882812 L 38.537109 58.160156 A 1.0001 1.0001 0 1 0 39.828125 56.632812 L 35.933594 53.337891 C 35.967962 52.255348 35.995429 51.172367 36.013672 50.087891 L 39.345703 52.128906 A 1.0001 1.0001 0 1 0 40.390625 50.423828 L 36.033203 47.751953 C 36.034468 47.320277 36.045527 46.888715 36.042969 46.457031 A 2.0002 2.0002 0 0 0 36.042969 46.423828 C 36.018719 45.325833 36.433239 44.264958 37.195312 43.474609 A 2.0002 2.0002 0 0 0 37.195312 43.472656 C 37.952903 42.685594 38.991415 42.234663 40.085938 42.214844 z M 68.308594 46.480469 A 1 1 0 0 0 68.308594 48.480469 A 1 1 0 0 0 68.308594 46.480469 z M 76.501953 46.480469 A 1 1 0 0 0 76.501953 48.480469 A 1 1 0 0 0 76.501953 46.480469 z M 73.308594 50.884766 A 1 1 0 0 0 73.308594 52.884766 A 1 1 0 0 0 73.308594 50.884766 z M 63.041016 53.060547 C 60.684994 53.114617 59.114619 53.64988 58.193359 54.697266 C 57.2721 55.744652 57.249425 57.123708 57.537109 58.255859 C 58.014775 60.135663 59.092658 61.521102 59.505859 62.027344 L 56.544922 74.806641 A 1.0001 1.0001 0 0 0 57.492188 76.03125 L 69.089844 76.351562 A 1.0001 1.0001 0 0 0 70.09375 75.138672 L 67.115234 61.458984 C 67.345147 61.004219 68.0454 59.551726 68.158203 57.710938 C 68.224213 56.633803 68.042403 55.41299 67.195312 54.466797 C 66.348223 53.520604 64.946931 53.016993 63.041016 53.060547 z M 63.085938 55.060547 C 64.637022 55.025097 65.340544 55.393599 65.705078 55.800781 C 66.069613 56.207963 66.20715 56.822978 66.160156 57.589844 C 66.066166 59.123576 65.183594 60.894531 65.183594 60.894531 A 1.0001 1.0001 0 0 0 65.091797 61.570312 L 67.869141 74.316406 L 65.572266 74.253906 L 65.933594 71.921875 A 1.0001 1.0001 0 0 0 64.886719 70.755859 A 1.0001 1.0001 0 0 0 63.957031 71.615234 L 63.556641 74.197266 L 61.765625 74.148438 L 62.953125 70.402344 A 1.0001 1.0001 0 0 0 61.994141 69.087891 A 1.0001 1.0001 0 0 0 61.044922 69.798828 L 59.685547 74.091797 L 58.769531 74.066406 L 61.558594 62.033203 A 1.0001 1.0001 0 0 0 61.347656 61.162109 C 61.347656 61.162109 59.872445 59.32162 59.476562 57.763672 C 59.278622 56.984698 59.322353 56.441598 59.695312 56.017578 C 60.06812 55.593732 61.02122 55.108314 63.085938 55.060547 z"/></svg>