<svg xmlns="http://www.w3.org/2000/svg"  viewBox="0 0 100 100" width="24px" height="24px"><path d="M 48.134766 12.957031 C 28.026029 13.056036 14.031219 30.333409 13.001953 49.894531 C 11.937592 70.117399 29.628797 85.984152 49.900391 86.998047 C 71.075979 88.056826 85.949844 70.021328 86.998047 50.105469 C 88.071092 29.611367 70.347378 14.014866 50.099609 13.001953 C 49.438446 12.968897 48.783435 12.953838 48.134766 12.957031 z M 48.150391 16.957031 C 48.72786 16.954469 49.311491 16.968603 49.900391 16.998047 C 50.110313 17.008548 50.318129 17.029077 50.527344 17.042969 L 49.042969 21.027344 A 1.0005662 1.0005662 0 1 0 50.917969 21.726562 L 52.589844 17.236328 C 68.173065 19.115935 81.282209 30.348582 82.873047 45.285156 L 77.566406 47.84375 A 1.0001 1.0001 0 1 0 78.433594 49.644531 L 83.017578 47.4375 C 83.042852 48.248145 83.045364 49.065418 83.001953 49.894531 C 82.516279 59.122337 78.855688 67.791686 72.890625 73.951172 L 69.574219 70.572266 A 1.0001 1.0001 0 0 0 68.859375 70.263672 A 1.0001 1.0001 0 0 0 68.146484 71.972656 L 71.453125 75.34375 C 70.664489 76.061944 69.841177 76.737904 68.984375 77.369141 L 65.560547 70.984375 A 1.0001 1.0001 0 0 0 64.666016 70.443359 A 1.0001 1.0001 0 0 0 63.798828 71.927734 L 67.328125 78.513672 C 62.446297 81.625668 56.615439 83.327745 50.099609 83.001953 C 46.871907 82.840518 43.727937 82.257718 40.738281 81.324219 L 44.804688 75.798828 A 1.0001 1.0001 0 0 0 44.917969 75.601562 C 44.917969 75.601562 45.902504 72.493087 47.484375 67.091797 C 49.353246 69.027745 51.973352 70.005206 54.705078 70.154297 C 58.11681 70.340501 61.719096 69.379464 64.53125 67.613281 C 70.88942 63.62247 73.697359 56.19022 73.839844 46.132812 C 73.923764 40.301499 71.555389 35.698124 67.794922 32.513672 C 64.034454 29.32922 58.934119 27.517501 53.455078 26.943359 C 52.084785 26.799768 50.71351 26.737216 49.357422 26.759766 C 45.289159 26.827416 41.357251 27.662796 38.005859 29.392578 C 33.537337 31.698955 30.121564 35.66389 29.025391 41.314453 C 27.474975 49.304225 29.528602 54.77252 32.025391 58.15625 C 34.522179 61.53998 37.494141 62.908203 37.494141 62.908203 A 1.0001 1.0001 0 0 0 38.910156 62 L 38.910156 57 A 1.0001 1.0001 0 0 0 38.71875 56.412109 C 38.162782 55.647893 37.404801 53.775526 36.982422 51.533203 C 36.560043 49.290881 36.429239 46.647202 36.871094 44.175781 C 37.312949 41.70436 38.312002 39.427674 40.117188 37.767578 C 41.922373 36.107482 44.563877 35 48.539062 35 C 51.213752 35 55.145388 35.242067 58.404297 36.634766 C 61.663206 38.027464 64.236543 40.393199 64.683594 45.09375 C 65.965479 58.689506 58.340022 63.86611 53.525391 63.015625 L 53.523438 63.015625 C 50.472772 62.472944 49.67829 59.250863 49.599609 58.916016 C 49.810901 58.339749 52.511636 50.935903 52.994141 46.220703 C 53.267632 43.54747 51.801689 41.452709 49.759766 40.765625 C 47.717842 40.078541 45.2015 40.681875 43.285156 42.642578 C 41.272114 44.702213 41.056905 47.692173 41.238281 50.078125 C 41.404516 52.264905 41.891163 53.740598 41.980469 54.025391 L 37.029297 73.755859 A 1.0001 1.0001 0 0 0 37.007812 74.125 L 37.775391 80.261719 C 35.598752 79.376177 33.526683 78.29899 31.59375 77.044922 L 34.630859 73.412109 A 1.0001 1.0001 0 0 0 33.853516 71.759766 A 1.0001 1.0001 0 0 0 33.097656 72.128906 L 29.9375 75.90625 C 29.28743 75.430722 28.6608 74.929612 28.048828 74.414062 L 32.365234 69.392578 A 1.0001 1.0001 0 0 0 31.609375 67.730469 A 1.0001 1.0001 0 0 0 30.847656 68.089844 L 26.554688 73.083984 C 25.58853 72.168713 24.683855 71.200516 23.841797 70.185547 L 27.259766 67.558594 A 1.0001 1.0001 0 0 0 26.662109 65.757812 A 1.0001 1.0001 0 0 0 26.041016 65.972656 L 22.613281 68.607422 C 18.784217 63.354161 16.633167 57.001069 16.996094 50.105469 C 17.125928 47.637978 17.480156 45.222494 18.03125 42.886719 L 23.285156 44.306641 A 1.0003979 1.0003979 0 1 0 23.806641 42.375 L 18.541016 40.953125 C 18.888757 39.75367 19.289351 38.579571 19.744141 37.435547 L 22.947266 38.75 A 1.0003201 1.0003201 0 1 0 23.705078 36.898438 L 20.527344 35.595703 C 21.316266 33.882573 22.233046 32.252105 23.257812 30.712891 L 28.636719 32.861328 A 1.0001 1.0001 0 1 0 29.376953 31.003906 L 24.447266 29.035156 C 25.12573 28.1381 25.841933 27.277117 26.601562 26.460938 L 29.925781 28.759766 A 1.0001324 1.0001324 0 1 0 31.064453 27.115234 L 28.033203 25.019531 C 32.800425 20.513917 38.911347 17.581346 45.978516 17.052734 L 45.087891 21.783203 A 1.0001 1.0001 0 1 0 47.052734 22.154297 L 48.033203 16.960938 C 48.072613 16.960615 48.110926 16.957206 48.150391 16.957031 z M 49.392578 28.761719 C 50.66348 28.739388 51.953887 28.796232 53.246094 28.931641 C 58.417053 29.473499 63.139921 31.193968 66.501953 34.041016 C 69.863986 36.888064 71.915925 40.816829 71.839844 46.103516 C 71.702329 55.810109 69.11058 62.378733 63.46875 65.919922 C 61.040904 67.444739 57.763268 68.317296 54.8125 68.15625 C 51.861732 67.995204 49.317037 66.867586 47.933594 64.496094 A 1.0001 1.0001 0 0 0 46.109375 64.724609 C 43.521957 73.781564 43.111879 74.721485 43.105469 74.736328 L 39.681641 79.386719 L 39.015625 74.0625 L 43.970703 54.320312 A 1.0001 1.0001 0 0 0 43.951172 53.767578 C 43.951172 53.767578 43.393546 52.045329 43.232422 49.925781 C 43.071298 47.806233 43.357886 45.427429 44.714844 44.039062 C 46.1685 42.551761 47.888017 42.247193 49.121094 42.662109 C 50.35417 43.077025 51.202368 44.094858 51.005859 46.015625 C 50.567286 50.301515 47.599609 58.585938 47.599609 58.585938 A 1.0001 1.0001 0 0 0 47.560547 59.130859 C 47.560547 59.130859 48.587427 64.170236 53.175781 64.984375 C 59.661253 66.132246 68.033732 59.308762 66.675781 44.90625 C 66.162829 39.512801 62.897497 36.378724 59.191406 34.794922 C 55.485316 33.21112 51.324374 33 48.539062 33 C 44.183749 33 40.968267 34.267518 38.763672 36.294922 C 36.559076 38.322326 35.399114 41.04564 34.902344 43.824219 C 34.405574 46.602798 34.556988 49.459119 35.017578 51.904297 C 35.44164 54.155552 36.108481 55.960986 36.910156 57.208984 L 36.910156 60.214844 C 35.994223 59.567192 34.811708 58.563781 33.634766 56.96875 C 31.428304 53.97848 29.531697 49.201542 30.988281 41.695312 C 31.972108 36.623877 34.903351 33.245045 38.923828 31.169922 C 41.939187 29.61358 45.579874 28.828711 49.392578 28.761719 z M 75.011719 35.322266 C 74.629219 35.255844 74.225 35.417625 74 35.765625 C 73.7 36.229625 73.840781 36.849438 74.300781 37.148438 C 74.760781 37.446438 75.379688 37.311656 75.679688 36.847656 C 75.979687 36.383656 75.850859 35.765797 75.380859 35.466797 C 75.265859 35.392047 75.139219 35.344406 75.011719 35.322266 z M 26.041016 52.089844 C 25.657156 52.023422 25.251594 52.187156 25.027344 52.535156 C 24.729344 52.999156 24.864125 53.618969 25.328125 53.917969 C 25.792125 54.216969 26.411938 54.081187 26.710938 53.617188 C 27.009938 53.153187 26.874156 52.533375 26.410156 52.234375 C 26.294156 52.159625 26.168969 52.111984 26.041016 52.089844 z M 27.628906 58.943359 C 27.245047 58.876937 26.841437 59.040672 26.617188 59.388672 C 26.318187 59.852672 26.453969 60.470531 26.917969 60.769531 C 27.381969 61.067531 27.999828 60.934703 28.298828 60.470703 C 28.597828 60.006703 28.462047 59.386891 27.998047 59.087891 C 27.882047 59.013141 27.756859 58.9655 27.628906 58.943359 z"/></svg>