<svg xmlns="http://www.w3.org/2000/svg"  viewBox="0 0 100 100" width="24px" height="24px"><path d="M 74.013672 18.009766 A 2.0002 2.0002 0 0 0 73.736328 18.027344 C 66.85693 18.977361 59.309468 19.842231 56.029297 19.601562 A 2.0002 2.0002 0 0 0 54.214844 22.699219 C 54.214844 22.699219 56.337084 26.174633 56.275391 29.134766 C 56.244541 30.614832 55.84973 31.844894 54.378906 32.996094 C 52.908082 34.147293 50.119468 35.202775 45.261719 35.408203 C 40.814789 35.596072 38.21027 34.776433 36.744141 33.740234 C 35.278011 32.704035 34.724008 31.418946 34.525391 29.871094 C 34.128156 26.775389 35.716797 23.091797 35.716797 23.091797 A 2.0002 2.0002 0 0 0 33.703125 20.255859 C 27.224521 20.915051 21.282757 21.042306 15.703125 20.367188 A 2.0002 2.0002 0 0 0 13.462891 22.361328 C 13.462891 22.361328 13.570479 48.602576 14.478516 62.523438 C 14.844271 68.133083 16.297415 73.496638 19.324219 77.724609 C 22.351023 81.952581 27.039998 84.94266 33.25 85.587891 C 40.372229 86.32831 50.954729 86.356671 60.013672 86.015625 C 64.543143 85.845102 68.67709 85.580022 71.806641 85.253906 C 73.371416 85.090848 74.679318 84.915811 75.708984 84.712891 C 76.223817 84.611431 76.665312 84.506938 77.083984 84.365234 C 77.502657 84.223531 77.909828 84.221293 78.542969 83.4375 A 2.0002 2.0002 0 0 0 78.988281 82.144531 L 78.652344 63.931641 C 80.404009 64.529169 82.731415 65.05863 85.191406 64.818359 C 87.705249 64.572829 90.450468 63.334552 92.253906 60.595703 C 94.057345 57.856855 94.957625 53.861762 94.724609 48.0625 C 94.546009 43.616722 93.227041 40.458917 91.089844 38.511719 C 88.952647 36.56452 86.225539 36.004866 83.779297 36.050781 C 81.249444 36.098271 78.930234 36.725239 77.205078 37.339844 L 76.003906 19.871094 A 2.0002 2.0002 0 0 0 74.013672 18.009766 z M 72.158203 22.253906 L 73.125 36.322266 L 69.78125 38.201172 A 1.0004179 1.0004179 0 1 0 70.761719 39.945312 L 73.277344 38.529297 L 73.367188 39.820312 L 70.84375 42.373047 A 1.000603 1.000603 0 1 0 72.267578 43.779297 L 74.181641 41.841797 A 2.0002 2.0002 0 0 0 76.3125 42.041016 C 76.3125 42.041016 80.250203 40.116498 83.855469 40.048828 C 85.658102 40.014988 87.22151 40.400011 88.394531 41.46875 C 89.567553 42.537489 90.577616 44.466434 90.728516 48.222656 C 90.9415 53.523394 90.049421 56.66927 88.912109 58.396484 C 87.774798 60.123698 86.432891 60.678671 84.802734 60.837891 C 81.54242 61.15633 77.570313 59.115234 77.570312 59.115234 A 2.0002 2.0002 0 0 0 75.361328 59.291016 L 71.958984 57.308594 A 1.0001 1.0001 0 0 0 71.484375 57.166016 A 1.0001 1.0001 0 0 0 70.951172 59.037109 L 74.601562 61.164062 L 74.636719 63.013672 L 69.941406 61.240234 A 1.0001 1.0001 0 0 0 69.550781 61.171875 A 1.0001 1.0001 0 0 0 69.234375 63.111328 L 74.675781 65.166016 L 74.962891 80.783203 C 74.950211 80.785703 74.948417 80.786462 74.935547 80.789062 C 74.114521 80.950866 72.886818 81.119683 71.392578 81.275391 C 70.671243 81.350557 69.881172 81.423345 69.042969 81.492188 L 67.796875 78.15625 A 1.0001 1.0001 0 0 0 66.882812 77.494141 A 1.0001 1.0001 0 0 0 65.923828 78.857422 L 66.964844 81.644531 C 66.286368 81.691226 65.537363 81.727476 64.8125 81.769531 L 63.220703 78.501953 A 1.0001 1.0001 0 0 0 62.347656 77.927734 A 1.0001 1.0001 0 0 0 61.423828 79.378906 L 62.642578 81.878906 C 61.705633 81.924539 60.84533 81.980606 59.863281 82.017578 C 57.414969 82.10974 54.84914 82.1642 52.269531 82.193359 L 52.785156 80.580078 A 1.0001 1.0001 0 0 0 51.830078 79.261719 A 1.0001 1.0001 0 0 0 50.878906 79.972656 L 50.169922 82.197266 C 49.457451 82.200037 48.749822 82.202043 48.042969 82.199219 L 48.851562 78.794922 A 1.0001 1.0001 0 0 0 47.900391 77.550781 A 1.0001 1.0001 0 0 0 46.90625 78.332031 L 45.984375 82.201172 C 44.696582 82.18553 43.438785 82.159723 42.208984 82.123047 L 42.226562 80.199219 A 1.0001 1.0001 0 0 0 41.222656 79.173828 A 1.0001 1.0001 0 0 0 40.226562 80.179688 L 40.208984 82.048828 C 39.185214 82.006488 38.203019 81.954234 37.255859 81.894531 L 37.378906 80.339844 A 1.0001 1.0001 0 0 0 36.347656 79.246094 A 1.0001 1.0001 0 0 0 35.386719 80.179688 L 35.261719 81.748047 C 34.722001 81.703214 34.161712 81.661313 33.662109 81.609375 C 33.438622 81.586154 33.236628 81.541287 33.019531 81.511719 L 33.492188 79.886719 A 1.0001 1.0001 0 0 0 32.503906 78.595703 A 1.0001 1.0001 0 0 0 31.572266 79.328125 L 31.044922 81.134766 C 29.833403 80.83354 28.73103 80.422402 27.730469 79.90625 L 29.105469 77.701172 A 1.0001 1.0001 0 0 0 28.306641 76.160156 A 1.0001 1.0001 0 0 0 27.408203 76.642578 L 26.017578 78.871094 C 25.315254 78.367657 24.673134 77.799676 24.078125 77.181641 L 25.767578 76.082031 A 1.0001 1.0001 0 0 0 25.214844 74.236328 A 1.0001 1.0001 0 0 0 24.677734 74.40625 L 22.771484 75.644531 C 22.708341 75.559642 22.637999 75.482847 22.576172 75.396484 C 22.250293 74.941283 21.94689 74.460499 21.660156 73.962891 L 23.630859 72.382812 A 1.0001 1.0001 0 0 0 22.996094 70.59375 A 1.0001 1.0001 0 0 0 22.380859 70.822266 L 20.744141 72.134766 C 19.459893 69.252925 18.706005 65.872533 18.470703 62.263672 C 18.348056 60.383404 18.244629 58.267143 18.150391 56.070312 L 20.105469 55.921875 A 1.0001 1.0001 0 0 0 20.023438 53.923828 A 1.0001 1.0001 0 0 0 19.953125 53.927734 L 18.072266 54.072266 C 18.059561 53.74105 18.045364 53.418595 18.033203 53.083984 L 22.527344 52.056641 A 1.0001 1.0001 0 0 0 22.349609 50.078125 A 1.0001 1.0001 0 0 0 22.082031 50.105469 L 17.958984 51.048828 C 17.940528 50.483176 17.933076 49.927061 17.916016 49.357422 L 21.671875 47.845703 A 1.0001 1.0001 0 0 0 21.285156 45.912109 A 1.0001 1.0001 0 0 0 20.925781 45.990234 L 17.863281 47.222656 C 17.584766 36.882624 17.498826 26.62135 17.486328 24.455078 C 21.830338 24.824274 26.343608 24.779259 31.044922 24.417969 C 30.617555 26.049084 30.273025 28.153429 30.558594 30.378906 C 30.699871 31.479901 31.0337 32.625287 31.591797 33.712891 L 28.597656 36.498047 A 1.0001 1.0001 0 1 0 29.958984 37.962891 L 32.707031 35.404297 C 33.064897 35.833396 33.479022 36.235582 33.939453 36.611328 L 32.333984 38.220703 A 1.0001 1.0001 0 1 0 33.75 39.632812 L 35.646484 37.734375 C 37.884986 38.907983 40.868792 39.503815 44.767578 39.414062 L 45.919922 43.017578 A 1.0009384 1.0009384 0 1 0 47.826172 42.40625 L 46.835938 39.3125 C 47.400457 39.268758 47.94152 39.212433 48.464844 39.146484 L 50.529297 43.693359 A 1.0001 1.0001 0 1 0 52.349609 42.865234 L 50.511719 38.818359 C 52.421348 38.429 54.005573 37.856417 55.324219 37.126953 L 58.037109 39.658203 A 1.0001 1.0001 0 1 0 59.400391 38.195312 L 57.029297 35.982422 C 57.383122 35.689674 57.700497 35.379729 57.990234 35.056641 L 61.011719 36.521484 A 1.0002019 1.0002019 0 1 0 61.882812 34.720703 L 59.162109 33.402344 C 59.901904 32.043486 60.246979 30.581956 60.275391 29.21875 C 60.321321 27.014919 59.720062 25.014613 59.078125 23.458984 C 62.815972 23.356996 67.315516 22.90918 72.158203 22.253906 z M 29.294922 55.482422 C 29.140062 55.509453 28.987906 55.567703 28.847656 55.658203 C 28.285656 56.020203 28.124328 56.769078 28.486328 57.330078 C 28.848328 57.892078 29.597203 58.053406 30.158203 57.691406 C 30.719203 57.329406 30.881531 56.581531 30.519531 56.019531 C 30.248031 55.598031 29.7595 55.401328 29.294922 55.482422 z M 37.738281 55.806641 C 37.583422 55.833672 37.433219 55.891922 37.292969 55.982422 C 36.730969 56.344422 36.569641 57.093297 36.931641 57.654297 C 37.293641 58.216297 38.042516 58.377625 38.603516 58.015625 C 39.164516 57.653625 39.325844 56.90475 38.964844 56.34375 C 38.693344 55.92225 38.202859 55.725547 37.738281 55.806641 z M 33.398438 60.611328 C 33.243578 60.638359 33.091422 60.694656 32.951172 60.785156 C 32.390172 61.147156 32.229797 61.897984 32.591797 62.458984 C 32.953797 63.019984 33.702672 63.180359 34.263672 62.818359 C 34.824672 62.456359 34.986047 61.706484 34.623047 61.146484 C 34.351547 60.724984 33.863016 60.530234 33.398438 60.611328 z"/></svg>