<svg xmlns="http://www.w3.org/2000/svg"  viewBox="0 0 100 100" width="24px" height="24px"><path d="M 79.458984 7 C 75.626897 7 72.497545 10.126152 72.492188 13.957031 C 71.113759 14.149885 68.088369 14.436911 64.783203 13.828125 C 63.85753 13.657574 63.617996 13.366646 63.349609 12.845703 C 63.081223 12.32476 62.932199 11.512226 62.625 10.619141 C 62.317801 9.7260548 61.73288 8.6888489 60.564453 8.1347656 C 59.98024 7.857724 59.298259 7.6983036 58.474609 7.6582031 C 57.65096 7.6181031 56.685506 7.6965581 55.537109 7.8984375 C 53.041521 8.337144 51.285028 9.8969788 50.212891 11.826172 C 49.140753 13.755365 48.663596 16.053637 48.462891 18.263672 C 48.234503 20.778521 48.375724 23.109244 48.539062 24.736328 C 39.812768 25.542285 31.698304 27.807232 24.984375 31.333984 C 24.862621 31.255266 22.749944 29.905518 19.785156 29.228516 C 19.021933 29.054235 18.185041 28.927108 17.302734 28.880859 C 14.656261 28.742136 11.600551 29.335587 8.8925781 31.591797 C 5.1284296 34.727764 4.8832259 39.448112 5.4960938 42.955078 C 6.1089614 46.462044 7.5566406 49.208984 7.5566406 49.208984 A 2.0002 2.0002 0 0 0 8.2050781 49.964844 C 7.6348997 51.988598 7.3300781 54.105973 7.3300781 56.304688 C 7.3300781 74.125281 26.465454 89.066357 49.439453 87.941406 C 74.097883 86.733274 89.430754 73.81805 91.339844 56.525391 L 91.339844 56.523438 C 91.458033 55.451916 91.483285 54.380225 91.423828 53.3125 C 92.188464 52.291753 93.67144 50.182828 94.888672 47.601562 C 95.740491 45.795194 96.474215 43.759232 96.667969 41.621094 C 96.861722 39.482956 96.455009 37.149949 94.925781 35.259766 A 2.0002 2.0002 0 0 0 94.923828 35.259766 C 93.500728 33.501133 91.624661 32.529775 89.802734 32.195312 C 88.891771 32.028081 87.998182 32.001021 87.140625 32.066406 C 86.283068 32.131786 85.46069 32.288897 84.697266 32.488281 C 82.94139 32.946864 81.4935 33.633944 80.523438 34.15625 C 80.273007 33.949542 80.028633 33.738637 79.771484 33.537109 C 72.312753 27.69169 61.943619 23.976022 50.535156 24.591797 C 50.379469 23.05356 50.23928 20.819577 50.455078 18.443359 C 50.640623 16.400269 51.099762 14.348416 51.960938 12.798828 C 52.822111 11.24924 53.997354 10.200934 55.884766 9.8691406 C 57.970972 9.5024004 59.123848 9.6639266 59.708984 9.9414062 C 60.29412 10.218886 60.50087 10.596367 60.732422 11.269531 C 60.963973 11.942696 61.100138 12.849099 61.570312 13.761719 C 62.040489 14.674338 62.992595 15.531961 64.419922 15.794922 C 68.019845 16.458005 71.269441 16.149576 72.78125 15.935547 C 73.635509 18.816751 76.30758 20.931641 79.458984 20.931641 C 83.294357 20.931641 86.425781 17.802167 86.425781 13.966797 C 86.425781 10.131427 83.294357 6.9999999 79.458984 7 z M 79.458984 9 C 82.213478 8.9999999 84.425781 11.212305 84.425781 13.966797 C 84.425781 16.721289 82.213478 18.931641 79.458984 18.931641 C 76.704491 18.931641 74.492188 16.721288 74.492188 13.966797 C 74.492188 11.212305 76.704491 9 79.458984 9 z M 53.546875 28.519531 C 56.034103 28.554134 58.451035 28.819301 60.779297 29.271484 L 58.443359 32.386719 A 1.0001 1.0001 0 1 0 60.042969 33.585938 L 62.923828 29.744141 C 64.483839 30.135549 65.990735 30.619115 67.447266 31.173828 L 64.527344 33.363281 A 1.0001 1.0001 0 1 0 65.726562 34.962891 L 69.595703 32.060547 C 70.745016 32.577398 71.854633 33.140311 72.917969 33.748047 L 70.154297 38.355469 A 1.0001 1.0001 0 1 0 71.869141 39.384766 L 74.628906 34.785156 C 75.351368 35.251143 76.042891 35.741905 76.714844 36.246094 L 74.769531 42.083984 A 1.0001 1.0001 0 1 0 76.666016 42.716797 L 78.382812 37.572266 C 79.952941 38.910236 81.338081 40.345668 82.529297 41.84375 L 80.707031 45.484375 A 1.0001165 1.0001165 0 1 0 82.496094 46.378906 L 83.857422 43.65625 C 85.780664 46.53806 86.978119 49.592309 87.332031 52.603516 A 2.0002 2.0002 0 0 0 87.402344 53.314453 C 87.470475 54.246249 87.464117 55.172602 87.363281 56.085938 C 85.702744 71.135371 72.920188 82.527766 50.037109 83.894531 L 51.322266 80.404297 A 1.0001 1.0001 0 0 0 50.326172 79.046875 A 1.0001 1.0001 0 0 0 49.445312 79.712891 L 47.873047 83.982422 C 46.396269 84.010389 44.940029 83.974902 43.513672 83.863281 L 44.873047 80.427734 A 1.0001 1.0001 0 0 0 43.912109 79.046875 A 1.0001 1.0001 0 0 0 43.013672 79.691406 L 41.445312 83.650391 C 40.056353 83.475292 38.699525 83.230338 37.373047 82.931641 L 37.832031 81.552734 A 1.0001 1.0001 0 0 0 36.894531 80.222656 A 1.0001 1.0001 0 0 0 35.933594 80.919922 L 35.425781 82.443359 C 33.684473 81.963021 32.008273 81.37932 30.40625 80.703125 L 31.927734 76.900391 A 1.0001 1.0001 0 0 0 30.970703 75.515625 A 1.0001 1.0001 0 0 0 30.072266 76.15625 L 28.582031 79.878906 C 26.974747 79.101841 25.451524 78.231845 24.027344 77.277344 L 25.669922 76.183594 A 1.0001 1.0001 0 0 0 25.09375 74.34375 A 1.0001 1.0001 0 0 0 24.560547 74.519531 L 22.285156 76.037109 C 21.038355 75.087214 19.878453 74.072213 18.818359 73 L 23.277344 70.324219 A 1.0001 1.0001 0 0 0 22.789062 68.458984 A 1.0001 1.0001 0 0 0 22.248047 68.609375 L 17.4375 71.496094 C 16.604151 70.531654 15.843638 69.531503 15.167969 68.498047 L 18.501953 66.832031 A 1.0001 1.0001 0 0 0 18.060547 64.929688 A 1.0001 1.0001 0 0 0 17.607422 65.042969 L 14.136719 66.777344 C 13.459311 65.542295 12.89422 64.271261 12.455078 62.972656 L 14.839844 62.177734 A 1.0001 1.0001 0 0 0 14.572266 60.226562 A 1.0001 1.0001 0 0 0 14.207031 60.28125 L 11.90625 61.048828 C 11.534191 59.491021 11.330078 57.905167 11.330078 56.304688 C 11.330078 48.859476 15.362264 42.543489 22.238281 37.675781 C 29.114299 32.808074 38.802244 29.558692 49.507812 28.660156 C 50.870583 28.545752 52.218129 28.501045 53.546875 28.519531 z M 16.179688 32.837891 C 17.114756 32.806778 18.029273 32.931327 18.894531 33.128906 C 19.655061 33.302571 20.302949 33.533307 20.884766 33.765625 C 20.563704 33.979855 20.239904 34.191117 19.927734 34.412109 C 15.758663 37.363501 12.393001 40.970548 10.189453 45.085938 C 9.9069349 44.265921 9.6216127 43.330335 9.4355469 42.265625 C 8.9459147 39.463841 9.1232735 36.607049 11.453125 34.666016 C 13.004324 33.373222 14.621239 32.889744 16.179688 32.837891 z M 88.28125 36.042969 C 88.556076 36.053573 88.822896 36.081694 89.080078 36.128906 C 90.108807 36.317756 90.979053 36.743024 91.814453 37.775391 C 92.577226 38.718207 92.813465 39.826591 92.683594 41.259766 C 92.553722 42.69294 91.997165 44.357604 91.271484 45.896484 C 90.970046 46.535716 90.643533 47.139282 90.316406 47.710938 C 89.042055 43.90659 86.748856 40.279963 83.685547 37.078125 C 84.295329 36.81394 84.96271 36.55428 85.708984 36.359375 C 86.567567 36.135138 87.456772 36.011157 88.28125 36.042969 z M 34.632812 43.755859 C 30.950222 43.755859 27.613795 46.599099 27.851562 50.595703 C 27.957151 52.375053 28.552701 54.089582 29.707031 55.369141 C 30.861362 56.648699 32.605584 57.435295 34.6875 57.318359 C 38.345452 57.112844 41.414062 54.270468 41.414062 50.537109 C 41.414062 48.479858 40.354355 46.768553 39.025391 45.607422 C 37.696426 44.446291 36.107245 43.755859 34.632812 43.755859 z M 65.228516 43.755859 C 63.386797 43.755859 61.851577 44.493525 60.765625 45.6875 C 59.679673 46.881475 58.994189 48.467009 58.484375 50.263672 C 57.934151 52.203038 58.798606 54.039893 60.148438 55.251953 C 61.498267 56.464013 63.335747 57.207599 65.169922 57.316406 C 67.235914 57.439353 69.23066 56.499031 70.587891 55 C 71.945122 53.500969 72.67025 51.337076 71.962891 49.154297 C 71.438729 47.535423 70.718728 46.177069 69.601562 45.212891 C 68.484398 44.248712 66.998569 43.755859 65.228516 43.755859 z M 34.632812 45.755859 C 35.410381 45.755859 36.709949 46.240412 37.708984 47.113281 C 38.70802 47.98615 39.414062 49.166361 39.414062 50.537109 C 39.414062 53.185751 37.290219 55.167829 34.576172 55.320312 C 33.026088 55.407373 31.972826 54.895489 31.191406 54.029297 C 30.409987 53.163105 29.931068 51.884166 29.847656 50.478516 C 29.677424 47.61712 31.933404 45.755859 34.632812 45.755859 z M 65.228516 45.755859 C 66.649462 45.755859 67.564587 46.096242 68.294922 46.726562 C 69.025257 47.356884 69.601708 48.352405 70.060547 49.769531 C 70.530187 51.218752 70.076487 52.585734 69.105469 53.658203 C 68.13445 54.730672 66.651072 55.401365 65.289062 55.320312 C 63.937238 55.240122 62.446794 54.627862 61.484375 53.763672 C 60.521956 52.899482 60.087427 51.94118 60.408203 50.810547 C 60.871389 49.17821 61.482296 47.872978 62.246094 47.033203 C 63.009892 46.193428 63.878234 45.755859 65.228516 45.755859 z M 55.111328 58.820312 C 54.783703 58.802687 54.447594 58.909531 54.183594 59.144531 C 53.655594 59.614531 53.609078 60.423266 54.080078 60.947266 C 54.551078 61.472266 55.362625 61.514922 55.890625 61.044922 C 56.418625 60.573922 56.465141 59.766188 55.994141 59.242188 C 55.758641 58.979687 55.438953 58.837938 55.111328 58.820312 z M 61.369141 62.853516 C 61.041516 62.835891 60.707359 62.942734 60.443359 63.177734 C 59.916359 63.647734 59.868844 64.454516 60.339844 64.978516 C 60.810844 65.502516 61.622391 65.546172 62.150391 65.076172 C 62.678391 64.606172 62.724906 63.799391 62.253906 63.275391 C 62.018406 63.012891 61.696766 62.871141 61.369141 62.853516 z M 54.578125 65.509766 C 54.2505 65.492016 53.916344 65.598984 53.652344 65.833984 C 53.124344 66.304984 53.077828 67.112719 53.548828 67.636719 C 54.019828 68.161719 54.829422 68.204375 55.357422 67.734375 C 55.885422 67.264375 55.932891 66.456641 55.462891 65.931641 C 55.227391 65.669641 54.90575 65.527516 54.578125 65.509766 z M 33.34375 68.458984 A 1.0001 1.0001 0 0 0 32.798828 70.298828 C 36.649337 72.865652 42.937442 73.998047 49.386719 73.998047 C 55.835995 73.998047 62.413155 72.842113 66.798828 70.335938 A 1.0001 1.0001 0 1 0 65.806641 68.599609 C 61.955314 70.800434 55.587942 71.998047 49.386719 71.998047 C 43.185495 71.998047 37.118695 70.774942 33.908203 68.634766 A 1.0001 1.0001 0 0 0 33.34375 68.458984 z"/></svg>