<svg xmlns="http://www.w3.org/2000/svg"  viewBox="0 0 100 100" width="24px" height="24px"><path d="M 48.134766 12.957031 C 28.026829 13.05603 14.031219 30.333409 13.001953 49.894531 C 11.937592 70.117399 29.627796 85.984147 49.898438 86.998047 C 71.074026 88.056826 85.947891 70.021328 86.996094 50.105469 C 88.07447 29.611015 70.350232 14.014852 50.099609 13.001953 C 49.438476 12.968896 48.783409 12.953838 48.134766 12.957031 z M 48.148438 16.957031 C 48.725874 16.954469 49.309571 16.968604 49.898438 16.998047 C 50.987572 17.052523 52.067035 17.156571 53.134766 17.300781 L 52.052734 19.568359 A 1.0002693 1.0002693 0 1 0 53.857422 20.431641 L 55.191406 17.636719 C 56.804732 17.944324 58.385612 18.349031 59.921875 18.851562 L 58.009766 21.400391 A 1.0001 1.0001 0 1 0 59.609375 22.599609 L 61.886719 19.5625 C 63.507065 20.193533 65.069388 20.931007 66.5625 21.767578 L 64.873047 25.060547 A 1.0001 1.0001 0 1 0 66.652344 25.972656 L 68.283203 22.792969 C 69.444007 23.530525 70.554645 24.329958 71.609375 25.1875 L 69.371094 28.609375 A 1.0001 1.0001 0 1 0 71.042969 29.705078 L 73.134766 26.507812 C 74.314536 27.589346 75.408861 28.74879 76.408203 29.978516 L 74.292969 32.376953 A 1.0001 1.0001 0 1 0 75.791016 33.701172 L 77.646484 31.597656 C 78.584735 32.919915 79.420487 34.309902 80.132812 35.765625 L 77.863281 38.337891 A 1.0004441 1.0004441 0 1 0 79.363281 39.662109 L 81.017578 37.787109 C 82.498049 41.505974 83.22903 45.578957 83.001953 49.894531 C 82.050156 67.978672 68.924021 83.943174 50.099609 83.001953 C 48.025831 82.898227 45.988862 82.615861 44.001953 82.185547 L 44.001953 79 A 1.0001 1.0001 0 0 0 42.986328 77.986328 A 1.0001 1.0001 0 0 0 42.001953 79 L 42.001953 81.699219 C 40.471901 81.279475 38.980618 80.763822 37.535156 80.164062 L 38.894531 77.447266 A 1.0001 1.0001 0 0 0 37.955078 75.988281 A 1.0001 1.0001 0 0 0 37.107422 76.552734 L 35.707031 79.351562 C 34.229434 78.643421 32.808954 77.844698 31.457031 76.958984 L 35.708984 72.707031 A 1.0001 1.0001 0 0 0 34.980469 70.990234 A 1.0001 1.0001 0 0 0 34.292969 71.292969 L 29.791016 75.794922 C 28.690653 74.981213 27.644896 74.108544 26.658203 73.181641 L 28.859375 69.513672 A 1.0001 1.0001 0 0 0 28.033203 67.988281 A 1.0001 1.0001 0 0 0 27.142578 68.486328 L 25.197266 71.730469 C 24.262898 70.738196 23.401354 69.688601 22.605469 68.595703 L 25.78125 64.625 A 1.0001 1.0001 0 0 0 24.96875 62.990234 A 1.0001 1.0001 0 0 0 24.220703 63.375 L 21.425781 66.869141 C 20.756307 65.806214 20.159169 64.7016 19.628906 63.564453 L 22.78125 59.625 A 1.0001 1.0001 0 0 0 21.96875 57.990234 A 1.0001 1.0001 0 0 0 21.220703 58.375 L 18.748047 61.466797 C 18.248597 60.130897 17.851375 58.753472 17.556641 57.339844 L 20.447266 55.894531 A 1.0001 1.0001 0 0 0 20.005859 53.994141 A 1.0001 1.0001 0 0 0 19.554688 54.105469 L 17.201172 55.28125 C 16.979703 53.597158 16.903254 51.869426 16.996094 50.105469 C 17.887807 33.15852 29.081947 18.539335 45.582031 17.087891 L 44.142578 19.486328 A 1.0003534 1.0003534 0 1 0 45.859375 20.513672 L 47.990234 16.962891 C 48.043415 16.962386 48.095157 16.957268 48.148438 16.957031 z M 60.275391 28.648438 A 2.0002 2.0002 0 0 0 58.542969 31.619141 L 59.582031 33.552734 C 57.577579 32.629389 55.591585 32.033762 53.765625 31.6875 C 52.272444 31.404343 50.90364 31.271207 49.677734 31.275391 C 48.451829 31.279591 47.367431 31.42076 46.447266 31.6875 C 44.834008 32.155479 40.682822 33.321192 37.177734 36.693359 C 33.672647 40.065527 30.939144 45.739284 31.845703 54.341797 C 33.834291 73.212497 69.787695 73.069646 70.847656 51.650391 A 2.0005284 2.0005284 0 1 0 66.851562 51.451172 C 66.013525 68.385917 37.263631 67.583128 35.824219 53.923828 C 35.019778 46.290341 37.252759 42.172255 39.951172 39.576172 C 42.649584 36.980089 45.938758 36.000317 47.5625 35.529297 C 48.36117 35.297776 50.526892 35.144501 53.019531 35.617188 C 55.021756 35.996875 57.280111 36.750798 59.490234 38.005859 L 54.830078 38.943359 A 2.0002327 2.0002327 0 1 0 55.619141 42.865234 L 65.164062 40.945312 A 2.0002 2.0002 0 0 0 66.53125 38.039062 L 62.066406 29.726562 A 2.0002 2.0002 0 0 0 60.275391 28.648438 z M 67.75 65.636719 C 67.610953 65.649469 67.472547 65.689766 67.341797 65.759766 C 66.818797 66.039766 66.622344 66.691844 66.902344 67.214844 C 67.182344 67.737844 67.834422 67.934297 68.357422 67.654297 C 68.879422 67.374297 69.076875 66.722219 68.796875 66.199219 C 68.586875 65.807719 68.167141 65.598469 67.75 65.636719 z M 59.988281 69.794922 C 59.849234 69.807672 59.710828 69.847969 59.580078 69.917969 C 59.057078 70.197969 58.859625 70.851047 59.140625 71.373047 C 59.420625 71.896047 60.072703 72.0925 60.595703 71.8125 C 61.117703 71.5335 61.315156 70.880422 61.035156 70.357422 C 60.825156 69.965922 60.405422 69.756672 59.988281 69.794922 z M 66.960938 71.429688 C 66.821891 71.442437 66.683484 71.482734 66.552734 71.552734 C 66.029734 71.832734 65.832281 72.484812 66.113281 73.007812 C 66.393281 73.529812 67.045359 73.725313 67.568359 73.445312 C 68.090359 73.165313 68.287813 72.513234 68.007812 71.990234 C 67.797812 71.598734 67.378078 71.391438 66.960938 71.429688 z"/></svg>