<svg xmlns="http://www.w3.org/2000/svg"  viewBox="0 0 100 100" width="24px" height="24px"><path d="M 71.527344 10.423828 C 69.684619 10.500888 67.857203 10.825907 66.095703 11.392578 A 2.0002 2.0002 0 0 0 64.742188 13.662109 L 65.818359 19.457031 C 65.349789 19.725396 64.903633 20.019087 64.470703 20.341797 L 59.583984 17.044922 A 2.0002 2.0002 0 0 0 56.964844 17.380859 C 55.336351 19.233131 54.052787 21.365029 53.179688 23.671875 A 2.0002 2.0002 0 0 0 54.109375 26.144531 L 59.3125 28.916016 C 59.23018 29.449784 59.181608 29.981737 59.164062 30.521484 L 53.539062 32.285156 A 2.0002 2.0002 0 0 0 52.167969 34.544922 C 52.600194 36.974247 53.468503 39.303068 54.726562 41.423828 A 2.0002 2.0002 0 0 0 57.240234 42.240234 L 62.650391 39.900391 C 63.015986 40.297122 63.40004 40.667593 63.810547 41.017578 L 61.683594 46.515625 A 2.0002 2.0002 0 0 0 62.595703 48.996094 C 64.763725 50.171501 67.12588 50.9462 69.568359 51.285156 A 2.0002 2.0002 0 0 0 71.773438 49.828125 L 73.318359 44.138672 C 73.856584 44.100262 74.386156 44.030509 74.916016 43.927734 L 77.888672 49.019531 A 2.0002 2.0002 0 0 0 80.394531 49.853516 C 82.666308 48.891612 84.745537 47.527183 86.533203 45.828125 A 2.0002 2.0002 0 0 0 86.767578 43.195312 L 83.283203 38.441406 C 83.589045 37.996163 83.865211 37.539214 84.115234 37.060547 L 89.947266 37.910156 A 2.0002 2.0002 0 0 0 92.162109 36.470703 C 92.825748 34.095343 93.055636 31.618492 92.841797 29.162109 A 2.0002 2.0002 0 0 0 90.931641 27.337891 L 85.041016 27.097656 C 84.883716 26.58141 84.698612 26.081382 84.480469 25.587891 L 88.783203 21.558594 A 2.0002 2.0002 0 0 0 89.037109 18.927734 C 87.593766 16.928322 85.802107 15.204785 83.748047 13.839844 A 2.0002 2.0002 0 0 0 81.128906 14.195312 L 77.269531 18.650391 C 76.767678 18.451484 76.260411 18.285571 75.738281 18.148438 L 75.271484 12.269531 A 2.0002 2.0002 0 0 0 73.373047 10.429688 C 72.757153 10.400056 72.141585 10.398141 71.527344 10.423828 z M 71.435547 14.498047 L 71.853516 19.751953 A 2.0002 2.0002 0 0 0 73.591797 21.578125 C 74.777496 21.730879 75.921591 22.106603 76.964844 22.685547 A 2.0002 2.0002 0 0 0 79.447266 22.246094 L 82.896484 18.263672 C 83.522974 18.783253 84.105019 19.343147 84.648438 19.949219 L 80.802734 23.550781 A 2.0002 2.0002 0 0 0 80.458984 26.048828 C 81.078052 27.069877 81.499301 28.197936 81.697266 29.375 A 2.0002 2.0002 0 0 0 83.587891 31.041016 L 88.851562 31.255859 C 88.836102 32.069591 88.761892 32.873033 88.626953 33.675781 L 83.414062 32.916016 A 2.0002 2.0002 0 0 0 81.248047 34.203125 C 80.835098 35.324693 80.214445 36.358097 79.417969 37.246094 A 2.0002 2.0002 0 0 0 79.292969 39.763672 L 82.408203 44.013672 C 81.762168 44.509192 81.086648 44.950804 80.375 45.345703 L 77.71875 40.794922 A 2.0002 2.0002 0 0 0 75.361328 39.90625 C 74.228968 40.282329 73.033833 40.439611 71.841797 40.371094 A 2.0002 2.0002 0 0 0 69.796875 41.84375 L 68.414062 46.929688 C 67.624056 46.733302 66.858007 46.480202 66.105469 46.169922 L 68.007812 41.257812 A 2.0002 2.0002 0 0 0 68.136719 40.412109 L 69.916016 39.460938 A 1.0001 1.0001 0 0 0 69.421875 37.574219 A 1.0001 1.0001 0 0 0 68.972656 37.697266 L 67.048828 38.726562 C 66.736683 38.512436 66.439731 38.278518 66.15625 38.029297 L 67.230469 36.914062 A 1.0001 1.0001 0 0 0 66.472656 35.210938 A 1.0001 1.0001 0 0 0 65.791016 35.525391 L 64.798828 36.556641 C 64.759069 36.502927 64.714431 36.453037 64.675781 36.398438 A 2.0002 2.0002 0 0 0 62.25 35.716797 L 57.414062 37.806641 C 57.074416 37.06586 56.791241 36.309704 56.564453 35.527344 L 61.591797 33.951172 A 2.0002 2.0002 0 0 0 62.984375 31.851562 C 62.869595 30.661649 62.981975 29.463122 63.314453 28.316406 A 2.0002 2.0002 0 0 0 62.333984 25.994141 L 57.683594 23.515625 C 58.050805 22.788685 58.467243 22.096704 58.9375 21.431641 L 63.304688 24.378906 A 2.0002 2.0002 0 0 0 65.814453 24.158203 C 66.673202 23.326703 67.678754 22.666585 68.783203 22.210938 A 2.0002 2.0002 0 0 0 69.988281 19.998047 L 69.025391 14.816406 C 69.822387 14.650354 70.622799 14.545018 71.435547 14.498047 z M 75.332031 23.367188 A 1.0001 1.0001 0 0 0 74.433594 24.007812 L 73.714844 25.808594 C 73.447752 25.751584 73.199014 25.667106 72.912109 25.646484 L 72.679688 24.253906 A 1.0002026 1.0002026 0 1 0 70.707031 24.585938 L 70.923828 25.876953 C 69.902044 26.158646 68.987148 26.600639 68.361328 27.304688 C 68.031813 27.675391 67.838543 28.118799 67.628906 28.552734 L 66.041016 28.210938 A 1.0001 1.0001 0 1 0 65.621094 30.166016 L 67.082031 30.480469 C 67.062791 30.677606 66.982422 30.866883 66.982422 31.064453 C 66.982422 32.412425 67.427556 33.773724 68.361328 34.824219 C 69.295101 35.874713 70.735329 36.566406 72.486328 36.566406 C 73.401963 36.566406 74.217941 36.362098 74.935547 36.03125 L 75.638672 36.869141 A 1.0002925 1.0002925 0 1 0 77.171875 35.583984 L 76.564453 34.859375 C 76.577273 34.845295 76.598698 34.838439 76.611328 34.824219 C 77.161166 34.205651 77.491226 33.469208 77.710938 32.701172 L 79.292969 33.072266 A 1.0001 1.0001 0 1 0 79.75 31.125 L 77.925781 30.695312 C 77.891841 30.142563 77.832501 29.587326 77.644531 29.0625 L 79.115234 28.105469 A 1.0001 1.0001 0 1 0 78.025391 26.429688 L 76.630859 27.335938 C 76.622559 27.326438 76.619718 27.314128 76.611328 27.304688 C 76.334566 26.99333 75.930919 26.794415 75.570312 26.554688 L 76.291016 24.75 A 1.0001 1.0001 0 0 0 75.332031 23.367188 z M 67.380859 24.419922 C 67.226 24.446969 67.073844 24.505203 66.933594 24.595703 C 66.372594 24.957703 66.210266 25.706578 66.572266 26.267578 C 66.934266 26.828578 67.685094 26.990906 68.246094 26.628906 C 68.808094 26.266906 68.968469 25.516078 68.605469 24.955078 C 68.333969 24.534328 67.845438 24.338781 67.380859 24.419922 z M 72.486328 27.560547 C 73.002976 27.560547 73.402702 27.674903 73.783203 27.806641 A 1.0001 1.0001 0 0 0 74.195312 27.958984 C 74.550049 28.140197 74.868772 28.355542 75.115234 28.632812 C 75.682461 29.270944 75.988281 30.160925 75.988281 31.064453 C 75.988281 31.967981 75.682461 32.857963 75.115234 33.496094 C 74.548007 34.134224 73.737327 34.566406 72.486328 34.566406 C 71.235329 34.566406 70.422696 34.134224 69.855469 33.496094 C 69.288242 32.857963 68.982422 31.967981 68.982422 31.064453 C 68.982422 30.160925 69.288242 29.270943 69.855469 28.632812 C 70.422696 27.994682 71.235329 27.560547 72.486328 27.560547 z M 33.453125 37.484375 C 31.693172 37.484375 29.934019 37.643002 28.195312 37.958984 A 2.0002 2.0002 0 0 0 26.554688 39.841797 L 26.296875 45.882812 C 24.596819 46.461625 22.987167 47.238724 21.474609 48.207031 L 16.589844 44.638672 A 2.0002 2.0002 0 0 0 14.095703 44.748047 C 11.433782 47.07307 9.2117894 49.858437 7.5371094 52.970703 A 2.0002 2.0002 0 0 0 7.9863281 55.427734 L 12.550781 59.396484 C 11.944054 61.08554 11.547141 62.827952 11.361328 64.613281 L 5.5273438 66.207031 A 2.0002 2.0002 0 0 0 4.0566406 68.226562 C 4.2143654 71.757667 5.0071301 75.230774 6.3964844 78.480469 A 2.0002 2.0002 0 0 0 8.5976562 79.660156 L 14.544922 78.566406 C 15.487373 80.094458 16.600842 81.493308 17.880859 82.751953 L 15.490234 88.306641 A 2.0002 2.0002 0 0 0 16.152344 90.714844 C 19.011701 92.793108 22.2216 94.337545 25.628906 95.277344 A 2.0002 2.0002 0 0 0 27.923828 94.292969 L 30.777344 88.958984 C 32.558489 89.17449 34.345813 89.174546 36.126953 88.958984 L 38.980469 94.292969 A 2.0002 2.0002 0 0 0 41.275391 95.277344 C 44.681929 94.337461 47.892861 92.791842 50.751953 90.714844 A 2.0002 2.0002 0 0 0 51.414062 88.306641 L 49.023438 82.751953 C 50.303616 81.493148 51.41685 80.094682 52.359375 78.566406 L 58.306641 79.660156 A 2.0002 2.0002 0 0 0 60.507812 78.480469 C 61.897168 75.230774 62.689931 71.757667 62.847656 68.226562 A 2.0002 2.0002 0 0 0 61.376953 66.207031 L 55.542969 64.613281 C 55.356799 62.827619 54.958667 61.084406 54.351562 59.394531 L 58.917969 55.427734 A 2.0002 2.0002 0 0 0 59.367188 52.970703 C 57.69321 49.857751 55.471078 47.072794 52.810547 44.748047 A 2.0002 2.0002 0 0 0 50.314453 44.638672 L 45.429688 48.205078 C 43.917963 47.237491 42.307521 46.463391 40.609375 45.884766 L 40.351562 39.841797 A 2.0002 2.0002 0 0 0 38.710938 37.958984 C 36.972231 37.643002 35.213078 37.484375 33.453125 37.484375 z M 33.453125 41.484375 C 34.449415 41.484375 35.438532 41.636697 36.429688 41.753906 L 36.667969 47.373047 A 2.0002 2.0002 0 0 0 38.152344 49.220703 C 38.575226 49.333244 38.987726 49.47512 39.400391 49.617188 L 38.742188 50.714844 A 1.0001 1.0001 0 1 0 40.457031 51.744141 L 41.279297 50.371094 C 42.35833 50.881772 43.388769 51.493108 44.351562 52.207031 A 2.0002 2.0002 0 0 0 46.722656 52.214844 L 51.265625 48.898438 C 52.684158 50.302141 53.924189 51.857386 54.976562 53.552734 L 50.732422 57.244141 A 2.0002 2.0002 0 0 0 50.212891 59.556641 C 50.839598 60.985729 51.264186 62.488599 51.509766 64.023438 L 49.421875 64.669922 A 1.0001 1.0001 0 1 0 50.013672 66.580078 L 51.726562 66.050781 C 51.729961 66.122646 51.741588 66.193687 51.744141 66.265625 A 2.0002 2.0002 0 0 0 53.214844 68.123047 L 58.640625 69.607422 C 58.427934 71.591831 57.985815 73.531807 57.316406 75.412109 L 51.783203 74.394531 A 2.0002 2.0002 0 0 0 49.652344 75.429688 C 48.575018 77.477958 47.118255 79.303172 45.361328 80.808594 A 2.0002 2.0002 0 0 0 44.826172 83.119141 L 47.048828 88.285156 C 45.364203 89.35606 43.572966 90.220058 41.685547 90.869141 L 39.273438 86.359375 L 41.082031 84.283203 A 1.0001 1.0001 0 0 0 40.337891 82.617188 A 1.0001 1.0001 0 0 0 39.574219 82.970703 L 37.857422 84.941406 A 2.0002 2.0002 0 0 0 36.892578 84.886719 C 36.721056 84.919513 36.547179 84.933093 36.375 84.960938 L 36.525391 83.582031 A 1.0001 1.0001 0 0 0 35.525391 82.458984 A 1.0001 1.0001 0 0 0 34.537109 83.365234 L 34.339844 85.169922 C 33.79591 85.19632 33.253063 85.199862 32.708984 85.177734 L 32.5 83.115234 A 1.0001 1.0001 0 0 0 31.488281 82.201172 A 1.0001 1.0001 0 0 0 30.509766 83.316406 L 30.677734 84.982422 C 30.455949 84.948418 30.232441 84.92892 30.011719 84.886719 A 2.0002 2.0002 0 0 0 27.873047 85.908203 L 25.21875 90.869141 C 23.331356 90.2203 21.539489 89.357925 19.855469 88.287109 L 20.533203 86.710938 L 22.75 87.289062 A 1.0002789 1.0002789 0 0 0 23.255859 85.353516 L 21.332031 84.851562 L 21.8125 83.736328 L 24.576172 83.314453 A 1.0001 1.0001 0 0 0 24.443359 81.322266 A 1.0001 1.0001 0 0 0 24.273438 81.335938 L 22.126953 81.664062 A 2.0002 2.0002 0 0 0 21.542969 80.808594 C 19.786042 79.303172 18.329279 77.477958 17.251953 75.429688 A 2.0002 2.0002 0 0 0 15.121094 74.394531 L 13.683594 74.658203 L 13.011719 72.335938 A 1.0001 1.0001 0 0 0 12.050781 71.599609 A 1.0001 1.0001 0 0 0 11.089844 72.892578 L 11.707031 75.023438 L 9.5878906 75.412109 C 8.9184818 73.531807 8.4763629 71.591831 8.2636719 69.607422 L 13.689453 68.123047 A 2.0002 2.0002 0 0 0 15.160156 66.263672 C 15.164358 66.143911 15.182897 66.0258 15.189453 65.90625 L 16.904297 66.109375 A 1.0001687 1.0001687 0 1 0 17.140625 64.123047 L 15.414062 63.917969 C 15.448956 63.707853 15.485141 63.497771 15.527344 63.289062 L 19.125 63.462891 A 1.0001 1.0001 0 1 0 19.220703 61.466797 L 16.033203 61.3125 C 16.224366 60.717871 16.439602 60.130832 16.691406 59.556641 A 2.0002 2.0002 0 0 0 16.171875 57.244141 L 11.927734 53.552734 C 12.98101 51.856338 14.221159 50.300538 15.640625 48.896484 L 20.181641 52.214844 A 2.0002 2.0002 0 0 0 22.552734 52.207031 C 24.412934 50.828337 26.515633 49.814712 28.751953 49.220703 A 2.0002 2.0002 0 0 0 30.236328 47.373047 L 30.476562 41.753906 C 31.467719 41.636697 32.456835 41.484375 33.453125 41.484375 z M 32.087891 51.302734 A 1.0001 1.0001 0 0 0 31.181641 51.933594 L 29.900391 55.042969 C 29.753786 55.083879 29.614193 55.135449 29.470703 55.181641 L 28.791016 53.482422 A 1.0001072 1.0001072 0 1 0 26.933594 54.224609 L 27.623047 55.949219 C 27.14686 56.203392 26.663432 56.447882 26.236328 56.763672 L 24.865234 55.917969 A 1.0001 1.0001 0 1 0 23.816406 57.621094 L 24.707031 58.169922 C 24.641161 58.241382 24.556166 58.29401 24.492188 58.367188 C 22.440271 60.714093 21.347656 63.897989 21.347656 67.322266 C 21.347656 70.753715 22.696491 73.690624 24.941406 75.744141 L 22.916016 76.828125 A 1.0001 1.0001 0 1 0 23.859375 78.591797 L 26.921875 76.951172 C 27.247709 77.146044 27.554423 77.359447 27.902344 77.525391 L 26.720703 79.263672 A 1.0001 1.0001 0 1 0 28.375 80.386719 L 29.783203 78.314453 C 30.333399 78.476554 30.949834 78.504095 31.535156 78.601562 L 31.839844 80.164062 A 1.0001 1.0001 0 1 0 33.802734 79.78125 L 33.640625 78.947266 C 33.790872 78.951266 33.912687 79.017578 34.064453 79.017578 C 35.090709 79.017578 36.047259 78.886991 36.958984 78.685547 L 37.974609 80.525391 A 1.0001 1.0001 0 1 0 39.724609 79.558594 L 38.917969 78.095703 C 40.288414 77.52503 41.457434 76.687588 42.425781 75.660156 A 1.0001 1.0001 0 0 0 42.601562 75.765625 L 44.210938 76.53125 A 1.0001 1.0001 0 1 0 45.070312 74.726562 L 43.490234 73.974609 C 44.77979 71.940679 45.605469 69.551862 45.605469 66.806641 C 45.605469 65.309895 45.264548 63.932028 44.8125 62.619141 L 46.511719 62.894531 A 1.0001 1.0001 0 1 0 46.832031 60.921875 L 44.003906 60.460938 A 1.0001 1.0001 0 0 0 43.689453 60.455078 C 43.374018 59.92716 43.075209 59.392564 42.683594 58.923828 L 44.398438 58.539062 A 1.0001 1.0001 0 1 0 43.958984 56.587891 L 41.046875 57.242188 A 1.0001 1.0001 0 0 0 40.916016 57.28125 C 40.515138 56.968186 40.084844 56.696874 39.640625 56.435547 L 41.361328 55.148438 A 1.0001 1.0001 0 1 0 40.164062 53.546875 L 37.748047 55.353516 C 37.216418 55.161265 36.671225 54.989562 36.099609 54.867188 L 36.751953 54.210938 A 1.00059 1.00059 0 1 0 35.332031 52.800781 L 33.564453 54.578125 C 33.447708 54.575325 33.342489 54.546875 33.224609 54.546875 C 32.876497 54.546875 32.563047 54.622154 32.226562 54.648438 L 33.03125 52.695312 A 1.0001 1.0001 0 0 0 32.087891 51.302734 z M 16.150391 52.517578 C 15.995531 52.544609 15.843375 52.602859 15.703125 52.693359 C 15.141125 53.055359 14.979797 53.804234 15.341797 54.365234 C 15.703797 54.927234 16.454625 55.088563 17.015625 54.726562 C 17.576625 54.364563 17.737953 53.616688 17.376953 53.054688 C 17.105453 52.633187 16.614969 52.436484 16.150391 52.517578 z M 33.224609 56.546875 C 39.524517 56.546875 43.605469 60.862789 43.605469 66.806641 C 43.605469 69.822749 42.725853 72.370772 41.130859 74.154297 C 39.535866 75.937822 37.216965 77.017578 34.064453 77.017578 C 30.886607 77.017578 28.21015 76.019695 26.333984 74.333984 C 24.457819 72.648274 23.347656 70.277343 23.347656 67.322266 C 23.347656 64.323543 24.305963 61.618937 25.998047 59.683594 C 26.743511 58.830959 27.68524 58.190048 28.708984 57.662109 A 1.0001 1.0001 0 0 0 29.853516 57.230469 C 30.886417 56.865323 31.955637 56.546875 33.224609 56.546875 z M 20.255859 57.646484 C 20.101 57.673516 19.948844 57.729813 19.808594 57.820312 C 19.246594 58.182312 19.085266 58.933141 19.447266 59.494141 C 19.809266 60.055141 20.558141 60.215516 21.119141 59.853516 C 21.680141 59.491516 21.842469 58.741641 21.480469 58.181641 C 21.208969 57.760141 20.720438 57.565391 20.255859 57.646484 z"/></svg>