<svg xmlns="http://www.w3.org/2000/svg"  viewBox="0 0 100 100" width="24px" height="24px"><path d="M 51.060547 8.4667969 C 48.560933 8.4667969 46.060972 8.6921615 43.591797 9.140625 A 2.0002 2.0002 0 0 0 41.951172 11.023438 L 41.552734 20.386719 C 38.740608 21.28212 36.083816 22.561092 33.630859 24.201172 L 26.064453 18.675781 A 2.0002 2.0002 0 0 0 23.568359 18.783203 C 19.787411 22.085232 16.633605 26.040474 14.255859 30.460938 A 2.0002 2.0002 0 0 0 14.705078 32.917969 L 21.777344 39.066406 C 20.72377 41.823629 20.067426 44.697747 19.820312 47.638672 L 10.78125 50.109375 A 2.0002 2.0002 0 0 0 9.3105469 52.128906 C 9.5352994 57.142778 10.661377 62.075631 12.634766 66.691406 A 2.0002 2.0002 0 0 0 14.835938 67.871094 L 24.052734 66.175781 C 25.551516 68.718092 27.389968 71.023495 29.535156 73.050781 L 25.830078 81.658203 A 2.0002 2.0002 0 0 0 26.490234 84.066406 C 30.550686 87.017744 35.11086 89.214 39.949219 90.548828 A 2.0002 2.0002 0 0 0 42.244141 89.564453 L 46.666016 81.302734 C 49.588166 81.7159 52.536849 81.716035 55.458984 81.302734 L 59.878906 89.564453 A 2.0002 2.0002 0 0 0 62.175781 90.548828 C 67.01414 89.214 71.572361 87.017744 75.632812 84.066406 A 2.0002 2.0002 0 0 0 76.294922 81.658203 L 72.589844 73.050781 C 74.735024 71.023513 76.572998 68.717889 78.072266 66.175781 L 87.289062 67.871094 A 2.0002 2.0002 0 0 0 89.490234 66.691406 C 91.463702 62.076496 92.589705 57.143741 92.814453 52.128906 A 2.0002 2.0002 0 0 0 91.34375 50.109375 L 82.300781 47.638672 C 82.053207 44.697386 81.396908 41.82363 80.34375 39.066406 L 87.416016 32.917969 A 2.0002 2.0002 0 0 0 87.865234 30.460938 C 85.487373 26.040257 82.332414 22.085041 78.552734 18.783203 A 2.0002 2.0002 0 0 0 76.056641 18.675781 L 68.490234 24.201172 C 66.036597 22.560855 63.380043 21.282448 60.568359 20.386719 L 60.169922 11.023438 A 2.0002 2.0002 0 0 0 58.529297 9.140625 C 56.060122 8.6921615 53.560161 8.4667969 51.060547 8.4667969 z M 51.060547 12.466797 C 52.796064 12.466797 54.523052 12.696478 56.246094 12.935547 L 56.626953 21.875 A 2.0002 2.0002 0 0 0 58.111328 23.722656 C 58.956886 23.947496 59.789737 24.212396 60.607422 24.515625 L 59.121094 26.992188 A 1.0001 1.0001 0 1 0 60.835938 28.021484 L 62.472656 25.294922 C 64.211528 26.089584 65.869781 27.057829 67.412109 28.201172 A 2.0002 2.0002 0 0 0 69.783203 28.210938 L 77.007812 22.933594 C 79.5314 25.330766 81.701223 28.049198 83.476562 31.042969 L 76.722656 36.914062 A 2.0002 2.0002 0 0 0 76.203125 39.226562 C 77.187269 41.469809 77.857929 43.832585 78.214844 46.248047 L 74.363281 47.439453 A 1.0001 1.0001 0 1 0 74.955078 49.349609 L 78.439453 48.271484 C 78.464128 48.610736 78.487926 48.950568 78.5 49.291016 A 2.0002 2.0002 0 0 0 79.972656 51.148438 L 88.607422 53.509766 C 88.306549 56.976915 87.532157 60.369422 86.298828 63.623047 L 77.498047 62.003906 A 2.0002 2.0002 0 0 0 75.365234 63.039062 C 73.748856 66.111487 71.565832 68.849823 68.929688 71.109375 A 2.0002 2.0002 0 0 0 68.394531 73.417969 L 71.929688 81.638672 C 69.031706 83.56524 65.8972 85.074034 62.583984 86.138672 L 58.646484 78.779297 L 61.789062 75.169922 A 1.0001 1.0001 0 0 0 61.044922 73.503906 A 1.0001 1.0001 0 0 0 60.28125 73.857422 L 57.271484 77.3125 A 2.0002 2.0002 0 0 0 56.222656 77.228516 C 55.728676 77.323044 55.231705 77.399658 54.734375 77.466797 L 55.068359 74.400391 A 1.0001 1.0001 0 0 0 54.070312 73.277344 A 1.0001 1.0001 0 0 0 53.080078 74.183594 L 52.701172 77.664062 C 51.674712 77.725465 50.645915 77.731737 49.619141 77.677734 L 49.228516 73.816406 A 1.0001 1.0001 0 0 0 48.214844 72.904297 A 1.0001 1.0001 0 0 0 47.238281 74.019531 L 47.589844 77.492188 C 47.025072 77.420189 46.460947 77.335784 45.900391 77.228516 A 2.0002 2.0002 0 0 0 43.761719 78.25 L 39.539062 86.138672 C 36.225952 85.073891 33.091218 83.565343 30.193359 81.638672 L 31.613281 78.337891 L 35.646484 79.390625 A 1.0001 1.0001 0 1 0 36.150391 77.455078 L 32.412109 76.480469 L 33.332031 74.34375 L 38.113281 73.613281 A 1.0001 1.0001 0 0 0 37.980469 71.623047 A 1.0001 1.0001 0 0 0 37.810547 71.636719 L 33.855469 72.240234 A 2.0002 2.0002 0 0 0 33.195312 71.109375 C 30.559168 68.849823 28.375036 66.111154 26.759766 63.039062 A 2.0002 2.0002 0 0 0 24.626953 62.003906 L 22.183594 62.453125 L 20.96875 58.257812 A 1.0001 1.0001 0 0 0 20.007812 57.521484 A 1.0001 1.0001 0 0 0 19.046875 58.8125 L 20.205078 62.816406 L 15.826172 63.623047 C 14.592568 60.368135 13.818327 56.975029 13.517578 53.507812 L 22.148438 51.148438 A 2.0002 2.0002 0 0 0 23.621094 49.291016 C 23.633395 48.941506 23.656038 48.592345 23.681641 48.244141 L 27.103516 48.650391 A 1.0001692 1.0001692 0 0 0 27.339844 46.664062 L 23.904297 46.255859 C 23.990401 45.671995 24.095272 45.090361 24.21875 44.513672 L 30.292969 44.808594 A 1.0001688 1.0001688 0 1 0 30.388672 42.810547 L 24.71875 42.535156 C 25.048481 41.411137 25.445231 40.305676 25.917969 39.228516 A 2.0002 2.0002 0 0 0 25.398438 36.914062 L 18.644531 31.042969 C 20.419783 28.049102 22.589421 25.330621 25.113281 22.933594 L 32.337891 28.210938 A 2.0002 2.0002 0 0 0 34.708984 28.201172 C 37.498061 26.133601 40.652613 24.613648 44.007812 23.722656 A 2.0002 2.0002 0 0 0 45.494141 21.875 L 45.873047 12.935547 C 47.596723 12.6963 49.324382 12.466797 51.060547 12.466797 z M 49.085938 28.068359 A 1.0001 1.0001 0 0 0 48.181641 28.701172 L 46.744141 32.189453 C 46.010905 32.347833 45.309019 32.564389 44.623047 32.806641 L 43.878906 30.943359 A 1.0001 1.0001 0 0 0 42.949219 30.302734 A 1.0001 1.0001 0 0 0 42.021484 31.685547 L 42.779297 33.585938 C 41.678769 34.128758 40.659777 34.783303 39.726562 35.535156 L 38.363281 34.695312 A 1.0001 1.0001 0 0 0 37.792969 34.541016 A 1.0001 1.0001 0 0 0 37.314453 36.398438 L 38.193359 36.939453 C 38.011383 37.128617 37.817234 37.306358 37.644531 37.503906 C 34.568624 41.022323 32.947266 45.77234 32.947266 50.857422 C 32.947266 56.029781 34.990533 60.514914 38.423828 63.599609 C 38.456812 63.629244 38.494117 63.654217 38.527344 63.683594 L 35.984375 65.046875 A 1.0005193 1.0005193 0 0 0 36.929688 66.810547 L 40.273438 65.019531 C 41.116572 65.589819 42.00914 66.100164 42.958984 66.529297 L 41.664062 68.4375 A 1.001098 1.001098 0 0 0 43.320312 69.5625 L 44.876953 67.267578 C 46.158868 67.691078 47.51275 67.989227 48.921875 68.167969 L 49.162109 69.404297 A 1.0001 1.0001 0 1 0 51.125 69.021484 L 50.992188 68.337891 C 51.310677 68.350209 51.624353 68.375 51.947266 68.375 C 53.702051 68.375 55.346204 68.147117 56.884766 67.75 L 58.015625 69.796875 A 1.0001 1.0001 0 1 0 59.765625 68.830078 L 58.826172 67.128906 C 61.167856 66.21881 63.18408 64.847112 64.771484 63.072266 C 64.824332 63.013178 64.868013 62.946584 64.919922 62.886719 L 66.865234 63.8125 A 1.0001 1.0001 0 1 0 67.724609 62.007812 L 66.146484 61.255859 C 68.199312 58.156856 69.240234 54.303263 69.240234 50.111328 C 69.240234 47.831143 68.839048 45.67028 68.128906 43.671875 L 70.080078 43.988281 A 1.0002101 1.0002101 0 1 0 70.400391 42.013672 L 67.207031 41.496094 C 66.581669 40.271771 65.819224 39.13707 64.939453 38.101562 L 66.841797 37.673828 A 1.0001 1.0001 0 0 0 66.572266 35.697266 A 1.0001 1.0001 0 0 0 66.404297 35.722656 L 63.294922 36.421875 C 62.392211 35.611192 61.403378 34.892148 60.333984 34.275391 L 62.263672 32.832031 A 1.0001 1.0001 0 0 0 61.689453 31.023438 A 1.0001 1.0001 0 0 0 61.066406 31.230469 L 58.337891 33.271484 C 57.237166 32.80793 56.071336 32.447479 54.849609 32.195312 L 55.525391 31.515625 A 1.0001 1.0001 0 0 0 54.794922 29.800781 A 1.0001 1.0001 0 0 0 54.107422 30.105469 L 52.373047 31.849609 C 51.830925 31.807054 51.285755 31.771484 50.726562 31.771484 C 50.156541 31.771484 49.598876 31.800124 49.048828 31.847656 L 50.03125 29.462891 A 1.0001 1.0001 0 0 0 49.085938 28.068359 z M 27.419922 30.361328 C 27.265062 30.388375 27.112906 30.446609 26.972656 30.537109 C 26.411656 30.899109 26.251281 31.649938 26.613281 32.210938 C 26.975281 32.771938 27.724156 32.932313 28.285156 32.570312 C 28.846156 32.208313 29.008484 31.458484 28.646484 30.896484 C 28.374984 30.475734 27.8845 30.280188 27.419922 30.361328 z M 31.525391 35.488281 C 31.370531 35.515328 31.218375 35.573563 31.078125 35.664062 C 30.516125 36.026063 30.35675 36.776891 30.71875 37.337891 C 31.08075 37.898891 31.829625 38.059266 32.390625 37.697266 C 32.951625 37.335266 33.112953 36.584437 32.751953 36.023438 C 32.480453 35.602688 31.989969 35.407141 31.525391 35.488281 z M 50.726562 35.771484 C 59.605472 35.771484 65.240234 41.747408 65.240234 50.111328 C 65.240234 54.380556 63.997126 57.935505 61.789062 60.404297 C 59.581001 62.873089 56.391874 64.375 51.947266 64.375 C 47.452069 64.375 43.706611 62.967101 41.097656 60.623047 C 38.488701 58.278992 36.947266 55.004063 36.947266 50.857422 C 36.947266 46.623504 38.299908 42.832052 40.65625 40.136719 C 43.012592 37.441386 46.337832 35.771484 50.726562 35.771484 z M 73.783203 54.623047 C 73.628344 54.650078 73.478141 54.708328 73.337891 54.798828 C 72.775891 55.160828 72.614563 55.911656 72.976562 56.472656 C 73.338562 57.034656 74.087437 57.194031 74.648438 56.832031 C 75.209438 56.470031 75.371766 55.722156 75.009766 55.160156 C 74.738266 54.738656 74.247781 54.541953 73.783203 54.623047 z"/></svg>