<svg xmlns="http://www.w3.org/2000/svg"  viewBox="0 0 100 100" width="24px" height="24px"><path d="M 75.765625 10.492188 C 73.164257 10.549951 70.712005 11.271936 68.871094 12.59375 C 65.504318 15.009494 63.483113 18.751924 63.537109 22.617188 L 28.691406 43.642578 C 26.743311 42.482907 24.669481 41.695312 22.669922 41.695312 C 19.443876 41.695312 16.386952 42.765454 14.113281 44.734375 C 11.83961 46.703296 10.391367 49.667288 10.609375 53.011719 C 10.800446 55.951536 11.890657 58.797781 13.96875 60.900391 C 16.046843 63.003001 19.124799 64.253297 22.771484 64.066406 C 25.807722 63.9111 28.573958 62.799232 30.722656 61.021484 L 62.685547 77.804688 C 63.008865 82.465481 65.908747 86.950616 71.609375 88.283203 C 77.964462 89.768823 84.681029 86.840209 86.443359 80.730469 C 87.420606 77.339335 86.31528 74.019127 84.537109 71.511719 C 82.758939 69.004311 80.340149 67.140425 77.808594 66.410156 C 73.964834 65.301789 69.94032 65.908101 66.914062 68.070312 L 37.232422 51.691406 L 69.074219 31.564453 C 72.79538 33.790162 77.718851 34.051903 81.966797 30.660156 C 86.967568 26.6674 88.794076 19.713814 85.154297 14.642578 C 83.132697 11.826002 79.899418 10.660378 76.888672 10.507812 C 76.512329 10.488742 76.137249 10.483936 75.765625 10.492188 z M 75.876953 14.496094 C 76.146595 14.48636 76.416828 14.488336 76.685547 14.501953 C 78.835301 14.610888 80.759897 15.380185 81.904297 16.974609 C 83.354546 18.995215 83.43561 21.578219 82.341797 23.941406 L 81.763672 23.173828 A 1.0001 1.0001 0 0 0 80.896484 22.765625 A 1.0001 1.0001 0 0 0 80.166016 24.376953 L 81.220703 25.777344 C 80.729084 26.405365 80.144842 26.996905 79.470703 27.535156 C 79.379059 27.608329 79.28842 27.669679 79.197266 27.738281 L 78.613281 25.746094 A 1.0001 1.0001 0 0 0 77.650391 25.013672 A 1.0001 1.0001 0 0 0 76.695312 26.308594 L 77.427734 28.8125 C 76.444225 29.26174 75.493498 29.457052 74.580078 29.435547 L 74.683594 25.554688 A 1.0001 1.0001 0 0 0 73.695312 24.515625 A 1.0001 1.0001 0 0 0 72.683594 25.501953 L 72.587891 29.041016 C 71.766077 28.73827 70.979497 28.277282 70.234375 27.685547 A 2.0002 2.0002 0 0 0 67.921875 27.560547 L 32.236328 50.117188 A 2.0002 2.0002 0 0 0 32.337891 53.558594 L 66.064453 72.169922 A 2.0002 2.0002 0 0 0 68.425781 71.851562 C 70.278564 70.046094 73.514173 69.332966 76.701172 70.251953 C 78.010617 70.629684 79.993858 72.019877 81.273438 73.824219 C 82.553016 75.628561 83.160363 77.677181 82.599609 79.623047 C 82.446916 80.152411 82.226677 80.642527 81.958984 81.099609 L 81.296875 79.376953 A 1.0001 1.0001 0 0 0 80.375 78.722656 A 1.0001 1.0001 0 0 0 79.429688 80.09375 L 80.482422 82.832031 C 79.604124 83.565113 78.530071 84.101737 77.328125 84.400391 L 77.552734 82.388672 A 1.0001 1.0001 0 0 0 76.556641 81.263672 A 1.0001 1.0001 0 0 0 75.564453 82.167969 L 75.285156 84.669922 C 74.393164 84.693614 73.465248 84.607797 72.519531 84.386719 C 72.082414 84.284537 71.681985 84.157985 71.298828 84.021484 L 73.894531 80.390625 A 1.0001 1.0001 0 0 0 73.095703 78.798828 A 1.0001 1.0001 0 0 0 72.267578 79.228516 L 69.474609 83.134766 C 69.102769 82.889919 68.769955 82.620993 68.474609 82.332031 L 69.6875 80.697266 A 1.0001 1.0001 0 0 0 68.916016 79.089844 A 1.0001 1.0001 0 0 0 68.080078 79.505859 L 67.248047 80.626953 C 66.669665 79.438194 66.454324 78.067864 66.523438 76.605469 A 2.0002 2.0002 0 0 0 65.455078 74.742188 L 31.376953 56.845703 A 2.0002 2.0002 0 0 0 28.976562 57.261719 C 27.521559 58.83876 25.209895 59.937149 22.568359 60.072266 C 22.232476 60.089479 21.910284 60.091917 21.601562 60.080078 L 22.402344 58.714844 A 1.0001 1.0001 0 0 0 21.560547 57.197266 A 1.0001 1.0001 0 0 0 20.675781 57.703125 L 19.492188 59.720703 C 18.643825 59.452872 17.91978 59.054868 17.306641 58.544922 L 18.810547 56.800781 A 1.0001 1.0001 0 0 0 18.058594 55.136719 A 1.0001 1.0001 0 0 0 17.294922 55.494141 L 15.964844 57.037109 C 15.18037 55.84359 14.70601 54.358971 14.601562 52.751953 C 14.464571 50.650384 15.27189 49.020892 16.730469 47.757812 C 18.189048 46.494734 20.341968 45.695313 22.669922 45.695312 C 23.906711 45.695312 25.952663 46.356622 27.585938 47.550781 A 2.0002 2.0002 0 0 0 29.798828 47.648438 L 66.544922 25.474609 A 2.0002 2.0002 0 0 0 67.486328 23.441406 C 67.068548 20.862746 68.468578 17.805854 71.203125 15.84375 A 2.0002 2.0002 0 0 0 71.205078 15.84375 C 71.677722 15.504382 72.389835 15.186454 73.214844 14.941406 L 74.019531 16.794922 A 1.0001 1.0001 0 1 0 75.853516 15.998047 L 75.222656 14.544922 C 75.439457 14.523222 75.657716 14.504008 75.876953 14.496094 z M 21.388672 48.523438 C 20.861672 48.523438 20.433594 48.951516 20.433594 49.478516 C 20.433594 50.005516 20.861672 50.433594 21.388672 50.433594 C 21.915672 50.433594 22.34375 50.005516 22.34375 49.478516 C 22.34375 48.951516 21.915672 48.523438 21.388672 48.523438 z M 26.164062 52.728516 A 0.955 0.955 0 1 0 26.164062 54.638672 A 0.955 0.955 0 1 0 26.164062 52.728516 z M 75.162109 73.042969 A 0.955 0.955 0 1 0 75.162109 74.951172 A 0.955 0.955 0 1 0 75.162109 73.042969 z"/></svg>