<svg xmlns="http://www.w3.org/2000/svg"  viewBox="0 0 100 100" width="24px" height="24px"><path d="M 48.134766 12.957031 C 28.026829 13.05603 14.031219 30.333409 13.001953 49.894531 C 11.937592 70.117399 29.627796 85.984147 49.898438 86.998047 C 71.074026 88.056826 85.947891 70.021328 86.996094 50.105469 C 88.07447 29.611015 70.350232 14.014852 50.099609 13.001953 C 49.438476 12.968896 48.783409 12.953838 48.134766 12.957031 z M 48.148438 16.957031 C 48.725874 16.954469 49.309571 16.968604 49.898438 16.998047 C 50.987572 17.052523 52.067035 17.156571 53.134766 17.300781 L 52.052734 19.568359 A 1.0002693 1.0002693 0 1 0 53.857422 20.431641 L 55.191406 17.636719 C 56.804732 17.944324 58.385612 18.349031 59.921875 18.851562 L 58.009766 21.400391 A 1.0001 1.0001 0 1 0 59.609375 22.599609 L 61.886719 19.5625 C 63.507065 20.193533 65.069388 20.931007 66.5625 21.767578 L 64.873047 25.060547 A 1.0001 1.0001 0 1 0 66.652344 25.972656 L 68.283203 22.792969 C 69.444007 23.530525 70.554645 24.329958 71.609375 25.1875 L 69.371094 28.609375 A 1.0001 1.0001 0 1 0 71.042969 29.705078 L 73.134766 26.507812 C 74.314536 27.589346 75.408861 28.74879 76.408203 29.978516 L 74.292969 32.376953 A 1.0001 1.0001 0 1 0 75.791016 33.701172 L 77.646484 31.597656 C 78.584735 32.919915 79.420487 34.309902 80.132812 35.765625 L 77.863281 38.337891 A 1.0004441 1.0004441 0 1 0 79.363281 39.662109 L 81.017578 37.787109 C 82.498049 41.505974 83.22903 45.578957 83.001953 49.894531 C 82.050156 67.978672 68.924021 83.943174 50.099609 83.001953 C 48.025831 82.898227 45.988862 82.615861 44.001953 82.185547 L 44.001953 79 A 1.0001 1.0001 0 0 0 42.986328 77.986328 A 1.0001 1.0001 0 0 0 42.001953 79 L 42.001953 81.699219 C 40.471901 81.279475 38.980618 80.763822 37.535156 80.164062 L 38.894531 77.447266 A 1.0001 1.0001 0 0 0 37.955078 75.988281 A 1.0001 1.0001 0 0 0 37.107422 76.552734 L 35.707031 79.351562 C 34.229434 78.643421 32.808954 77.844698 31.457031 76.958984 L 35.708984 72.707031 A 1.0001 1.0001 0 0 0 34.980469 70.990234 A 1.0001 1.0001 0 0 0 34.292969 71.292969 L 29.791016 75.794922 C 28.690653 74.981213 27.644896 74.108544 26.658203 73.181641 L 28.859375 69.513672 A 1.0001 1.0001 0 0 0 28.033203 67.988281 A 1.0001 1.0001 0 0 0 27.142578 68.486328 L 25.197266 71.730469 C 24.262898 70.738196 23.401354 69.688601 22.605469 68.595703 L 25.78125 64.625 A 1.0001 1.0001 0 0 0 24.96875 62.990234 A 1.0001 1.0001 0 0 0 24.220703 63.375 L 21.425781 66.869141 C 20.756307 65.806214 20.159169 64.7016 19.628906 63.564453 L 22.78125 59.625 A 1.0001 1.0001 0 0 0 21.96875 57.990234 A 1.0001 1.0001 0 0 0 21.220703 58.375 L 18.748047 61.466797 C 18.248597 60.130897 17.851375 58.753472 17.556641 57.339844 L 20.447266 55.894531 A 1.0001 1.0001 0 0 0 20.005859 53.994141 A 1.0001 1.0001 0 0 0 19.554688 54.105469 L 17.201172 55.28125 C 16.979703 53.597158 16.903254 51.869426 16.996094 50.105469 C 17.887807 33.15852 29.081947 18.539335 45.582031 17.087891 L 44.142578 19.486328 A 1.0003534 1.0003534 0 1 0 45.859375 20.513672 L 47.990234 16.962891 C 48.043415 16.962386 48.095157 16.957268 48.148438 16.957031 z M 50.880859 30.126953 C 50.606624 30.130362 50.325055 30.143016 50.037109 30.166016 C 45.129147 30.558247 42.514758 33.191335 41.332031 35.673828 C 40.150842 38.153094 40.24974 40.519228 40.25 40.525391 L 40.25 40.529297 L 40.435547 56.521484 C 40.400857 56.614154 40.259368 57.012563 39.912109 57.511719 C 39.526665 58.065764 39.037263 58.490273 38.515625 58.525391 C 38.041159 58.557331 37.364605 58.14475 36.814453 57.568359 C 36.339348 57.070595 36.115554 56.68556 36.035156 56.554688 L 35.720703 47.921875 A 1.0001 1.0001 0 0 0 34.689453 46.958984 L 28.708984 47.146484 A 1.0001 1.0001 0 0 0 27.75 48.017578 C 27.75 48.017578 27.426052 50.507546 27.517578 53.53125 C 27.609108 56.554954 28.035426 60.156425 29.914062 62.570312 C 31.811988 65.008983 35.360515 66.248976 38.808594 66.304688 C 42.256673 66.360398 45.816533 65.130602 47.210938 61.976562 C 48.544891 58.959258 48.74056 54.086744 48.716797 49.832031 C 48.693467 45.654744 48.390165 42.267611 48.378906 42.140625 C 48.381406 42.112965 48.476586 41.072166 48.857422 40.076172 C 49.050351 39.571604 49.315388 39.108612 49.595703 38.832031 C 49.876018 38.55545 50.110756 38.435152 50.533203 38.457031 C 51.16613 38.489821 51.474111 38.679816 51.730469 38.953125 C 51.986826 39.226434 52.175151 39.637828 52.283203 40.101562 C 52.499307 41.029032 52.376953 42.019531 52.376953 42.019531 A 1.0001 1.0001 0 0 0 52.367188 42.136719 C 52.367188 42.136719 52.291533 45.55758 52.345703 49.480469 C 52.399863 53.403358 52.538231 57.725131 53.134766 60.003906 C 54.307282 64.48294 58.724183 66.763056 63.253906 66.515625 C 70.838525 66.102371 73.244141 59.28125 73.244141 59.28125 A 1.0001 1.0001 0 0 0 73.294922 58.923828 L 72.902344 48.464844 A 1.0001 1.0001 0 0 0 71.960938 47.503906 L 65.75 47.154297 A 1.0001 1.0001 0 0 0 64.693359 48.162109 L 64.767578 56.783203 A 1.0001 1.0001 0 0 0 64.769531 56.8125 C 64.769531 56.8125 64.774431 57.191298 64.550781 57.595703 C 64.327113 58.000108 63.985704 58.433355 62.697266 58.490234 C 61.778578 58.530684 61.406748 58.153332 61.089844 57.685547 C 60.786005 57.237047 60.697542 56.810892 60.689453 56.773438 L 60.689453 38.986328 A 1.0001 1.0001 0 0 0 60.683594 38.867188 C 60.683594 38.867188 60.41423 36.533541 58.949219 34.275391 C 57.57577 32.158374 54.994385 30.07582 50.880859 30.126953 z M 51.585938 32.132812 C 54.616803 32.270879 56.235714 33.766757 57.271484 35.363281 C 58.437718 37.1609 58.682246 39.014845 58.689453 39.070312 L 58.689453 47.269531 C 58.082995 48.135861 57.551518 48.4868 57.136719 48.591797 C 56.70839 48.700218 56.296638 48.614717 55.855469 48.392578 C 55.037982 47.98096 54.451192 47.211722 54.353516 47.087891 C 54.359416 44.891613 54.367187 42.181641 54.367188 42.181641 L 54.357422 42.296875 C 54.357422 42.296875 54.551615 41.026719 54.230469 39.648438 C 54.069896 38.959297 53.775252 38.208519 53.189453 37.583984 C 52.603654 36.95945 51.710339 36.516652 50.634766 36.460938 C 49.647713 36.409818 48.776685 36.830721 48.191406 37.408203 C 47.606128 37.985685 47.24668 38.690646 46.990234 39.361328 C 46.477343 40.702693 46.380859 42.005859 46.380859 42.005859 A 1.0001 1.0001 0 0 0 46.380859 42.175781 C 46.380859 42.175781 46.69356 45.683213 46.716797 49.84375 C 46.740037 54.004287 46.396859 58.874274 45.382812 61.167969 C 44.429218 63.32493 41.799468 64.352475 38.841797 64.304688 C 35.884126 64.256897 32.811216 63.034126 31.494141 61.341797 C 30.157777 59.624684 29.601849 56.319249 29.515625 53.470703 C 29.443365 51.083535 29.630332 49.712211 29.697266 49.115234 L 33.757812 48.988281 L 34.048828 56.933594 A 1.0001 1.0001 0 0 0 34.183594 57.400391 C 34.183594 57.400391 34.63309 58.180109 35.367188 58.949219 C 36.101284 59.718328 37.191903 60.619542 38.648438 60.521484 C 40.0578 60.426604 40.995382 59.458252 41.554688 58.654297 C 42.113993 57.850342 42.380859 57.070313 42.380859 57.070312 A 1.0001 1.0001 0 0 0 42.4375 56.730469 L 42.248047 40.480469 A 1.0001 1.0001 0 0 0 42.248047 40.453125 C 42.248047 40.453125 42.184697 38.53146 43.136719 36.533203 C 44.088742 34.534947 45.908228 32.502925 50.197266 32.160156 C 50.69025 32.12078 51.152957 32.113089 51.585938 32.132812 z M 33.943359 32.904297 C 33.669109 32.881797 33.386156 32.962297 33.160156 33.154297 C 32.708156 33.537297 32.651156 34.216922 33.035156 34.669922 C 33.419156 35.121922 34.098781 35.178922 34.550781 34.794922 C 35.002781 34.410922 35.059781 33.731297 34.675781 33.279297 C 34.483781 33.053297 34.217609 32.926797 33.943359 32.904297 z M 66.703125 49.212891 L 70.939453 49.449219 L 71.289062 58.779297 C 71.151405 59.180538 69.329023 64.180611 63.144531 64.517578 C 59.326255 64.726147 55.975797 62.957014 55.070312 59.498047 C 54.640319 57.855465 54.426926 53.537679 54.365234 49.736328 C 54.580624 49.886015 54.705827 50.051249 54.957031 50.177734 C 55.689112 50.546348 56.632797 50.783391 57.628906 50.53125 C 57.99327 50.43902 58.341265 50.214586 58.689453 49.996094 L 58.689453 56.919922 A 1.0001 1.0001 0 0 0 58.707031 57.105469 C 58.707031 57.105469 58.860998 57.963379 59.433594 58.808594 C 60.00619 59.653808 61.159844 60.559836 62.785156 60.488281 C 64.622718 60.407161 65.794402 59.483548 66.302734 58.564453 C 66.811066 57.645358 66.767578 56.736328 66.767578 56.736328 L 66.703125 49.212891 z M 58.212891 74.935547 C 57.938641 74.913047 57.655687 74.9955 57.429688 75.1875 C 56.976688 75.5705 56.922641 76.250125 57.306641 76.703125 C 57.690641 77.155125 58.368313 77.210172 58.820312 76.826172 C 59.272313 76.443172 59.329313 75.7645 58.945312 75.3125 C 58.753312 75.0865 58.487141 74.958047 58.212891 74.935547 z M 65.373047 75.070312 C 65.098797 75.047813 64.815844 75.130266 64.589844 75.322266 C 64.136844 75.706266 64.081797 76.385891 64.466797 76.837891 C 64.850797 77.289891 65.528469 77.344938 65.980469 76.960938 C 66.432469 76.576937 66.489469 75.897312 66.105469 75.445312 C 65.913469 75.219313 65.647297 75.092812 65.373047 75.070312 z"/></svg>