<svg xmlns="http://www.w3.org/2000/svg"  viewBox="0 0 100 100" width="24px" height="24px"><path d="M 49.623047 8.140625 A 2.0002 2.0002 0 0 0 47.615234 10.322266 L 48.042969 15.871094 A 2.0002 2.0002 0 1 0 52.03125 15.564453 L 51.603516 10.015625 A 2.0002 2.0002 0 0 0 49.623047 8.140625 z M 62.613281 10.373047 A 1.0001 1.0001 0 0 0 61.654297 11.070312 C 60.851836 13.480443 58.480469 17.603516 58.480469 17.603516 A 1.0001 1.0001 0 1 0 60.208984 18.609375 C 60.208984 18.609375 62.603195 14.553042 63.552734 11.701172 A 1.0001 1.0001 0 0 0 62.613281 10.373047 z M 39.572266 11.863281 A 1.0001 1.0001 0 0 0 38.685547 13.207031 L 40.447266 18.224609 A 1.0001 1.0001 0 1 0 42.333984 17.5625 L 40.574219 12.544922 A 1.0001 1.0001 0 0 0 39.572266 11.863281 z M 27.601562 16.408203 A 1.0001 1.0001 0 0 0 26.753906 17.904297 L 30.517578 24.710938 A 1.0001221 1.0001221 0 1 0 32.267578 23.742188 L 28.503906 16.935547 A 1.0001 1.0001 0 0 0 27.601562 16.408203 z M 78.689453 18.037109 A 1.0001 1.0001 0 0 0 78.148438 18.185547 L 69.832031 23.146484 A 1.0001 1.0001 0 1 0 70.857422 24.863281 L 79.171875 19.904297 A 1.0001 1.0001 0 0 0 78.689453 18.037109 z M 48.613281 22.001953 C 33.408568 22.077817 22.808653 35.155843 22.033203 49.894531 C 21.226835 65.214433 34.607715 77.201896 49.900391 77.966797 C 65.915057 78.767584 77.174639 65.118294 77.964844 50.105469 C 78.781215 34.588986 65.371436 22.798001 50.099609 22.035156 C 49.599728 22.010162 49.103756 21.999506 48.613281 22.001953 z M 88.626953 24.367188 A 2.0002 2.0002 0 0 0 87.552734 24.703125 L 77.3125 31.326172 A 2.0002 2.0002 0 1 0 79.484375 34.685547 L 89.724609 28.0625 A 2.0002 2.0002 0 0 0 88.626953 24.367188 z M 18.474609 24.824219 A 2.0002 2.0002 0 0 0 17.546875 28.548828 L 23.023438 31.861328 A 2.0002 2.0002 0 1 0 25.09375 28.439453 L 19.619141 25.125 A 2.0002 2.0002 0 0 0 18.474609 24.824219 z M 48.630859 26 C 49.050135 25.99818 49.472772 26.007916 49.900391 26.029297 C 50.135905 26.041061 50.369271 26.062489 50.603516 26.080078 L 49.550781 28.619141 A 1.0003765 1.0003765 0 1 0 51.398438 29.386719 L 52.673828 26.310547 C 64.793599 28.129598 74.612017 37.705309 73.970703 49.894531 C 73.931686 50.635812 73.861556 51.370364 73.767578 52.099609 L 69.677734 53.755859 A 1.0001 1.0001 0 1 0 70.427734 55.609375 L 73.373047 54.416016 C 73.109966 55.657009 72.769215 56.87054 72.351562 58.046875 L 67.429688 58.365234 A 1.0001894 1.0001894 0 1 0 67.560547 60.361328 L 71.525391 60.103516 C 68.057732 67.844334 61.180559 73.542063 52.310547 73.966797 L 51.445312 71.3125 A 1.0001 1.0001 0 0 0 50.458984 70.609375 A 1.0001 1.0001 0 0 0 49.542969 71.931641 L 50.208984 73.972656 C 50.172263 73.970995 50.136391 73.972542 50.099609 73.970703 C 48.799745 73.905687 47.519514 73.747751 46.265625 73.505859 L 46.789062 70.847656 A 1.0001 1.0001 0 0 0 45.789062 69.640625 A 1.0001 1.0001 0 0 0 44.826172 70.462891 L 44.316406 73.052734 C 43.059151 72.71385 41.83616 72.291722 40.658203 71.787109 L 41.683594 70.089844 A 1.0001 1.0001 0 0 0 40.863281 68.560547 A 1.0001 1.0001 0 0 0 39.970703 69.056641 L 38.84375 70.921875 C 37.827408 70.394021 36.851271 69.807325 35.923828 69.162109 L 37.878906 66.888672 A 1.0001 1.0001 0 0 0 37.125 65.226562 A 1.0001 1.0001 0 0 0 36.363281 65.585938 L 34.326172 67.955078 C 33.498637 67.277991 32.713545 66.557957 31.988281 65.789062 L 33.724609 63.34375 A 1.0001 1.0001 0 0 0 32.921875 61.753906 A 1.0001 1.0001 0 0 0 32.095703 62.185547 L 30.644531 64.226562 C 27.526751 60.283945 25.747996 55.412709 26.027344 50.105469 C 26.028445 50.084533 26.030106 50.063895 26.03125 50.042969 L 31.423828 52.580078 A 1.0001 1.0001 0 1 0 32.275391 50.771484 L 26.226562 47.923828 C 26.328766 47.11061 26.464556 46.308522 26.630859 45.517578 L 31.058594 48.412109 A 1.0001 1.0001 0 1 0 32.152344 46.738281 L 27.142578 43.462891 C 28.62168 38.322724 31.467685 33.828997 35.363281 30.6875 L 37.287109 34.001953 A 1.0007841 1.0007841 0 1 0 39.017578 32.996094 L 36.988281 29.5 C 39.542988 27.805991 42.47297 26.657154 45.705078 26.212891 L 45.205078 29.642578 A 1.0001 1.0001 0 1 0 47.183594 29.929688 L 47.753906 26.027344 C 48.044725 26.014829 48.335791 26.001281 48.630859 26 z M 57.796875 36.28125 C 57.169875 36.30825 56.683937 36.84175 56.710938 37.46875 C 56.739938 38.09675 57.269484 38.581688 57.896484 38.554688 C 58.523484 38.527687 59.010422 37.996141 58.982422 37.369141 C 58.955422 36.742141 58.423875 36.25425 57.796875 36.28125 z M 13.652344 36.681641 A 1.0001 1.0001 0 0 0 13.433594 38.652344 L 20.115234 40.431641 A 1.0005817 1.0005817 0 1 0 20.630859 38.498047 L 13.949219 36.71875 A 1.0001 1.0001 0 0 0 13.652344 36.681641 z M 88.351562 39.128906 A 1.0005898 1.0005898 0 0 0 88.310547 39.130859 A 1.0001 1.0001 0 0 0 88.240234 39.136719 L 79.974609 40.017578 A 1.0001 1.0001 0 1 0 80.185547 42.005859 L 88.453125 41.126953 A 1.0005898 1.0005898 0 0 0 88.351562 39.128906 z M 62.294922 40.224609 C 61.667922 40.251609 61.180031 40.783156 61.207031 41.410156 C 61.236031 42.037156 61.767531 42.523094 62.394531 42.496094 C 63.021531 42.469094 63.508469 41.937547 63.480469 41.310547 C 63.453469 40.683547 62.921922 40.197609 62.294922 40.224609 z M 62.859375 46.220703 C 62.232375 46.247703 61.744484 46.77925 61.771484 47.40625 C 61.798484 48.03325 62.330031 48.519187 62.957031 48.492188 C 63.584031 48.465187 64.071922 47.933641 64.044922 47.306641 C 64.017922 46.679641 63.486375 46.192703 62.859375 46.220703 z M 18.308594 46.779297 A 1.0001 1.0001 0 0 0 18.238281 46.78125 L 10.634766 47.099609 A 1.0001 1.0001 0 1 0 10.71875 49.097656 L 18.322266 48.779297 A 1.0001 1.0001 0 0 0 18.308594 46.779297 z M 92.064453 48.404297 L 81.863281 48.480469 A 1.0001 1.0001 0 1 0 81.876953 50.480469 L 92.080078 50.404297 A 1.0001 1.0001 0 1 0 92.064453 48.404297 z M 18.472656 54.142578 A 1.0001 1.0001 0 0 0 18.109375 54.203125 L 10.503906 56.853516 A 1.0001 1.0001 0 1 0 11.160156 58.742188 L 18.767578 56.091797 A 1.0001 1.0001 0 0 0 18.472656 54.142578 z M 81.328125 55.050781 A 2.0002 2.0002 0 0 0 81.238281 59.046875 L 89.214844 59.626953 A 2.0003452 2.0003452 0 0 0 89.503906 55.636719 L 81.527344 55.056641 A 2.0002 2.0002 0 0 0 81.328125 55.050781 z M 18.408203 61.019531 A 2.0002 2.0002 0 0 0 17.339844 61.373047 L 12.042969 64.923828 A 2.0005006 2.0005006 0 1 0 14.269531 68.248047 L 19.568359 64.697266 A 2.0002 2.0002 0 0 0 18.408203 61.019531 z M 78.240234 63.587891 A 1.0001 1.0001 0 0 0 78.138672 63.589844 A 1.0001 1.0001 0 0 0 77.892578 65.541016 L 84.837891 67.880859 A 1.0001 1.0001 0 1 0 85.476562 65.986328 L 78.533203 63.644531 A 1.0001 1.0001 0 0 0 78.240234 63.587891 z M 24.021484 67.654297 A 1.0001 1.0001 0 0 0 23.277344 68.052734 L 20.195312 72.035156 A 1.0003118 1.0003118 0 0 0 21.777344 73.259766 L 24.859375 69.275391 A 1.0001 1.0001 0 0 0 24.021484 67.654297 z M 74 69.367188 A 1.0001 1.0001 0 0 0 73.326172 71.130859 L 77.857422 75.066406 A 1.0002558 1.0002558 0 1 0 79.169922 73.556641 L 74.636719 69.621094 A 1.0001 1.0001 0 0 0 74 69.367188 z M 29.142578 73.365234 A 1.0001 1.0001 0 0 0 28.197266 73.939453 L 24.775391 80.958984 A 1.0001 1.0001 0 1 0 26.572266 81.835938 L 29.996094 74.816406 A 1.0001 1.0001 0 0 0 29.142578 73.365234 z M 66.736328 75.4375 A 2.0002 2.0002 0 0 0 65.59375 79.101562 L 71.605469 83.230469 A 2.0004048 2.0004048 0 1 0 73.869141 79.931641 L 67.859375 75.804688 A 2.0002 2.0002 0 0 0 66.736328 75.4375 z M 35.818359 76.921875 A 1.0001 1.0001 0 0 0 34.816406 77.697266 L 33.445312 83.255859 A 1.000703 1.000703 0 1 0 35.388672 83.734375 L 36.759766 78.175781 A 1.0001 1.0001 0 0 0 35.818359 76.921875 z M 43.076172 78.230469 A 2.0002 2.0002 0 0 0 41.173828 80.123047 L 40.755859 86.339844 A 2.0005726 2.0005726 0 1 0 44.748047 86.607422 L 45.166016 80.390625 A 2.0002 2.0002 0 0 0 43.076172 78.230469 z M 57.980469 79.552734 A 1.0001 1.0001 0 0 0 57.041016 80.929688 L 59.998047 88.492188 A 1.0003189 1.0003189 0 1 0 61.861328 87.763672 L 58.904297 80.201172 A 1.0001 1.0001 0 0 0 57.980469 79.552734 z M 50.597656 80.015625 A 1.0001 1.0001 0 0 0 49.591797 81.007812 L 49.425781 88.384766 A 1.0002522 1.0002522 0 1 0 51.425781 88.429688 L 51.589844 81.052734 A 1.0001 1.0001 0 0 0 50.597656 80.015625 z"/></svg>