<svg xmlns="http://www.w3.org/2000/svg"  viewBox="0 0 100 100" width="24px" height="24px"><path d="M 66.470703 5.2558594 C 59.69908 5.4787761 53.940117 8.7928941 50.404297 13.472656 C 46.021012 19.274063 45.066728 27.350292 49.449219 33.865234 L 13.53125 72.695312 A 2.0002 2.0002 0 0 0 13.472656 72.761719 C 10.431611 76.355681 9.3589032 80.201123 9.9335938 83.591797 C 10.508284 86.982471 12.635072 89.780321 15.400391 91.599609 C 20.931028 95.238187 29.480943 95.078795 34.599609 88.253906 A 2.0002 2.0002 0 0 0 34.658203 88.171875 L 64.949219 43.224609 C 66.281327 43.447373 68.500919 43.746064 71.619141 43.556641 C 76.01353 43.289694 81.493521 41.922226 84.664062 37.164062 L 84.664062 37.162109 C 88.961719 30.71468 89.051294 24.737762 87.931641 20.539062 C 86.811897 16.340024 84.494141 13.724609 84.494141 13.724609 A 2.0002 2.0002 0 0 0 81.3125 13.980469 L 74.902344 24.054688 L 68.029297 24.054688 L 64.611328 19.269531 L 74.414062 9.46875 A 2.0002 2.0002 0 0 0 73.535156 6.1269531 C 71.097882 5.4499326 68.727911 5.1815538 66.470703 5.2558594 z M 66.568359 9.2324219 C 67.247307 9.2124909 68.012587 9.4469953 68.720703 9.5058594 L 60.585938 17.640625 A 2.0002 2.0002 0 0 0 60.373047 20.216797 L 65.373047 27.216797 A 2.0002 2.0002 0 0 0 67 28.054688 L 76 28.054688 A 2.0002 2.0002 0 0 0 77.6875 27.126953 L 82.9375 18.878906 C 83.336704 19.668545 83.759329 20.409497 84.068359 21.568359 C 84.948616 24.869321 85.037253 29.39334 81.335938 34.945312 C 79.16635 38.202131 75.147176 39.335423 71.376953 39.564453 C 67.60673 39.793483 64.431641 39.101562 64.431641 39.101562 A 2.0002 2.0002 0 0 0 62.341797 39.935547 L 42.998047 68.638672 L 41.707031 67.347656 A 1.0001 1.0001 0 0 0 40.990234 67.042969 A 1.0001 1.0001 0 0 0 40.292969 68.761719 L 41.859375 70.328125 L 40.013672 73.070312 L 38.800781 71.453125 A 1.0001 1.0001 0 0 0 38.033203 71.042969 A 1.0001 1.0001 0 0 0 37.199219 72.654297 L 38.828125 74.826172 L 37.044922 77.474609 L 35.927734 74.681641 A 1.0001 1.0001 0 0 0 35 74.041016 A 1.0001 1.0001 0 0 0 34.072266 75.425781 L 35.693359 79.478516 L 34.408203 81.384766 L 32.927734 77.681641 A 1.0001 1.0001 0 0 0 32 77.041016 A 1.0001 1.0001 0 0 0 31.072266 78.425781 L 33.058594 83.390625 L 31.392578 85.861328 C 27.511086 91.026426 21.566462 90.867584 17.599609 88.257812 C 15.614928 86.952101 14.241716 85.064404 13.878906 82.923828 C 13.516432 80.785228 14.070268 78.256178 16.523438 75.353516 L 33.232422 57.289062 L 36.552734 58.949219 A 1.0001167 1.0001167 0 1 0 37.447266 57.160156 L 34.646484 55.759766 L 35.996094 54.300781 L 39.400391 56.853516 A 1.0001 1.0001 0 1 0 40.599609 55.253906 L 37.361328 52.826172 L 43.919922 45.736328 L 45.167969 47.609375 A 1.0001 1.0001 0 1 0 46.832031 46.5 L 45.316406 44.226562 L 53.46875 35.412109 A 2.0002 2.0002 0 0 0 53.998047 34.021484 L 57.513672 31.912109 A 1.0001 1.0001 0 0 0 57.027344 30.046875 A 1.0001 1.0001 0 0 0 56.486328 30.197266 L 53.115234 32.220703 C 52.911506 31.950887 52.719692 31.678018 52.541016 31.402344 L 55.447266 29.949219 A 1.0001 1.0001 0 0 0 55.003906 28.046875 A 1.0001 1.0001 0 0 0 54.552734 28.160156 L 51.572266 29.650391 C 51.402051 29.271028 51.25577 28.889338 51.126953 28.503906 L 53.554688 26.886719 A 1.0001 1.0001 0 0 0 52.980469 25.046875 A 1.0001 1.0001 0 0 0 52.445312 25.222656 L 50.626953 26.433594 C 50.509329 25.642459 50.476194 24.847152 50.511719 24.054688 L 54 24.054688 A 1.0001 1.0001 0 1 0 54 22.054688 L 50.751953 22.054688 C 51.190584 19.876194 52.172745 17.768092 53.595703 15.884766 C 53.805143 15.607566 54.043663 15.34939 54.271484 15.083984 L 56.199219 17.654297 A 1.0009764 1.0009764 0 0 0 57.800781 16.453125 L 55.679688 13.625 C 56.122301 13.220266 56.588071 12.837923 57.078125 12.478516 L 58.107422 14.505859 A 1.0005667 1.0005667 0 0 0 59.892578 13.601562 L 58.763672 11.376953 C 61.02074 10.109269 63.652623 9.3180148 66.568359 9.2324219 z M 65.199219 31.611328 C 64.249219 31.653328 63.500781 32.464875 63.550781 33.421875 C 63.590781 34.378875 64.399375 35.123078 65.359375 35.080078 C 66.309375 35.038078 67.059766 34.228484 67.009766 33.271484 C 66.969766 32.314484 66.159219 31.569328 65.199219 31.611328 z M 75.189453 33.855469 C 74.229453 33.897469 73.489297 34.707063 73.529297 35.664062 C 73.569297 36.621063 74.379844 37.366219 75.339844 37.324219 C 76.299844 37.282219 77.04 36.470672 77 35.513672 C 76.96 34.556672 76.149453 33.813469 75.189453 33.855469 z M 48.189453 51.583984 C 47.229453 51.625984 46.489297 52.437531 46.529297 53.394531 C 46.569297 54.350531 47.379844 55.094734 48.339844 55.052734 C 49.299844 55.010734 50.04 54.199188 50 53.242188 C 49.96 52.285187 49.139453 51.541984 48.189453 51.583984 z M 23.5 76.054688 C 21.750001 76.054688 20.310226 76.74499 19.376953 77.794922 C 18.443681 78.844854 18 80.207465 18 81.554688 C 18 82.90191 18.443681 84.262568 19.376953 85.3125 C 20.310226 86.362432 21.750001 87.054687 23.5 87.054688 C 25.249999 87.054688 26.689774 86.362432 27.623047 85.3125 C 28.556319 84.262568 29 82.90191 29 81.554688 C 29 80.207465 28.556319 78.844854 27.623047 77.794922 C 26.689774 76.74499 25.249999 76.054688 23.5 76.054688 z M 23.5 78.054688 C 24.749999 78.054688 25.560226 78.487432 26.126953 79.125 C 26.69368 79.762568 27 80.65191 27 81.554688 C 27 82.457465 26.69368 83.344854 26.126953 83.982422 C 25.560226 84.61999 24.749999 85.054688 23.5 85.054688 C 22.250001 85.054688 21.439774 84.61999 20.873047 83.982422 C 20.30632 83.344854 20 82.457465 20 81.554688 C 20 80.65191 20.30632 79.762568 20.873047 79.125 C 21.439774 78.487432 22.250001 78.054688 23.5 78.054688 z"/></svg>