<svg xmlns="http://www.w3.org/2000/svg"  viewBox="0 0 100 100" width="24px" height="24px"><path d="M 53.833984 13.558594 C 51.521631 13.586524 49.082053 13.846112 46.517578 14.388672 C 35.440401 16.732311 28.736059 21.95837 24.894531 26.642578 C 22.647341 29.382715 21.518151 31.662873 20.828125 33.355469 L 14.125 30.160156 A 2.0002 2.0002 0 0 0 11.335938 32.5 L 16.412109 50.851562 A 2.0002 2.0002 0 0 0 19.232422 52.109375 L 36.675781 43.423828 A 2.0002 2.0002 0 0 0 36.513672 39.771484 L 31.703125 37.884766 C 34.227429 35.17347 39.699849 30.548389 48.380859 30.521484 C 53.846299 30.503864 57.496348 33.45318 59.970703 36.585938 C 62.445058 39.718694 63.503906 42.839844 63.503906 42.839844 A 2.0002 2.0002 0 0 0 66.949219 43.466797 C 71.133691 38.343217 76.194474 36.049472 83.853516 37.478516 A 2.0002 2.0002 0 0 0 86.041016 34.685547 C 86.041016 34.685547 83.080609 28.154525 76.689453 22.378906 C 71.896086 18.047192 65.014586 14.091783 56.103516 13.605469 C 55.360926 13.564943 54.604769 13.549284 53.833984 13.558594 z M 53.912109 17.535156 C 54.598214 17.523672 55.269859 17.535269 55.927734 17.568359 C 63.822242 17.96544 69.70368 21.456104 74.007812 25.345703 C 77.296769 28.317898 79.310531 31.137868 80.654297 33.308594 C 74.81041 33.154291 69.914182 35.167637 66.048828 38.820312 C 65.369407 37.467109 64.460022 35.817464 63.109375 34.107422 C 63.058926 34.043549 62.996899 33.97997 62.945312 33.916016 L 64.591797 32.957031 A 1.0001 1.0001 0 0 0 64.128906 31.085938 A 1.0001 1.0001 0 0 0 63.583984 31.228516 L 61.591797 32.390625 C 61.228801 32.013463 60.859342 31.636505 60.455078 31.273438 L 61.550781 30.527344 A 1.0001 1.0001 0 0 0 60.957031 28.693359 A 1.0001 1.0001 0 0 0 60.425781 28.875 L 58.832031 29.960938 C 57.532338 29.013617 56.062534 28.185329 54.419922 27.580078 L 55.082031 26.779297 A 1.0001 1.0001 0 0 0 54.296875 25.132812 A 1.0001 1.0001 0 0 0 53.541016 25.505859 L 52.335938 26.964844 C 51.746887 26.829915 51.13906 26.726162 50.511719 26.652344 L 51.519531 25.126953 A 1.0001 1.0001 0 0 0 50.660156 23.566406 A 1.0001 1.0001 0 0 0 49.849609 24.025391 L 48.199219 26.525391 C 47.470466 26.532194 46.761061 26.569539 46.068359 26.630859 L 46.742188 24.650391 A 1.0001 1.0001 0 0 0 45.8125 23.314453 A 1.0001 1.0001 0 0 0 44.847656 24.005859 L 43.857422 26.923828 C 42.993311 27.074964 42.15971 27.26135 41.359375 27.484375 L 41.599609 25.570312 A 1.0001 1.0001 0 0 0 40.619141 24.431641 A 1.0001 1.0001 0 0 0 39.615234 25.322266 L 39.257812 28.173828 C 30.974087 31.261264 26.689453 37.607422 26.689453 37.607422 A 2.0002 2.0002 0 0 0 27.621094 40.580078 L 30.861328 41.849609 L 27.875 43.337891 L 27.363281 42.058594 A 1.0001 1.0001 0 0 0 26.435547 41.416016 A 1.0001 1.0001 0 0 0 25.505859 42.798828 L 26.078125 44.232422 L 24.830078 44.853516 L 23.640625 42.466797 A 1.0001 1.0001 0 0 0 22.761719 41.900391 A 1.0001 1.0001 0 0 0 21.849609 43.357422 L 23.039062 45.746094 L 19.621094 47.447266 L 16.359375 35.65625 L 21.070312 37.902344 A 2.0002 2.0002 0 0 0 23.873047 36.566406 C 23.873047 36.566406 24.655559 33.243479 27.988281 29.179688 C 31.321004 25.115896 37.11588 20.467095 47.345703 18.302734 C 49.667104 17.811604 51.853796 17.569608 53.912109 17.535156 z M 64.169922 25.269531 C 63.917797 25.314156 63.683891 25.455141 63.525391 25.681641 C 63.209391 26.132641 63.318484 26.758219 63.771484 27.074219 C 64.222484 27.390219 64.848063 27.279172 65.164062 26.826172 C 65.481062 26.375172 65.369969 25.752547 64.917969 25.435547 C 64.691969 25.277547 64.422047 25.224906 64.169922 25.269531 z M 69.646484 26.351562 C 69.394484 26.396062 69.159953 26.537172 69.001953 26.763672 C 68.684953 27.214672 68.796047 27.838297 69.248047 28.154297 C 69.700047 28.471297 70.324625 28.360203 70.640625 27.908203 C 70.957625 27.456203 70.846531 26.832625 70.394531 26.515625 C 70.168531 26.358125 69.898484 26.307063 69.646484 26.351562 z M 79.818359 50.027344 A 2.0002 2.0002 0 0 0 78.927734 50.248047 L 61.65625 59.078125 A 2.0002 2.0002 0 0 0 61.851562 62.726562 L 66.707031 64.583984 C 64.265705 67.33151 58.902383 72.051925 50.177734 72.068359 C 39.278623 72.088639 34.935547 59.882814 34.935547 59.882812 A 2.0002 2.0002 0 0 0 31.601562 59.169922 C 27.535587 63.44344 22.717285 65.47462 16.609375 65.349609 A 2.0002 2.0002 0 0 0 14.708984 68.085938 C 14.708984 68.085938 17.09911 74.124188 22.945312 79.607422 C 28.791515 85.090655 38.316603 90.100696 52.041016 88.201172 C 63.352316 86.635619 70.080104 81.293675 73.8125 76.322266 C 76.025244 73.374975 77.060925 70.896692 77.673828 69.054688 L 84.275391 72.132812 A 2.0002 2.0002 0 0 0 87.041016 69.765625 L 81.759766 51.472656 A 2.0002 2.0002 0 0 0 79.818359 50.027344 z M 78.589844 54.912109 L 81.978516 66.648438 L 77.28125 64.457031 A 2.0002 2.0002 0 0 0 74.466797 65.917969 C 74.466797 65.917969 74.407533 66.225227 74.267578 66.728516 L 71.458984 65.115234 C 71.56946 64.957416 71.695313 64.775391 71.695312 64.775391 A 2.0002 2.0002 0 0 0 70.722656 61.837891 L 67.474609 60.595703 L 78.589844 54.912109 z M 32.347656 63.779297 C 34.530504 68.024571 39.982059 76.087345 50.185547 76.068359 C 58.443912 76.052806 64.319132 72.297484 67.824219 69.121094 L 71.855469 72.082031 C 71.487468 72.679503 71.086432 73.291656 70.613281 73.921875 C 67.81644 77.647161 63.171814 81.661916 55.132812 83.5625 L 54.753906 81.865234 A 1.0001 1.0001 0 0 0 53.740234 81.070312 A 1.0001 1.0001 0 0 0 52.802734 82.300781 L 53.171875 83.966797 C 52.862786 84.02277 52.540939 84.069255 52.222656 84.119141 L 52.076172 82.365234 A 1.0001 1.0001 0 0 0 51.080078 81.433594 A 1.0001 1.0001 0 0 0 50.082031 82.53125 L 50.236328 84.376953 C 48.917853 84.519425 47.647612 84.598023 46.429688 84.609375 L 46.585938 83.556641 A 1.0001 1.0001 0 0 0 45.630859 82.396484 A 1.0001 1.0001 0 0 0 44.607422 83.265625 L 44.414062 84.572266 C 43.187123 84.512861 42.006802 84.396846 40.884766 84.216797 L 41.673828 81.494141 A 1.0001 1.0001 0 0 0 40.685547 80.201172 A 1.0001 1.0001 0 0 0 39.753906 80.9375 L 38.916016 83.828125 C 37.802202 83.571306 36.738983 83.262024 35.732422 82.902344 L 36.78125 80.455078 A 1.0001 1.0001 0 0 0 35.859375 79.048828 A 1.0001 1.0001 0 0 0 34.943359 79.667969 L 33.876953 82.15625 C 33.093936 81.810808 32.341493 81.440719 31.626953 81.044922 L 32.525391 79.740234 A 1.0001 1.0001 0 0 0 31.699219 78.162109 A 1.0001 1.0001 0 0 0 30.880859 78.605469 L 29.910156 80.011719 C 29.076557 79.469449 28.294573 78.900081 27.560547 78.3125 L 28.40625 77.544922 A 1.0001 1.0001 0 0 0 27.763672 75.794922 A 1.0001 1.0001 0 0 0 27.0625 76.0625 L 26.027344 77 C 25.913372 76.896079 25.79293 76.793833 25.681641 76.689453 C 22.504459 73.709531 20.808406 71.064849 19.730469 69.101562 C 24.494533 68.611542 28.740133 66.805426 32.347656 63.779297 z M 70.201172 66.699219 L 73.601562 68.652344 C 73.397434 69.159487 73.140483 69.720272 72.837891 70.322266 L 69.277344 67.707031 C 69.619668 67.349028 69.93208 67.010603 70.201172 66.699219 z M 30.419922 69.181641 C 30.168172 69.228766 29.933344 69.371609 29.777344 69.599609 C 29.465344 70.054609 29.583063 70.679234 30.039062 70.990234 C 30.495062 71.302234 31.117687 71.185469 31.429688 70.730469 C 31.741687 70.274469 31.624922 69.651844 31.169922 69.339844 C 30.941922 69.184344 30.671672 69.134516 30.419922 69.181641 z"/></svg>