<svg xmlns="http://www.w3.org/2000/svg"  viewBox="0 0 100 100" width="24px" height="24px"><path d="M 52.929688 7.28125 A 2.0002 2.0002 0 0 0 50.882812 9.4804688 C 52.105875 21.576317 48.253716 29.44046 44.136719 34.439453 C 41.727558 37.364735 39.571175 39.008231 37.939453 40.072266 C 37.299401 36.933454 35.913537 30.505326 33.511719 24.033203 A 2.0002 2.0002 0 0 0 30.566406 23.039062 C 20.158564 29.618427 13.695956 41.712657 13.001953 54.894531 C 11.937592 75.117399 29.627796 90.984147 49.898438 91.998047 C 71.074026 93.056826 85.947891 75.021328 86.996094 55.105469 C 88.050477 35.066994 77.684863 12.999606 53.326172 7.3320312 A 2.0002 2.0002 0 0 0 52.929688 7.28125 z M 54.871094 12.050781 C 61.980644 14.162639 67.652459 17.819949 71.992188 22.4375 L 68.521484 23.1875 A 1.0001 1.0001 0 1 0 68.943359 25.142578 L 73.501953 24.158203 C 74.571819 25.447166 75.549117 26.79685 76.433594 28.201172 L 73.869141 29.015625 A 1.0001 1.0001 0 1 0 74.474609 30.921875 L 77.480469 29.966797 C 78.263686 31.366108 78.961631 32.808457 79.576172 34.287109 L 76.607422 34.613281 A 1.0001391 1.0001391 0 0 0 76.826172 36.601562 L 80.326172 36.216797 C 80.915162 37.851387 81.410107 39.521439 81.806641 41.214844 L 78.628906 42.125 A 1.0001 1.0001 0 1 0 79.179688 44.046875 L 82.224609 43.175781 C 82.47614 44.503826 82.663956 45.843507 82.802734 47.1875 L 79.115234 47.833984 A 1.0001 1.0001 0 1 0 79.460938 49.802734 L 82.96875 49.1875 C 83.066382 50.759067 83.088353 52.332762 83.037109 53.900391 L 79.732422 54 A 1.0004582 1.0004582 0 0 0 79.792969 56 L 82.927734 55.90625 C 82.80519 57.475993 82.590653 59.025343 82.289062 60.548828 L 77.826172 60.683594 A 1.0001 1.0001 0 1 0 77.886719 62.681641 L 81.837891 62.5625 C 80.951991 66.066552 79.599792 69.392926 77.832031 72.416016 L 74.240234 68.820312 A 1.0001 1.0001 0 0 0 73.521484 68.517578 A 1.0001 1.0001 0 0 0 72.824219 70.234375 L 76.742188 74.154297 C 70.972552 82.832303 61.603904 88.577168 50.099609 88.001953 C 48.025831 87.898227 45.988862 87.615861 44.001953 87.185547 L 44.001953 84 A 1.0001 1.0001 0 0 0 42.986328 82.986328 A 1.0001 1.0001 0 0 0 42.001953 84 L 42.001953 86.699219 C 40.471901 86.279475 38.980618 85.763822 37.535156 85.164062 L 38.894531 82.447266 A 1.0001 1.0001 0 0 0 37.955078 80.988281 A 1.0001 1.0001 0 0 0 37.107422 81.552734 L 35.707031 84.351562 C 34.229434 83.643421 32.808954 82.844698 31.457031 81.958984 L 35.708984 77.707031 A 1.0001 1.0001 0 0 0 34.980469 75.990234 A 1.0001 1.0001 0 0 0 34.292969 76.292969 L 29.791016 80.794922 C 28.690653 79.981213 27.644896 79.108544 26.658203 78.181641 L 28.859375 74.513672 A 1.0001 1.0001 0 0 0 28.033203 72.988281 A 1.0001 1.0001 0 0 0 27.142578 73.486328 L 25.197266 76.730469 C 24.262898 75.738196 23.401354 74.688601 22.605469 73.595703 L 25.78125 69.625 A 1.0001 1.0001 0 0 0 24.96875 67.990234 A 1.0001 1.0001 0 0 0 24.220703 68.375 L 21.425781 71.869141 C 20.756307 70.806214 20.159169 69.7016 19.628906 68.564453 L 22.78125 64.625 A 1.0001 1.0001 0 0 0 21.96875 62.990234 A 1.0001 1.0001 0 0 0 21.220703 63.375 L 18.748047 66.466797 C 18.248597 65.130897 17.851375 63.753472 17.556641 62.339844 L 20.447266 60.894531 A 1.0001 1.0001 0 0 0 20.005859 58.994141 A 1.0001 1.0001 0 0 0 19.554688 59.105469 L 17.201172 60.28125 C 16.979703 58.597158 16.903254 56.869426 16.996094 55.105469 C 17.575434 44.101493 22.631059 34.083352 30.519531 28.021484 C 32.906595 35.331361 34.609375 43.59375 34.609375 43.59375 A 2.0002 2.0002 0 0 0 36.845703 45.205078 L 37.90625 48.275391 A 1.0003209 1.0003209 0 1 0 39.796875 47.621094 L 38.669922 44.355469 C 39.110359 44.097529 39.638406 43.76534 40.255859 43.345703 L 42.017578 45.382812 A 1.0004522 1.0004522 0 0 0 43.53125 44.074219 L 41.878906 42.164062 C 42.405787 41.755455 42.956984 41.30043 43.527344 40.796875 L 45.818359 42.427734 A 1.0001 1.0001 0 1 0 46.978516 40.798828 L 45.007812 39.396484 C 45.671002 38.736295 46.336142 38.033067 47 37.244141 L 49.677734 38.34375 A 1.0001 1.0001 0 1 0 50.4375 36.494141 L 48.28125 35.609375 C 52.108689 30.367809 55.244411 22.549337 54.871094 12.050781 z M 45.445312 64.746094 C 45.171437 64.772719 44.909203 64.903813 44.720703 65.132812 C 44.343703 65.590812 44.409188 66.269484 44.867188 66.646484 C 45.324187 67.023484 46.003859 66.956047 46.380859 66.498047 C 46.757859 66.040047 46.690422 65.363328 46.232422 64.986328 C 46.003422 64.797828 45.719188 64.719469 45.445312 64.746094 z M 52.244141 70.34375 C 51.970266 70.370375 51.706078 70.501469 51.517578 70.730469 C 51.140578 71.188469 51.206063 71.865188 51.664062 72.242188 C 52.122062 72.619188 52.800734 72.553703 53.177734 72.095703 C 53.554734 71.637703 53.48925 70.959031 53.03125 70.582031 C 52.80225 70.393531 52.518016 70.317125 52.244141 70.34375 z M 46.587891 71.816406 C 46.314016 71.843031 46.049828 71.974125 45.861328 72.203125 C 45.484328 72.661125 45.549813 73.339797 46.007812 73.716797 C 46.465812 74.093797 47.144484 74.026359 47.521484 73.568359 C 47.898484 73.110359 47.831047 72.433641 47.373047 72.056641 C 47.144047 71.868141 46.861766 71.789781 46.587891 71.816406 z"/></svg>