<svg xmlns="http://www.w3.org/2000/svg"  viewBox="0 0 100 100" width="24px" height="24px"><path d="M 65.712891 16.742188 C 60.6787 16.711227 54.994685 16.776728 49.607422 16.871094 C 39.16895 17.053931 30.31965 17.355682 29.755859 17.375 A 2.0002 2.0002 0 0 0 29.601562 17.371094 L 23.378906 17.507812 A 2.0002 2.0002 0 0 0 21.464844 19.097656 C 18.816484 31.740467 11.674282 46.529495 6.0097656 52.701172 A 2.0002 2.0002 0 0 0 5.5175781 54.419922 L 11.101562 84.355469 A 2.0002 2.0002 0 0 0 13.060547 85.988281 L 46.855469 86.097656 A 2.0002 2.0002 0 0 0 47.304688 86.046875 L 85.488281 85.833984 A 2.0002 2.0002 0 0 0 87.441406 84.21875 L 93.740234 52.158203 A 2.0002 2.0002 0 0 0 93.490234 50.736328 C 93.490234 50.736328 90.386123 45.60187 87.095703 39.007812 C 83.805283 32.413756 80.374298 24.281284 79.695312 18.929688 A 2.0002 2.0002 0 0 0 77.919922 17.193359 C 75.131631 16.900847 70.747081 16.773146 65.712891 16.742188 z M 64.634766 20.771484 C 67.386961 20.790081 69.888827 20.838836 72.072266 20.916016 C 72.524782 21.989317 72.872845 22.773068 72.90625 23.066406 C 72.92953 23.270871 72.923281 23.345078 72.757812 23.634766 C 72.630462 23.857721 72.274761 24.268489 71.902344 24.691406 L 33.595703 25.076172 C 33.084917 23.823586 32.619738 22.565342 32.236328 21.300781 C 35.204223 21.205439 41.35583 21.016858 49.677734 20.871094 C 54.721137 20.782755 59.970383 20.739966 64.634766 20.771484 z M 74.318359 21.011719 C 74.941925 21.0452 75.560167 21.07987 76.085938 21.121094 C 76.506919 23.367366 77.203649 25.77076 78.0625 28.216797 L 75.984375 30.117188 A 1.00021 1.00021 0 1 0 77.333984 31.59375 L 78.8125 30.242188 C 78.994738 30.717918 79.179234 31.19206 79.371094 31.667969 L 76.820312 33.855469 A 1.0001 1.0001 0 1 0 78.121094 35.373047 L 80.173828 33.615234 C 80.594376 34.598209 81.031275 35.569668 81.474609 36.533203 L 76.457031 41.160156 A 1.0001 1.0001 0 1 0 77.8125 42.630859 L 82.361328 38.435547 C 82.495791 38.716555 82.630693 38.986075 82.765625 39.263672 L 80.955078 41.384766 A 1.0001 1.0001 0 1 0 82.474609 42.683594 L 83.730469 41.212891 C 84.009064 41.76733 84.2608 42.238349 84.529297 42.759766 L 82.808594 44.783203 A 1.0003431 1.0003431 0 1 0 84.332031 46.080078 L 85.521484 44.681641 C 87.56084 48.533114 88.984948 50.925546 89.429688 51.666016 C 85.180816 52.322216 80.408707 52.735668 75.162109 52.925781 L 68.5 45.121094 L 69.597656 41.841797 A 1.0001 1.0001 0 0 0 69.375 40.833984 L 65.294922 36.548828 C 67.795685 34.00667 69.123636 31.505636 69.78125 29.619141 C 70.311771 28.097237 70.400667 27.134987 70.427734 26.707031 L 72.388672 26.6875 A 1.0001 1.0001 0 0 0 73.111328 26.367188 C 73.732551 25.697367 74.178951 25.178766 74.494141 24.626953 C 74.80933 24.07514 74.960169 23.433379 74.892578 22.839844 C 74.821218 22.213208 74.608067 21.663685 74.318359 21.011719 z M 28.175781 21.402344 C 29.251786 25.352189 30.905893 29.177402 32.845703 32.777344 L 29.908203 35.898438 A 1.0003544 1.0003544 0 1 0 31.365234 37.269531 L 33.865234 34.611328 C 34.262735 35.29854 34.665435 35.977616 35.080078 36.644531 L 33.039062 38.333984 A 1.0001 1.0001 0 1 0 34.3125 39.875 L 36.166016 38.34375 C 37.482725 40.345884 38.854014 42.23068 40.222656 43.990234 L 35.736328 49.910156 A 1.0001 1.0001 0 1 0 37.330078 51.117188 L 41.505859 45.607422 C 44.307161 49.051562 47.016298 51.906307 49.109375 53.916016 L 47.230469 67.203125 L 45.408203 66.666016 A 1.0001 1.0001 0 0 0 45.113281 66.621094 A 1.0001 1.0001 0 0 0 44.84375 68.583984 L 46.947266 69.205078 L 46.599609 71.658203 L 44.28125 70.191406 A 1.0001 1.0001 0 0 0 43.712891 70.029297 A 1.0001 1.0001 0 0 0 43.210938 71.880859 L 46.292969 73.830078 L 46.023438 75.738281 L 42.289062 72.759766 A 1.0001 1.0001 0 0 0 41.642578 72.533203 A 1.0001 1.0001 0 0 0 41.042969 74.324219 L 45.697266 78.039062 L 45.125 82.091797 L 35.759766 82.0625 L 36.826172 78.140625 A 1.0001 1.0001 0 0 0 35.814453 76.867188 A 1.0001 1.0001 0 0 0 34.896484 77.617188 L 33.689453 82.054688 L 31.539062 82.048828 L 32.214844 79.369141 A 1.0001 1.0001 0 0 0 31.28125 78.111328 A 1.0001 1.0001 0 0 0 30.275391 78.880859 L 29.478516 82.041016 L 24.140625 82.023438 L 24.974609 80.167969 A 1.0001 1.0001 0 0 0 24.074219 78.746094 A 1.0001 1.0001 0 0 0 23.150391 79.349609 L 21.951172 82.017578 L 19.710938 82.009766 L 20.548828 80.208984 A 1.0001 1.0001 0 0 0 19.669922 78.773438 A 1.0001 1.0001 0 0 0 18.736328 79.365234 L 17.505859 82.003906 L 16.039062 81.998047 L 17.646484 78.769531 A 1.0001 1.0001 0 0 0 16.804688 77.3125 A 1.0001 1.0001 0 0 0 15.855469 77.878906 L 14.478516 80.650391 L 9.6074219 54.529297 C 10.830598 53.11003 12.057591 51.439372 13.261719 49.587891 L 15.369141 52.21875 A 1.0001 1.0001 0 1 0 16.929688 50.96875 L 14.384766 47.792969 C 14.728125 47.224698 15.070779 46.646472 15.408203 46.050781 L 17.701172 48.501953 A 1.0001 1.0001 0 1 0 19.162109 47.136719 L 16.421875 44.207031 C 16.805743 43.485128 17.182557 42.7437 17.554688 41.992188 L 19.388672 42.515625 A 1.0005591 1.0005591 0 1 0 19.939453 40.591797 L 18.4375 40.164062 C 21.168555 34.326051 23.487527 27.797273 24.949219 21.472656 L 28.175781 21.402344 z M 68.425781 26.726562 C 68.391979 27.118215 68.301732 27.787212 67.892578 28.960938 C 67.325974 30.586354 66.162249 32.794685 63.912109 35.097656 L 60 30.990234 A 1.0001 1.0001 0 0 0 58.568359 30.972656 L 56.898438 32.642578 L 54.195312 29.861328 A 1.0001 1.0001 0 0 0 52.875 29.761719 L 41.224609 38.583984 C 38.707213 35.050957 36.310867 31.129188 34.449219 27.066406 L 68.425781 26.726562 z M 53.376953 31.890625 L 55.482422 34.056641 L 52.845703 36.693359 A 1.0001 1.0001 0 0 0 52.818359 38.080078 L 56.011719 41.527344 L 49.0625 48.193359 C 47.021529 45.995043 44.700831 43.272385 42.408203 40.199219 L 53.376953 31.890625 z M 59.257812 33.111328 L 67.509766 41.777344 L 65.242188 48.552734 L 54.939453 37.427734 L 59.257812 33.111328 z M 57.248047 43.113281 L 60.246094 46.150391 L 55.455078 52.734375 C 54.68606 52.698022 53.910591 52.657665 53.128906 52.615234 A 2.0002 2.0002 0 0 0 52.59375 51.769531 C 51.960733 51.176947 51.221846 50.439986 50.443359 49.640625 L 57.248047 43.113281 z M 67.759766 47.333984 L 72.603516 53.009766 C 68.014549 53.110267 63.085751 53.051393 57.847656 52.84375 L 61.652344 47.619141 L 64.921875 51.150391 A 1.0001 1.0001 0 0 0 66.603516 50.787109 L 67.759766 47.333984 z M 89.363281 53.695312 L 83.830078 81.84375 L 80.75 81.861328 L 82.714844 73.621094 A 1.0001 1.0001 0 0 0 81.765625 72.375 A 1.0001 1.0001 0 0 0 80.769531 73.15625 L 78.689453 81.873047 L 77.746094 81.876953 L 78.068359 80.851562 A 1.0001 1.0001 0 0 0 77.107422 79.539062 A 1.0001 1.0001 0 0 0 76.160156 80.251953 L 75.644531 81.888672 L 73.810547 81.898438 L 75.232422 77.654297 A 1.0001 1.0001 0 0 0 74.296875 76.322266 A 1.0001 1.0001 0 0 0 73.335938 77.017578 L 71.697266 81.910156 L 70.078125 81.919922 L 70.617188 79.841797 A 1.0001 1.0001 0 0 0 69.691406 78.578125 A 1.0001 1.0001 0 0 0 68.681641 79.341797 L 68.009766 81.931641 L 49.173828 82.035156 L 53.050781 54.615234 C 57.122003 54.836057 61.021965 54.971871 64.75 55.025391 L 63.802734 58.894531 A 1.0002378 1.0002378 0 1 0 65.746094 59.369141 L 66.802734 55.048828 C 67.753089 55.054382 68.687109 55.053213 69.613281 55.046875 L 68.119141 61.804688 A 1.0001263 1.0001263 0 1 0 70.072266 62.236328 L 71.666016 55.023438 C 72.396916 55.011089 73.130841 55.000737 73.845703 54.980469 L 72.78125 57.990234 A 1.0004107 1.0004107 0 1 0 74.667969 58.65625 L 75.996094 54.896484 C 76.499891 54.875941 77.018399 54.862659 77.513672 54.837891 L 77.626953 57.09375 A 1.0002642 1.0002642 0 1 0 79.625 56.994141 L 79.507812 54.716797 C 83.028214 54.493879 86.314403 54.153648 89.363281 53.695312 z M 35.716797 60.720703 C 35.425797 60.698953 35.126672 60.788641 34.888672 60.994141 C 34.412672 61.405141 34.357578 62.124563 34.767578 62.601562 C 35.177578 63.077562 35.899 63.130703 36.375 62.720703 C 36.851 62.310703 36.905141 61.589281 36.494141 61.113281 C 36.289141 60.874781 36.007797 60.742453 35.716797 60.720703 z M 26.761719 66.464844 C 26.470719 66.443094 26.171594 66.532781 25.933594 66.738281 C 25.457594 67.148281 25.403453 67.868703 25.814453 68.345703 C 26.224453 68.821703 26.945875 68.874844 27.421875 68.464844 C 27.897875 68.054844 27.952016 67.333422 27.541016 66.857422 C 27.336016 66.618922 27.052719 66.486594 26.761719 66.464844 z M 35.054688 68.001953 C 34.763688 67.980203 34.464562 68.067937 34.226562 68.273438 C 33.750563 68.684438 33.694469 69.404859 34.105469 69.880859 C 34.516469 70.356859 35.235891 70.411953 35.712891 70.001953 C 36.188891 69.591953 36.243031 68.870531 35.832031 68.394531 C 35.627031 68.156031 35.345687 68.023703 35.054688 68.001953 z"/></svg>