<svg xmlns="http://www.w3.org/2000/svg"  viewBox="0 0 100 100" width="24px" height="24px"><path d="M 36.044922 1.78125 A 1.0001 1.0001 0 0 0 35.300781 3.3847656 C 35.300781 3.3847656 35.548253 3.7191524 35.660156 4.2988281 C 35.77206 4.8785038 35.764388 5.5976901 35.033203 6.5195312 C 33.67315 8.2346224 33.351292 9.8729222 33.447266 11.0625 C 33.543236 12.252078 34.072266 13.068359 34.072266 13.068359 A 1.0002501 1.0002501 0 1 0 35.734375 11.955078 C 35.734375 11.955078 35.499932 11.627766 35.441406 10.902344 C 35.382876 10.176922 35.515666 9.1286275 36.599609 7.7617188 C 37.682424 6.39656 37.820643 4.9415431 37.623047 3.9179688 C 37.425451 2.8943943 36.908203 2.1972656 36.908203 2.1972656 A 1.0001 1.0001 0 0 0 36.044922 1.78125 z M 63.818359 2.5449219 A 1.0001 1.0001 0 0 0 63.140625 4.2695312 C 63.140625 4.2695312 63.789308 4.9124948 64.287109 5.7441406 C 64.53601 6.1599635 64.734048 6.6114449 64.804688 6.9902344 C 64.875327 7.3690238 64.841808 7.6377051 64.683594 7.9003906 C 63.398409 10.033182 62.595703 12.363281 62.595703 12.363281 A 1.0001 1.0001 0 1 0 64.484375 13.021484 C 64.484375 13.021484 65.257621 10.826802 66.398438 8.9335938 C 66.846726 8.1892791 66.90411 7.3466481 66.769531 6.625 C 66.634952 5.9033519 66.331881 5.264724 66.003906 4.7167969 C 65.347957 3.6209427 64.539063 2.8398438 64.539062 2.8398438 A 1.0001 1.0001 0 0 0 63.818359 2.5449219 z M 69.724609 3.6738281 A 1.0001 1.0001 0 0 0 69.302734 5.5722656 C 69.302734 5.5722656 69.846801 5.8749927 70.158203 6.3808594 C 70.469605 6.8867261 70.70682 7.4612335 69.722656 8.7988281 C 68.467562 10.505388 68.11567 11.901762 68.181641 12.933594 C 68.214621 13.44951 68.350766 13.862293 68.492188 14.152344 C 68.633607 14.442395 68.833984 14.669922 68.833984 14.669922 A 1.0001 1.0001 0 1 0 70.298828 13.310547 C 70.298828 13.310547 70.330426 13.356251 70.291016 13.275391 C 70.251596 13.194531 70.193126 13.04735 70.177734 12.806641 C 70.146954 12.325222 70.276074 11.422815 71.333984 9.984375 C 72.663809 8.1769736 72.515926 6.3954146 71.861328 5.3320312 C 71.20673 4.268648 70.207031 3.7871094 70.207031 3.7871094 A 1.0001 1.0001 0 0 0 69.724609 3.6738281 z M 30.679688 4.0410156 A 1.0001 1.0001 0 0 0 29.779297 5.4921875 C 29.776241 5.4875559 29.775719 5.4898359 29.783203 5.5273438 C 29.799033 5.6064787 29.816933 5.7564375 29.783203 5.9882812 C 29.715743 6.4519689 29.438488 7.2695967 28.351562 8.4179688 C 27.586088 9.2267173 27.248395 10.220501 27.220703 11.140625 C 27.193013 12.060749 27.434003 12.913026 27.740234 13.644531 C 28.352697 15.107542 29.283203 16.171875 29.283203 16.171875 A 1.0001 1.0001 0 1 0 30.796875 14.867188 C 30.796875 14.867188 30.051975 13.984333 29.585938 12.871094 C 29.352919 12.314474 29.203129 11.720204 29.21875 11.201172 C 29.23437 10.682139 29.374209 10.24572 29.802734 9.7929688 C 31.103809 8.4183406 31.626182 7.2089061 31.761719 6.2773438 C 31.829489 5.8115625 31.801441 5.4211618 31.744141 5.1347656 C 31.68689 4.8483694 31.566406 4.5957031 31.566406 4.5957031 A 1.0001 1.0001 0 0 0 30.679688 4.0410156 z M 49.728516 10.591797 C 42.558787 10.733869 39.1152 17.808224 39.033203 17.978516 C 33.934793 18.070166 28.832346 18.079806 23.740234 18.320312 A 2.0002 2.0002 0 0 0 23.736328 18.322266 C 20.812493 18.465423 18.480072 20.915129 18.478516 23.841797 L 18.478516 29.978516 A 2.0002 2.0002 0 0 0 19.822266 31.865234 C 21.510068 52.104618 24.838898 64.374571 26.958984 88.117188 A 2.0002 2.0002 0 0 0 28.310547 89.833984 C 41.273343 94.221392 59.223207 93.523227 71.933594 88.978516 A 2.0002 2.0002 0 0 0 73.259766 87.142578 C 73.391867 81.623415 74.884939 67.496745 76.345703 54.927734 C 77.742491 42.909198 79.037416 32.769759 79.154297 31.855469 A 2.0002 2.0002 0 0 0 80.466797 29.978516 L 80.466797 23.037109 C 80.466797 20.56149 78.484844 18.485258 76.011719 18.369141 A 2.0002 2.0002 0 0 0 76.007812 18.369141 C 71.126233 18.145822 66.253643 18.12149 61.376953 18.015625 C 61.238038 17.381398 60.862588 15.962769 59.515625 14.363281 C 57.822745 12.353025 54.649792 10.493638 49.728516 10.591797 z M 49.808594 14.589844 C 53.761317 14.511004 55.478912 15.777959 56.457031 16.939453 C 56.768026 17.308752 56.879963 17.599276 57.042969 17.912109 C 52.71086 17.850179 48.380655 17.829357 44.052734 17.867188 C 45.262491 16.354357 47.044644 14.644613 49.808594 14.589844 z M 49.841797 21.738281 C 58.490136 21.752981 67.151236 21.968614 75.822266 22.365234 C 76.20314 22.383114 76.466797 22.656728 76.466797 23.037109 L 76.466797 28.072266 C 57.392891 29.249398 39.635866 28.983693 22.478516 28.041016 L 22.478516 23.84375 L 22.478516 23.841797 C 22.479916 23.007426 23.100094 22.357216 23.933594 22.316406 C 32.55765 21.909147 41.193461 21.723586 49.841797 21.738281 z M 23.861328 32.158203 C 26.489913 32.29553 29.134494 32.415923 31.796875 32.517578 L 30.65625 34.802734 A 1.0001 1.0001 0 1 0 32.445312 35.695312 L 33.990234 32.603516 C 34.896662 32.634353 35.813784 32.653525 36.724609 32.679688 L 35.927734 34.275391 A 1.0001165 1.0001165 0 1 0 37.716797 35.169922 L 38.931641 32.738281 C 40.003948 32.764365 41.073514 32.793379 42.152344 32.8125 L 40.943359 34.464844 A 1.0001 1.0001 0 1 0 42.556641 35.646484 L 44.611328 32.841797 C 45.388089 32.851572 46.163005 32.863215 46.943359 32.869141 L 46.025391 34.958984 A 1.0004824 1.0004824 0 0 0 47.857422 35.763672 L 49.121094 32.886719 C 49.95417 32.889092 50.799342 32.877245 51.636719 32.875 L 50.625 34.902344 A 1.0001161 1.0001161 0 1 0 52.414062 35.796875 L 53.878906 32.867188 C 54.789162 32.860171 55.695743 32.856505 56.611328 32.84375 L 55.791016 35.478516 A 1.0001 1.0001 0 1 0 57.699219 36.074219 L 58.720703 32.798828 C 59.648327 32.781425 60.576424 32.76576 61.509766 32.742188 L 60.791016 33.882812 A 1.0001 1.0001 0 1 0 62.482422 34.947266 L 63.910156 32.681641 C 65.029466 32.647033 66.165053 32.594694 67.292969 32.550781 L 66.572266 34.589844 A 1.0001 1.0001 0 1 0 68.457031 35.257812 L 69.445312 32.466797 C 71.310273 32.384531 73.194204 32.28104 75.083984 32.171875 C 74.940093 33.300788 74.523106 36.68705 73.875 41.982422 L 70.402344 42.841797 A 1.0001 1.0001 0 1 0 70.882812 44.783203 L 73.619141 44.107422 C 73.549729 44.678508 73.478108 45.276182 73.40625 45.871094 L 68.623047 47.34375 A 1.0002221 1.0002221 0 1 0 69.210938 49.255859 L 73.144531 48.044922 C 73.022278 49.06555 72.922858 49.882256 72.796875 50.947266 L 69.587891 51.876953 A 1.0004314 1.0004314 0 1 0 70.144531 53.798828 L 72.537109 53.105469 C 72.477362 53.615866 72.433008 53.948911 72.373047 54.464844 C 72.232051 55.678034 72.097937 56.895962 71.958984 58.117188 L 69.794922 58.166016 A 1.0001 1.0001 0 1 0 69.839844 60.164062 L 71.732422 60.123047 C 70.601474 70.196053 69.610089 80.03129 69.378906 85.517578 C 62.376762 87.817429 53.552745 88.917599 45.154297 88.595703 L 45.96875 86.125 A 1.0001 1.0001 0 0 0 45.027344 84.798828 A 1.0001 1.0001 0 0 0 44.070312 85.498047 L 43.085938 88.480469 C 42.066619 88.41197 41.053388 88.329101 40.056641 88.216797 L 41.560547 86.103516 A 1.0001 1.0001 0 0 0 40.757812 84.511719 A 1.0001 1.0001 0 0 0 39.931641 84.943359 L 37.880859 87.824219 A 1.0001 1.0001 0 0 0 37.820312 87.919922 C 37.134158 87.817068 36.459348 87.699472 35.791016 87.574219 L 37.189453 84.775391 A 1.0001 1.0001 0 0 0 36.248047 83.316406 A 1.0001 1.0001 0 0 0 35.400391 83.880859 L 33.818359 87.044922 A 1.0001165 1.0001165 0 0 0 33.773438 87.152344 C 32.77259 86.922662 31.789931 86.673546 30.847656 86.388672 A 1.0001161 1.0001161 0 0 0 30.863281 86.357422 L 32.445312 83.193359 A 1.0001 1.0001 0 0 0 31.503906 81.736328 A 1.0001 1.0001 0 0 0 30.65625 82.300781 L 30.416016 82.783203 C 30.001665 78.764425 29.563656 74.993368 29.103516 71.517578 L 31.332031 71.140625 A 1.0001 1.0001 0 0 0 31.167969 69.152344 A 1.0001 1.0001 0 0 0 30.998047 69.167969 L 28.835938 69.533203 C 28.261843 65.341305 27.671883 61.414459 27.09375 57.607422 L 29.724609 59.351562 A 1.0001 1.0001 0 1 0 30.830078 57.685547 L 26.695312 54.943359 C 26.611706 54.38946 26.52793 53.834111 26.445312 53.28125 L 30.599609 54.541016 A 1.0001 1.0001 0 1 0 31.179688 52.626953 L 26.117188 51.089844 C 25.97289 50.104011 25.838702 49.09539 25.699219 48.101562 L 28.167969 49.289062 A 1.0002329 1.0002329 0 1 0 29.035156 47.486328 L 25.367188 45.720703 C 24.795026 41.454683 24.278966 37.024855 23.861328 32.158203 z M 61.412109 67.125 C 60.830109 67.125 60.357422 67.597687 60.357422 68.179688 C 60.357422 68.761688 60.830109 69.234375 61.412109 69.234375 C 61.994109 69.234375 62.466797 68.761688 62.466797 68.179688 C 62.466797 67.597687 61.994109 67.125 61.412109 67.125 z M 64.822266 74.710938 C 64.240266 74.710937 63.769531 75.181672 63.769531 75.763672 C 63.769531 76.345672 64.240266 76.818359 64.822266 76.818359 C 65.404266 76.818359 65.876953 76.345672 65.876953 75.763672 C 65.876953 75.181672 65.404266 74.710938 64.822266 74.710938 z M 57.617188 76.867188 C 57.035188 76.867188 56.564453 77.339875 56.564453 77.921875 C 56.564453 78.503875 57.035187 78.976562 57.617188 78.976562 C 58.199187 78.976562 58.671875 78.503875 58.671875 77.921875 C 58.671875 77.339875 58.199188 76.867188 57.617188 76.867188 z"/></svg>